solid EBadge2-front
facet normal 0.0 0.0 -1.0
  outer loop
    vertex 0.0 89.00000000000001 0.0
    vertex 6.000000000000002 88.00000000000001 0.0
    vertex 0.0 0.0 0.0
  endloop
endfacet
facet normal 0.0 0.0 -1.0
  outer loop
    vertex 6.000000000000002 88.00000000000001 0.0
    vertex 0.0 89.00000000000001 0.0
    vertex 70.0 89.00000000000001 0.0
  endloop
endfacet
facet normal 0.0 0.0 -1.0
  outer loop
    vertex 6.000000000000002 88.00000000000001 0.0
    vertex 70.0 89.00000000000001 0.0
    vertex 63.00000000000001 88.00000000000001 0.0
  endloop
endfacet
facet normal 0.0 0.0 -1.0
  outer loop
    vertex 63.00000000000001 88.00000000000001 0.0
    vertex 70.0 89.00000000000001 0.0
    vertex 63.00000000000001 0.9999999999999996 0.0
  endloop
endfacet
facet normal 0.0 0.0 -1.0
  outer loop
    vertex 0.0 0.0 0.0
    vertex 6.000000000000002 0.9999999999999996 0.0
    vertex 70.0 0.0 0.0
  endloop
endfacet
facet normal 0.0 0.0 -1.0
  outer loop
    vertex 6.000000000000002 0.9999999999999996 0.0
    vertex 0.0 0.0 0.0
    vertex 6.000000000000002 88.00000000000001 0.0
  endloop
endfacet
facet normal 0.0 0.0 -1.0
  outer loop
    vertex 70.0 0.0 0.0
    vertex 6.000000000000002 0.9999999999999996 0.0
    vertex 63.00000000000001 0.9999999999999996 0.0
  endloop
endfacet
facet normal 0.0 0.0 -1.0
  outer loop
    vertex 70.0 0.0 0.0
    vertex 63.00000000000001 0.9999999999999996 0.0
    vertex 70.0 89.00000000000001 0.0
  endloop
endfacet
facet normal 0.0 -1.0 0.0
  outer loop
    vertex 70.0 0.0 0.0
    vertex 57.00000000000001 0.0 5.499999999999996
    vertex 0.0 0.0 0.0
  endloop
endfacet
facet normal 0.0 -1.0 0.0
  outer loop
    vertex 57.00000000000001 0.0 5.499999999999996
    vertex 70.0 0.0 0.0
    vertex 70.0 -2.563915755331261e-17 14.999999999999984
  endloop
endfacet
facet normal 0.0 -1.0 0.0
  outer loop
    vertex 57.00000000000001 0.0 5.499999999999996
    vertex 70.0 -2.563915755331261e-17 14.999999999999984
    vertex 57.00000000000001 -5.397717379644763e-18 9.499999999999995
  endloop
endfacet
facet normal 0.0 -1.0 0.0
  outer loop
    vertex 57.00000000000001 -5.397717379644763e-18 9.499999999999995
    vertex 70.0 -2.563915755331261e-17 14.999999999999984
    vertex 57.00000000000001 -2.563915755331261e-17 14.999999999999984
  endloop
endfacet
facet normal 0.0 -1.0 0.0
  outer loop
    vertex 0.0 0.0 0.0
    vertex 38.99999999999999 0.0 5.499999999999996
    vertex 9.013660575945089e-17 -2.563915755331261e-17 14.999999999999984
  endloop
endfacet
facet normal 0.0 -1.0 0.0
  outer loop
    vertex 38.99999999999999 0.0 5.499999999999996
    vertex 0.0 0.0 0.0
    vertex 57.00000000000001 0.0 5.499999999999996
  endloop
endfacet
facet normal 0.0 -1.0 0.0
  outer loop
    vertex 9.013660575945089e-17 -2.563915755331261e-17 14.999999999999984
    vertex 38.99999999999999 0.0 5.499999999999996
    vertex 38.99999999999999 -5.3977173796447645e-18 9.499999999999995
  endloop
endfacet
facet normal 0.0 -1.0 0.0
  outer loop
    vertex 9.013660575945089e-17 -2.563915755331261e-17 14.999999999999984
    vertex 38.99999999999999 -5.3977173796447645e-18 9.499999999999995
    vertex 38.99999999999999 -2.563915755331261e-17 14.999999999999984
  endloop
endfacet
facet normal -1.0 0.0 0.0
  outer loop
    vertex 9.013660575945089e-17 89.00000000000001 14.999999999999984
    vertex 0.0 0.0 0.0
    vertex 9.013660575945089e-17 -2.563915755331261e-17 14.999999999999984
  endloop
endfacet
facet normal -1.0 0.0 0.0
  outer loop
    vertex 0.0 0.0 0.0
    vertex 9.013660575945089e-17 89.00000000000001 14.999999999999984
    vertex 0.0 89.00000000000001 0.0
  endloop
endfacet
facet normal -0.0 1.0 -0.0
  outer loop
    vertex 9.013660575945089e-17 89.00000000000001 14.999999999999984
    vertex 70.0 89.00000000000001 0.0
    vertex 0.0 89.00000000000001 0.0
  endloop
endfacet
facet normal -0.0 1.0 -0.0
  outer loop
    vertex 70.0 89.00000000000001 0.0
    vertex 9.013660575945089e-17 89.00000000000001 14.999999999999984
    vertex 70.0 89.00000000000001 14.999999999999984
  endloop
endfacet
facet normal 1.0 0.0 0.0
  outer loop
    vertex 70.0 0.0 0.0
    vertex 70.0 89.00000000000001 14.999999999999984
    vertex 70.0 -2.563915755331261e-17 14.999999999999984
  endloop
endfacet
facet normal 1.0 0.0 0.0
  outer loop
    vertex 70.0 89.00000000000001 14.999999999999984
    vertex 70.0 0.0 0.0
    vertex 70.0 89.00000000000001 0.0
  endloop
endfacet
facet normal 1.0 -0.0 -0.0
  outer loop
    vertex 6.000000000000002 88.00000000000001 0.0
    vertex 6.000000000000002 0.9999999999999996 3.9999999999999996
    vertex 6.000000000000002 0.9999999999999996 0.0
  endloop
endfacet
facet normal 1.0 -0.0 -0.0
  outer loop
    vertex 6.000000000000002 0.9999999999999996 3.9999999999999996
    vertex 6.000000000000002 88.00000000000001 0.0
    vertex 6.000000000000001 6.999999999999998 3.9999999999999996
  endloop
endfacet
facet normal 1.0 -0.0 -0.0
  outer loop
    vertex 6.000000000000001 6.999999999999998 3.9999999999999996
    vertex 6.000000000000002 88.00000000000001 0.0
    vertex 6.000000000000001 6.999999999999998 5.499999999999996
  endloop
endfacet
facet normal 1.0 -0.0 -0.0
  outer loop
    vertex 6.000000000000001 6.999999999999998 5.499999999999996
    vertex 6.000000000000002 88.00000000000001 0.0
    vertex 6.000000000000001 82.00000000000001 3.9999999999999996
  endloop
endfacet
facet normal 1.0 -0.0 -0.0
  outer loop
    vertex 6.000000000000001 82.00000000000001 3.9999999999999996
    vertex 6.000000000000002 88.00000000000001 0.0
    vertex 6.000000000000002 88.00000000000001 3.9999999999999996
  endloop
endfacet
facet normal 1.0 -0.0 -0.0
  outer loop
    vertex 6.000000000000001 82.00000000000001 5.499999999999996
    vertex 6.000000000000001 6.999999999999998 5.499999999999996
    vertex 6.000000000000001 82.00000000000001 3.9999999999999996
  endloop
endfacet
facet normal -0.0 1.0 -0.0
  outer loop
    vertex 6.000000000000002 0.9999999999999996 3.9999999999999996
    vertex 63.00000000000001 0.9999999999999996 0.0
    vertex 6.000000000000002 0.9999999999999996 0.0
  endloop
endfacet
facet normal -0.0 1.0 -0.0
  outer loop
    vertex 63.00000000000001 0.9999999999999996 0.0
    vertex 6.000000000000002 0.9999999999999996 3.9999999999999996
    vertex 63.00000000000001 0.9999999999999996 3.9999999999999996
  endloop
endfacet
facet normal -0.0 1.0 -0.0
  outer loop
    vertex 63.00000000000001 0.9999999999999996 3.9999999999999996
    vertex 6.000000000000002 0.9999999999999996 3.9999999999999996
    vertex 38.99999999999999 0.9999999999999996 5.499999999999996
  endloop
endfacet
facet normal -0.0 1.0 -0.0
  outer loop
    vertex 38.99999999999999 0.9999999999999996 5.499999999999996
    vertex 6.000000000000002 0.9999999999999996 3.9999999999999996
    vertex 6.000000000000002 0.9999999999999996 14.999999999999984
  endloop
endfacet
facet normal -0.0 1.0 -0.0
  outer loop
    vertex 38.99999999999999 0.9999999999999996 5.499999999999996
    vertex 6.000000000000002 0.9999999999999996 14.999999999999984
    vertex 38.99999999999999 0.9999999999999996 9.499999999999995
  endloop
endfacet
facet normal -0.0 1.0 -0.0
  outer loop
    vertex 38.99999999999999 0.9999999999999996 9.499999999999995
    vertex 6.000000000000002 0.9999999999999996 14.999999999999984
    vertex 38.99999999999999 0.9999999999999996 14.999999999999984
  endloop
endfacet
facet normal -0.0 1.0 -0.0
  outer loop
    vertex 63.00000000000001 0.9999999999999996 3.9999999999999996
    vertex 57.00000000000001 0.9999999999999996 5.499999999999996
    vertex 63.00000000000001 0.9999999999999996 14.999999999999984
  endloop
endfacet
facet normal -0.0 1.0 -0.0
  outer loop
    vertex 57.00000000000001 0.9999999999999996 5.499999999999996
    vertex 63.00000000000001 0.9999999999999996 3.9999999999999996
    vertex 38.99999999999999 0.9999999999999996 5.499999999999996
  endloop
endfacet
facet normal -0.0 1.0 -0.0
  outer loop
    vertex 63.00000000000001 0.9999999999999996 14.999999999999984
    vertex 57.00000000000001 0.9999999999999996 5.499999999999996
    vertex 57.00000000000001 0.9999999999999996 9.499999999999995
  endloop
endfacet
facet normal -0.0 1.0 -0.0
  outer loop
    vertex 63.00000000000001 0.9999999999999996 14.999999999999984
    vertex 57.00000000000001 0.9999999999999996 9.499999999999995
    vertex 57.00000000000001 0.9999999999999996 14.999999999999984
  endloop
endfacet
facet normal -1.0 0.0 0.0
  outer loop
    vertex 63.00000000000001 82.00000000000001 5.499999999999994
    vertex 63.00000000000001 6.999999999999998 3.9999999999999996
    vertex 63.00000000000001 6.999999999999998 5.499999999999994
  endloop
endfacet
facet normal -1.0 0.0 0.0
  outer loop
    vertex 63.00000000000001 6.999999999999998 3.9999999999999996
    vertex 63.00000000000001 0.9999999999999996 0.0
    vertex 63.00000000000001 0.9999999999999996 3.9999999999999996
  endloop
endfacet
facet normal -1.0 0.0 0.0
  outer loop
    vertex 63.00000000000001 0.9999999999999996 0.0
    vertex 63.00000000000001 6.999999999999998 3.9999999999999996
    vertex 63.00000000000001 88.00000000000001 0.0
  endloop
endfacet
facet normal -1.0 0.0 0.0
  outer loop
    vertex 63.00000000000001 88.00000000000001 0.0
    vertex 63.00000000000001 6.999999999999998 3.9999999999999996
    vertex 63.00000000000001 82.00000000000001 3.9999999999999996
  endloop
endfacet
facet normal -1.0 0.0 0.0
  outer loop
    vertex 63.00000000000001 82.00000000000001 3.9999999999999996
    vertex 63.00000000000001 6.999999999999998 3.9999999999999996
    vertex 63.00000000000001 82.00000000000001 5.499999999999994
  endloop
endfacet
facet normal -1.0 0.0 0.0
  outer loop
    vertex 63.00000000000001 88.00000000000001 0.0
    vertex 63.00000000000001 82.00000000000001 3.9999999999999996
    vertex 63.00000000000001 88.00000000000001 3.9999999999999996
  endloop
endfacet
facet normal -0.0 -0.0 1.0
  outer loop
    vertex 0.9999999999999974 82.00000000000001 3.9999999999999996
    vertex 6.000000000000002 88.00000000000001 3.9999999999999996
    vertex 0.9999999999999966 88.0 3.9999999999999996
  endloop
endfacet
facet normal -0.0 -0.0 1.0
  outer loop
    vertex 6.000000000000002 88.00000000000001 3.9999999999999996
    vertex 0.9999999999999974 82.00000000000001 3.9999999999999996
    vertex 6.000000000000001 82.00000000000001 3.9999999999999996
  endloop
endfacet
facet normal 0.0 -1.0 0.0
  outer loop
    vertex 63.00000000000001 88.00000000000001 3.9999999999999996
    vertex 6.000000000000002 88.00000000000001 0.0
    vertex 63.00000000000001 88.00000000000001 0.0
  endloop
endfacet
facet normal 0.0 -1.0 0.0
  outer loop
    vertex 6.000000000000002 88.00000000000001 0.0
    vertex 63.00000000000001 88.00000000000001 3.9999999999999996
    vertex 6.000000000000002 88.00000000000001 3.9999999999999996
  endloop
endfacet
facet normal 0.0 -1.0 0.0
  outer loop
    vertex 6.000000000000002 88.00000000000001 3.9999999999999996
    vertex 63.00000000000001 88.00000000000001 3.9999999999999996
    vertex 63.00000000000001 88.00000000000001 14.999999999999984
  endloop
endfacet
facet normal 0.0 -1.0 0.0
  outer loop
    vertex 6.000000000000002 88.00000000000001 3.9999999999999996
    vertex 63.00000000000001 88.00000000000001 14.999999999999984
    vertex 6.000000000000002 88.00000000000001 14.999999999999984
  endloop
endfacet
facet normal -0.0 -0.0 1.0
  outer loop
    vertex 69.00000000000001 82.00000000000001 3.9999999999999996
    vertex 63.00000000000001 88.00000000000001 3.9999999999999996
    vertex 63.00000000000001 82.00000000000001 3.9999999999999996
  endloop
endfacet
facet normal -0.0 -0.0 1.0
  outer loop
    vertex 63.00000000000001 88.00000000000001 3.9999999999999996
    vertex 69.00000000000001 82.00000000000001 3.9999999999999996
    vertex 69.00000000000001 88.00000000000001 3.9999999999999996
  endloop
endfacet
facet normal -0.0 -0.0 1.0
  outer loop
    vertex 57.00000000000001 0.0 5.499999999999996
    vertex 38.99999999999999 0.9999999999999996 5.499999999999996
    vertex 38.99999999999999 0.0 5.499999999999996
  endloop
endfacet
facet normal -0.0 -0.0 1.0
  outer loop
    vertex 38.99999999999999 0.9999999999999996 5.499999999999996
    vertex 57.00000000000001 0.0 5.499999999999996
    vertex 57.00000000000001 0.9999999999999996 5.499999999999996
  endloop
endfacet
facet normal 0.0 1.0 0.0
  outer loop
    vertex 1.0 0.9999999999999996 14.999999999999984
    vertex 6.000000000000002 0.9999999999999996 3.9999999999999996
    vertex 1.0 0.9999999999999996 3.9999999999999996
  endloop
endfacet
facet normal 0.0 1.0 0.0
  outer loop
    vertex 6.000000000000002 0.9999999999999996 3.9999999999999996
    vertex 1.0 0.9999999999999996 14.999999999999984
    vertex 6.000000000000002 0.9999999999999996 14.999999999999984
  endloop
endfacet
facet normal 1.0 1.4687325429936992e-16 2.1571752828482497e-33
  outer loop
    vertex 0.9999999999999966 88.0 3.9999999999999996
    vertex 0.9999999999999974 82.00000000000001 5.499999999999996
    vertex 0.9999999999999974 82.00000000000001 3.9999999999999996
  endloop
endfacet
facet normal 1.0 1.4687325429936992e-16 2.1571752828482497e-33
  outer loop
    vertex 0.9999999999999974 82.00000000000001 5.499999999999996
    vertex 0.9999999999999966 88.0 3.9999999999999996
    vertex 0.9999999999999974 82.00000000000001 14.999999999999984
  endloop
endfacet
facet normal 1.0 1.4687325429936992e-16 2.1571752828482497e-33
  outer loop
    vertex 0.9999999999999974 82.00000000000001 14.999999999999984
    vertex 0.9999999999999966 88.0 3.9999999999999996
    vertex 0.9999999999999966 88.0 14.999999999999984
  endloop
endfacet
facet normal 2.2559731860383158e-15 -1.0 0.0
  outer loop
    vertex 6.000000000000002 88.00000000000001 14.999999999999984
    vertex 0.9999999999999966 88.0 3.9999999999999996
    vertex 6.000000000000002 88.00000000000001 3.9999999999999996
  endloop
endfacet
facet normal 2.2559731860383158e-15 -1.0 0.0
  outer loop
    vertex 0.9999999999999966 88.0 3.9999999999999996
    vertex 6.000000000000002 88.00000000000001 14.999999999999984
    vertex 0.9999999999999966 88.0 14.999999999999984
  endloop
endfacet
facet normal 0.0 -1.0 0.0
  outer loop
    vertex 69.00000000000001 88.00000000000001 14.999999999999984
    vertex 63.00000000000001 88.00000000000001 3.9999999999999996
    vertex 69.00000000000001 88.00000000000001 3.9999999999999996
  endloop
endfacet
facet normal 0.0 -1.0 0.0
  outer loop
    vertex 63.00000000000001 88.00000000000001 3.9999999999999996
    vertex 69.00000000000001 88.00000000000001 14.999999999999984
    vertex 63.00000000000001 88.00000000000001 14.999999999999984
  endloop
endfacet
facet normal -1.0 0.0 0.0
  outer loop
    vertex 69.00000000000001 6.999999999999998 14.999999999999979
    vertex 69.00000000000001 0.9999999999999981 3.9999999999999996
    vertex 69.00000000000001 0.9999999999999981 14.999999999999984
  endloop
endfacet
facet normal -1.0 0.0 0.0
  outer loop
    vertex 69.00000000000001 0.9999999999999981 3.9999999999999996
    vertex 69.00000000000001 6.999999999999998 14.999999999999979
    vertex 69.00000000000001 6.999999999999998 3.9999999999999996
  endloop
endfacet
facet normal -1.0 0.0 0.0
  outer loop
    vertex 69.00000000000001 6.999999999999998 3.9999999999999996
    vertex 69.00000000000001 6.999999999999998 14.999999999999979
    vertex 69.00000000000001 6.999999999999998 5.499999999999994
  endloop
endfacet
facet normal 2.3499720687899147e-16 1.0 0.0
  outer loop
    vertex 63.00000000000001 0.9999999999999996 14.999999999999984
    vertex 69.00000000000001 0.9999999999999981 3.9999999999999996
    vertex 63.00000000000001 0.9999999999999996 3.9999999999999996
  endloop
endfacet
facet normal 2.3499720687899147e-16 1.0 0.0
  outer loop
    vertex 69.00000000000001 0.9999999999999981 3.9999999999999996
    vertex 63.00000000000001 0.9999999999999996 14.999999999999984
    vertex 69.00000000000001 0.9999999999999981 14.999999999999984
  endloop
endfacet
facet normal -0.0 -0.0 1.0
  outer loop
    vertex 69.00000000000001 0.9999999999999981 3.9999999999999996
    vertex 63.00000000000001 6.999999999999998 3.9999999999999996
    vertex 63.00000000000001 0.9999999999999996 3.9999999999999996
  endloop
endfacet
facet normal -0.0 -0.0 1.0
  outer loop
    vertex 63.00000000000001 6.999999999999998 3.9999999999999996
    vertex 69.00000000000001 0.9999999999999981 3.9999999999999996
    vertex 69.00000000000001 6.999999999999998 3.9999999999999996
  endloop
endfacet
facet normal -0.0 -0.0 1.0
  outer loop
    vertex 1.0 0.9999999999999996 3.9999999999999996
    vertex 6.000000000000001 6.999999999999998 3.9999999999999996
    vertex 0.999999999999999 6.999999999999998 3.9999999999999996
  endloop
endfacet
facet normal -0.0 -0.0 1.0
  outer loop
    vertex 6.000000000000001 6.999999999999998 3.9999999999999996
    vertex 1.0 0.9999999999999996 3.9999999999999996
    vertex 6.000000000000002 0.9999999999999996 3.9999999999999996
  endloop
endfacet
facet normal -0.0 -0.0 1.0
  outer loop
    vertex 0.999999999999999 6.999999999999998 5.499999999999996
    vertex 6.000000000000001 82.00000000000001 5.499999999999996
    vertex 0.9999999999999974 82.00000000000001 5.499999999999996
  endloop
endfacet
facet normal -0.0 -0.0 1.0
  outer loop
    vertex 6.000000000000001 82.00000000000001 5.499999999999996
    vertex 0.999999999999999 6.999999999999998 5.499999999999996
    vertex 6.000000000000001 6.999999999999998 5.499999999999996
  endloop
endfacet
facet normal 0.0 -1.0 0.0
  outer loop
    vertex 6.000000000000001 6.999999999999998 5.499999999999996
    vertex 0.999999999999999 6.999999999999998 3.9999999999999996
    vertex 6.000000000000001 6.999999999999998 3.9999999999999996
  endloop
endfacet
facet normal 0.0 -1.0 0.0
  outer loop
    vertex 0.999999999999999 6.999999999999998 3.9999999999999996
    vertex 6.000000000000001 6.999999999999998 5.499999999999996
    vertex 0.999999999999999 6.999999999999998 5.499999999999996
  endloop
endfacet
facet normal -0.0 1.0 -0.0
  outer loop
    vertex 0.9999999999999974 82.00000000000001 5.499999999999996
    vertex 6.000000000000001 82.00000000000001 3.9999999999999996
    vertex 0.9999999999999974 82.00000000000001 3.9999999999999996
  endloop
endfacet
facet normal -0.0 1.0 -0.0
  outer loop
    vertex 6.000000000000001 82.00000000000001 3.9999999999999996
    vertex 0.9999999999999974 82.00000000000001 5.499999999999996
    vertex 6.000000000000001 82.00000000000001 5.499999999999996
  endloop
endfacet
facet normal 1.0 1.7624790515924362e-16 -2.5886103394185177e-33
  outer loop
    vertex 0.999999999999999 6.999999999999998 3.9999999999999996
    vertex 1.0 0.9999999999999996 14.999999999999984
    vertex 1.0 0.9999999999999996 3.9999999999999996
  endloop
endfacet
facet normal 1.0 1.7624790515924362e-16 -2.5886103394185177e-33
  outer loop
    vertex 1.0 0.9999999999999996 14.999999999999984
    vertex 0.999999999999999 6.999999999999998 3.9999999999999996
    vertex 0.999999999999999 6.999999999999998 14.999999999999984
  endloop
endfacet
facet normal 1.0 1.7624790515924362e-16 -2.5886103394185177e-33
  outer loop
    vertex 0.999999999999999 6.999999999999998 14.999999999999984
    vertex 0.999999999999999 6.999999999999998 3.9999999999999996
    vertex 0.999999999999999 6.999999999999998 5.499999999999996
  endloop
endfacet
facet normal -0.0 -0.0 1.0
  outer loop
    vertex 69.00000000000001 6.999999999999998 5.499999999999994
    vertex 63.00000000000001 82.00000000000001 5.499999999999994
    vertex 63.00000000000001 6.999999999999998 5.499999999999994
  endloop
endfacet
facet normal -0.0 -0.0 1.0
  outer loop
    vertex 63.00000000000001 82.00000000000001 5.499999999999994
    vertex 69.00000000000001 6.999999999999998 5.499999999999994
    vertex 69.00000000000001 82.00000000000001 5.499999999999994
  endloop
endfacet
facet normal 0.0 -1.0 0.0
  outer loop
    vertex 69.00000000000001 6.999999999999998 5.499999999999994
    vertex 63.00000000000001 6.999999999999998 3.9999999999999996
    vertex 69.00000000000001 6.999999999999998 3.9999999999999996
  endloop
endfacet
facet normal 0.0 -1.0 0.0
  outer loop
    vertex 63.00000000000001 6.999999999999998 3.9999999999999996
    vertex 69.00000000000001 6.999999999999998 5.499999999999994
    vertex 63.00000000000001 6.999999999999998 5.499999999999994
  endloop
endfacet
facet normal -0.0 1.0 -0.0
  outer loop
    vertex 63.00000000000001 82.00000000000001 5.499999999999994
    vertex 69.00000000000001 82.00000000000001 3.9999999999999996
    vertex 63.00000000000001 82.00000000000001 3.9999999999999996
  endloop
endfacet
facet normal -0.0 1.0 -0.0
  outer loop
    vertex 69.00000000000001 82.00000000000001 3.9999999999999996
    vertex 63.00000000000001 82.00000000000001 5.499999999999994
    vertex 69.00000000000001 82.00000000000001 5.499999999999994
  endloop
endfacet
facet normal -1.0 0.0 0.0
  outer loop
    vertex 69.00000000000001 88.00000000000001 14.999999999999984
    vertex 69.00000000000001 82.00000000000001 5.499999999999994
    vertex 69.00000000000001 82.00000000000001 14.999999999999979
  endloop
endfacet
facet normal -1.0 0.0 0.0
  outer loop
    vertex 69.00000000000001 82.00000000000001 5.499999999999994
    vertex 69.00000000000001 88.00000000000001 14.999999999999984
    vertex 69.00000000000001 82.00000000000001 3.9999999999999996
  endloop
endfacet
facet normal -1.0 0.0 0.0
  outer loop
    vertex 69.00000000000001 82.00000000000001 3.9999999999999996
    vertex 69.00000000000001 88.00000000000001 14.999999999999984
    vertex 69.00000000000001 88.00000000000001 3.9999999999999996
  endloop
endfacet
facet normal 9.488063764152729e-18 -2.698858689822378e-18 1.0
  outer loop
    vertex 9.013660575945089e-17 -2.563915755331261e-17 14.999999999999984
    vertex 1.0 0.9999999999999996 14.999999999999984
    vertex 9.013660575945089e-17 89.00000000000001 14.999999999999984
  endloop
endfacet
facet normal 9.488063764152729e-18 -2.698858689822378e-18 1.0
  outer loop
    vertex 1.0 0.9999999999999996 14.999999999999984
    vertex 9.013660575945089e-17 -2.563915755331261e-17 14.999999999999984
    vertex 38.99999999999999 -2.563915755331261e-17 14.999999999999984
  endloop
endfacet
facet normal 9.488063764152729e-18 -2.698858689822378e-18 1.0
  outer loop
    vertex 9.013660575945089e-17 89.00000000000001 14.999999999999984
    vertex 1.0 0.9999999999999996 14.999999999999984
    vertex 0.999999999999999 6.999999999999998 14.999999999999984
  endloop
endfacet
facet normal 9.488063764152729e-18 -2.698858689822378e-18 1.0
  outer loop
    vertex 9.013660575945089e-17 89.00000000000001 14.999999999999984
    vertex 0.999999999999999 6.999999999999998 14.999999999999984
    vertex 0.9999999999999966 88.0 14.999999999999984
  endloop
endfacet
facet normal 9.488063764152729e-18 -2.698858689822378e-18 1.0
  outer loop
    vertex 0.9999999999999966 88.0 14.999999999999984
    vertex 0.999999999999999 6.999999999999998 14.999999999999984
    vertex 0.9999999999999974 82.00000000000001 14.999999999999984
  endloop
endfacet
facet normal 9.488063764152729e-18 -2.698858689822378e-18 1.0
  outer loop
    vertex 1.0 0.9999999999999996 14.999999999999984
    vertex 38.99999999999999 -2.563915755331261e-17 14.999999999999984
    vertex 6.000000000000002 0.9999999999999996 14.999999999999984
  endloop
endfacet
facet normal 9.488063764152729e-18 -2.698858689822378e-18 1.0
  outer loop
    vertex 6.000000000000002 0.9999999999999996 14.999999999999984
    vertex 38.99999999999999 -2.563915755331261e-17 14.999999999999984
    vertex 38.99999999999999 0.9999999999999996 14.999999999999984
  endloop
endfacet
facet normal 9.488063764152729e-18 -2.698858689822378e-18 1.0
  outer loop
    vertex 70.0 -2.563915755331261e-17 14.999999999999984
    vertex 57.00000000000001 0.9999999999999996 14.999999999999984
    vertex 57.00000000000001 -2.563915755331261e-17 14.999999999999984
  endloop
endfacet
facet normal 9.488063764152729e-18 -2.698858689822378e-18 1.0
  outer loop
    vertex 57.00000000000001 0.9999999999999996 14.999999999999984
    vertex 70.0 -2.563915755331261e-17 14.999999999999984
    vertex 63.00000000000001 0.9999999999999996 14.999999999999984
  endloop
endfacet
facet normal 9.488063764152729e-18 -2.698858689822378e-18 1.0
  outer loop
    vertex 63.00000000000001 0.9999999999999996 14.999999999999984
    vertex 70.0 -2.563915755331261e-17 14.999999999999984
    vertex 69.00000000000001 0.9999999999999981 14.999999999999984
  endloop
endfacet
facet normal 9.488063764152729e-18 -2.698858689822378e-18 1.0
  outer loop
    vertex 69.00000000000001 0.9999999999999981 14.999999999999984
    vertex 70.0 -2.563915755331261e-17 14.999999999999984
    vertex 69.00000000000001 6.999999999999998 14.999999999999979
  endloop
endfacet
facet normal 9.488063764152729e-18 -2.698858689822378e-18 1.0
  outer loop
    vertex 69.00000000000001 6.999999999999998 14.999999999999979
    vertex 70.0 -2.563915755331261e-17 14.999999999999984
    vertex 69.00000000000001 82.00000000000001 14.999999999999979
  endloop
endfacet
facet normal 9.488063764152729e-18 -2.698858689822378e-18 1.0
  outer loop
    vertex 69.00000000000001 82.00000000000001 14.999999999999979
    vertex 70.0 -2.563915755331261e-17 14.999999999999984
    vertex 69.00000000000001 88.00000000000001 14.999999999999984
  endloop
endfacet
facet normal 9.488063764152729e-18 -2.698858689822378e-18 1.0
  outer loop
    vertex 0.9999999999999966 88.0 14.999999999999984
    vertex 70.0 89.00000000000001 14.999999999999984
    vertex 9.013660575945089e-17 89.00000000000001 14.999999999999984
  endloop
endfacet
facet normal 9.488063764152729e-18 -2.698858689822378e-18 1.0
  outer loop
    vertex 70.0 89.00000000000001 14.999999999999984
    vertex 0.9999999999999966 88.0 14.999999999999984
    vertex 6.000000000000002 88.00000000000001 14.999999999999984
  endloop
endfacet
facet normal 9.488063764152729e-18 -2.698858689822378e-18 1.0
  outer loop
    vertex 70.0 89.00000000000001 14.999999999999984
    vertex 6.000000000000002 88.00000000000001 14.999999999999984
    vertex 63.00000000000001 88.00000000000001 14.999999999999984
  endloop
endfacet
facet normal 9.488063764152729e-18 -2.698858689822378e-18 1.0
  outer loop
    vertex 70.0 89.00000000000001 14.999999999999984
    vertex 63.00000000000001 88.00000000000001 14.999999999999984
    vertex 69.00000000000001 88.00000000000001 14.999999999999984
  endloop
endfacet
facet normal 9.488063764152729e-18 -2.698858689822378e-18 1.0
  outer loop
    vertex 70.0 89.00000000000001 14.999999999999984
    vertex 69.00000000000001 88.00000000000001 14.999999999999984
    vertex 70.0 -2.563915755331261e-17 14.999999999999984
  endloop
endfacet
facet normal 1.0 -0.0 -0.0
  outer loop
    vertex 38.99999999999999 0.0 5.499999999999996
    vertex 38.99999999999999 0.9999999999999996 9.499999999999995
    vertex 38.99999999999999 -5.3977173796447645e-18 9.499999999999995
  endloop
endfacet
facet normal 1.0 -0.0 -0.0
  outer loop
    vertex 38.99999999999999 0.9999999999999996 9.499999999999995
    vertex 38.99999999999999 0.0 5.499999999999996
    vertex 38.99999999999999 0.9999999999999996 5.499999999999996
  endloop
endfacet
facet normal 1.0 2.114974861910923e-17 -9.488063764152729e-18
  outer loop
    vertex 0.9999999999999974 82.00000000000001 5.499999999999996
    vertex 0.999999999999999 6.999999999999998 14.999999999999984
    vertex 0.999999999999999 6.999999999999998 5.499999999999996
  endloop
endfacet
facet normal 1.0 2.114974861910923e-17 -9.488063764152729e-18
  outer loop
    vertex 0.999999999999999 6.999999999999998 14.999999999999984
    vertex 0.9999999999999974 82.00000000000001 5.499999999999996
    vertex 0.9999999999999974 82.00000000000001 14.999999999999984
  endloop
endfacet
facet normal -1.0 0.0 9.488063764152729e-18
  outer loop
    vertex 69.00000000000001 82.00000000000001 14.999999999999979
    vertex 69.00000000000001 6.999999999999998 5.499999999999994
    vertex 69.00000000000001 6.999999999999998 14.999999999999979
  endloop
endfacet
facet normal -1.0 0.0 9.488063764152729e-18
  outer loop
    vertex 69.00000000000001 6.999999999999998 5.499999999999994
    vertex 69.00000000000001 82.00000000000001 14.999999999999979
    vertex 69.00000000000001 82.00000000000001 5.499999999999994
  endloop
endfacet
facet normal -1.0 0.0 0.0
  outer loop
    vertex 57.00000000000001 0.9999999999999996 14.999999999999984
    vertex 57.00000000000001 -5.397717379644763e-18 9.499999999999995
    vertex 57.00000000000001 -2.563915755331261e-17 14.999999999999984
  endloop
endfacet
facet normal -1.0 0.0 0.0
  outer loop
    vertex 57.00000000000001 -5.397717379644763e-18 9.499999999999995
    vertex 57.00000000000001 0.9999999999999996 14.999999999999984
    vertex 57.00000000000001 0.9999999999999996 9.499999999999995
  endloop
endfacet
facet normal 1.0 -0.0 -0.0
  outer loop
    vertex 38.99999999999999 -5.3977173796447645e-18 9.499999999999995
    vertex 38.99999999999999 0.9999999999999996 14.999999999999984
    vertex 38.99999999999999 -2.563915755331261e-17 14.999999999999984
  endloop
endfacet
facet normal 1.0 -0.0 -0.0
  outer loop
    vertex 38.99999999999999 0.9999999999999996 14.999999999999984
    vertex 38.99999999999999 -5.3977173796447645e-18 9.499999999999995
    vertex 38.99999999999999 0.9999999999999996 9.499999999999995
  endloop
endfacet
facet normal -1.0 0.0 0.0
  outer loop
    vertex 57.00000000000001 0.9999999999999996 9.499999999999995
    vertex 57.00000000000001 0.0 5.499999999999996
    vertex 57.00000000000001 -5.397717379644763e-18 9.499999999999995
  endloop
endfacet
facet normal -1.0 0.0 0.0
  outer loop
    vertex 57.00000000000001 0.0 5.499999999999996
    vertex 57.00000000000001 0.9999999999999996 9.499999999999995
    vertex 57.00000000000001 0.9999999999999996 5.499999999999996
  endloop
endfacet
facet normal 3.916620114649855e-17 -7.049916206369746e-16 1.0
  outer loop
    vertex 57.00000000000001 -5.397717379644763e-18 9.499999999999995
    vertex 38.99999999999999 0.9999999999999996 9.499999999999995
    vertex 38.99999999999999 -5.3977173796447645e-18 9.499999999999995
  endloop
endfacet
facet normal 3.916620114649855e-17 -7.049916206369746e-16 1.0
  outer loop
    vertex 38.99999999999999 0.9999999999999996 9.499999999999995
    vertex 57.00000000000001 -5.397717379644763e-18 9.499999999999995
    vertex 57.00000000000001 0.9999999999999996 9.499999999999995
  endloop
endfacet
facet normal -0.0 -0.0 1.0
  outer loop
    vertex 57.00000000000001 -2.563915755331261e-17 14.999999999999984
    vertex 38.99999999999999 0.9999999999999996 14.999999999999984
    vertex 38.99999999999999 -2.563915755331261e-17 14.999999999999984
  endloop
endfacet
facet normal -0.0 -0.0 1.0
  outer loop
    vertex 38.99999999999999 0.9999999999999996 14.999999999999984
    vertex 57.00000000000001 -2.563915755331261e-17 14.999999999999984
    vertex 57.00000000000001 0.9999999999999996 14.999999999999984
  endloop
endfacet
facet normal 4.793722850774951e-35 -1.0 -3.680261849757797e-18
  outer loop
    vertex 57.00000000000001 -2.563915755331261e-17 14.999999999999984
    vertex 38.99999999999999 -5.3977173796447645e-18 9.499999999999995
    vertex 57.00000000000001 -5.397717379644763e-18 9.499999999999995
  endloop
endfacet
facet normal 4.793722850774951e-35 -1.0 -3.680261849757797e-18
  outer loop
    vertex 38.99999999999999 -5.3977173796447645e-18 9.499999999999995
    vertex 57.00000000000001 -2.563915755331261e-17 14.999999999999984
    vertex 38.99999999999999 -2.563915755331261e-17 14.999999999999984
  endloop
endfacet
facet normal -0.0 1.0 -0.0
  outer loop
    vertex 38.99999999999999 0.9999999999999996 9.499999999999995
    vertex 57.00000000000001 0.9999999999999996 14.999999999999984
    vertex 57.00000000000001 0.9999999999999996 9.499999999999995
  endloop
endfacet
facet normal -0.0 1.0 -0.0
  outer loop
    vertex 57.00000000000001 0.9999999999999996 14.999999999999984
    vertex 38.99999999999999 0.9999999999999996 9.499999999999995
    vertex 38.99999999999999 0.9999999999999996 14.999999999999984
  endloop
endfacet
endsolid EBadge2-front
