solid EBadge4-back
facet normal 5.8244796660248436e-08 -0.9999999999999651 -2.574210903568769e-07
  outer loop
    vertex 70.00000017708916 1.5485793904881373e-07 10.000000000195868
    vertex 0.0 0.0 0.0
    vertex 70.0 0.0 0.0
  endloop
endfacet
facet normal 5.8244796660248436e-08 -0.9999999999999651 -2.574210903568769e-07
  outer loop
    vertex 0.0 0.0 0.0
    vertex 70.00000017708916 1.5485793904881373e-07 10.000000000195868
    vertex 40.00000000000001 4.98499282151374e-15 6.200000000195891
  endloop
endfacet
facet normal 5.8244796660248436e-08 -0.9999999999999651 -2.574210903568769e-07
  outer loop
    vertex 40.00000000000001 4.98499282151374e-15 6.200000000195891
    vertex 70.00000017708916 1.5485793904881373e-07 10.000000000195868
    vertex 40.00000017708916 1.54857939049098e-07 10.000000000195875
  endloop
endfacet
facet normal 5.8244796660248436e-08 -0.9999999999999651 -2.574210903568769e-07
  outer loop
    vertex 0.0 0.0 0.0
    vertex 30.0 4.984416082276717e-15 6.200000000195891
    vertex -2.9361044938562676e-05 -8.082618672650944e-06 10.00000000019588
  endloop
endfacet
facet normal 5.8244796660248436e-08 -0.9999999999999651 -2.574210903568769e-07
  outer loop
    vertex 30.0 4.984416082276717e-15 6.200000000195891
    vertex 0.0 0.0 0.0
    vertex 40.00000000000001 4.98499282151374e-15 6.200000000195891
  endloop
endfacet
facet normal 5.8244796660248436e-08 -0.9999999999999651 -2.574210903568769e-07
  outer loop
    vertex -2.9361044938562676e-05 -8.082618672650944e-06 10.00000000019588
    vertex 30.0 4.984416082276717e-15 6.200000000195891
    vertex 30.00000017708916 1.5485793904852126e-07 10.000000000195875
  endloop
endfacet
facet normal -1.0 0.0 0.0
  outer loop
    vertex -2.9361044938562676e-05 88.99999191738128 10.00000000019588
    vertex 0.0 0.0 0.0
    vertex -2.9361044938562676e-05 -8.082618672650944e-06 10.00000000019588
  endloop
endfacet
facet normal -1.0 0.0 0.0
  outer loop
    vertex 0.0 0.0 0.0
    vertex -2.9361044938562676e-05 88.99999191738128 10.00000000019588
    vertex 0.0 89.00000000000001 0.0
  endloop
endfacet
facet normal 1.0 -5.874930171974792e-17 1.5106963298940933e-16
  outer loop
    vertex 6.000000000000003 7.0 1.0000000000000038
    vertex 6.000000177089178 1.0000001548579385 10.000000000195897
    vertex 6.000000000000002 0.9999999999999996 0.9999999999999999
  endloop
endfacet
facet normal 1.0 -5.874930171974792e-17 1.5106963298940933e-16
  outer loop
    vertex 6.000000177089178 1.0000001548579385 10.000000000195897
    vertex 6.000000000000003 7.0 1.0000000000000038
    vertex 5.999999999999999 6.999999999999986 14.999997381622787
  endloop
endfacet
facet normal 1.0 -5.874930171974792e-17 1.5106963298940933e-16
  outer loop
    vertex 5.999999999999999 6.999999999999986 14.999997381622787
    vertex 6.0 1.0000000000000087 14.999997381622787
    vertex 6.000000177089178 1.0000001548579385 10.000000000195897
  endloop
endfacet
facet normal -0.0 1.0 -0.0
  outer loop
    vertex 63.00000000000001 6.999999999999998 15.000000000205187
    vertex 69.00000017708916 7.000000154857941 10.000000000195884
    vertex 63.00000017708916 7.000000154857941 9.999996033839812
  endloop
endfacet
facet normal -0.0 1.0 -0.0
  outer loop
    vertex 69.00000017708916 7.000000154857941 10.000000000195884
    vertex 63.00000000000001 6.999999999999998 15.000000000205187
    vertex 69.00000000000001 6.999999999999998 15.000000000205187
  endloop
endfacet
facet normal -3.7005490260365e-08 0.999999999999913 4.1592251826517516e-07
  outer loop
    vertex 6.000000000000002 0.9999999999999996 0.9999999999999999
    vertex 29.999970461865832 0.9999917625233964 6.200000000195896
    vertex 63.00000000000001 0.9999999999999996 0.9999999999999999
  endloop
endfacet
facet normal -3.7005490260365e-08 0.999999999999913 4.1592251826517516e-07
  outer loop
    vertex 29.999970461865832 0.9999917625233964 6.200000000195896
    vertex 6.000000000000002 0.9999999999999996 0.9999999999999999
    vertex 6.000000177089178 1.0000001548579385 10.000000000195897
  endloop
endfacet
facet normal -3.7005490260365e-08 0.999999999999913 4.1592251826517516e-07
  outer loop
    vertex 63.00000000000001 0.9999999999999996 0.9999999999999999
    vertex 29.999970461865832 0.9999917625233964 6.200000000195896
    vertex 40.00000000000001 1.0000000000000069 6.200000000195891
  endloop
endfacet
facet normal -3.7005490260365e-08 0.999999999999913 4.1592251826517516e-07
  outer loop
    vertex 29.999970461865832 0.9999917625233964 6.200000000195896
    vertex 6.000000177089178 1.0000001548579385 10.000000000195897
    vertex 29.99997063895499 0.9999919173813281 10.00000000019588
  endloop
endfacet
facet normal -3.7005490260365e-08 0.999999999999913 4.1592251826517516e-07
  outer loop
    vertex 40.00000000000001 1.0000000000000069 6.200000000195891
    vertex 63.00000017708916 1.0000001548579385 10.000000000195884
    vertex 63.00000000000001 0.9999999999999996 0.9999999999999999
  endloop
endfacet
facet normal -3.7005490260365e-08 0.999999999999913 4.1592251826517516e-07
  outer loop
    vertex 63.00000017708916 1.0000001548579385 10.000000000195884
    vertex 40.00000000000001 1.0000000000000069 6.200000000195891
    vertex 40.00000017708916 1.0000001548579385 10.000000000195875
  endloop
endfacet
facet normal 0.9999999999977549 -1.9692085713853955e-07 2.1098673956868708e-06
  outer loop
    vertex 0.999999999999999 6.999999999999998 1.0000000000000044
    vertex 1.0000001770891656 82.00000015485789 9.99999738162335
    vertex 0.9999706389550612 6.99999191738133 10.00000000019588
  endloop
endfacet
facet normal 0.9999999999977549 -1.9692085713853955e-07 2.1098673956868708e-06
  outer loop
    vertex 1.0000001770891656 82.00000015485789 9.99999738162335
    vertex 0.999999999999999 6.999999999999998 1.0000000000000044
    vertex 0.9999999999999905 81.99999999999997 1.000000000000012
  endloop
endfacet
facet normal 0.9999999999991653 -1.8276384779161924e-07 -1.279158226534425e-06
  outer loop
    vertex 70.0 89.00000000000001 0.0
    vertex 70.00000017708916 1.5485793904881373e-07 10.000000000195868
    vertex 70.0 0.0 0.0
  endloop
endfacet
facet normal 0.9999999999991653 -1.8276384779161924e-07 -1.279158226534425e-06
  outer loop
    vertex 70.00000017708916 1.5485793904881373e-07 10.000000000195868
    vertex 70.0 89.00000000000001 0.0
    vertex 70.00005079677831 89.00001146015452 9.99998706642414
  endloop
endfacet
facet normal -8.237476611690741e-07 0.9999999999994877 5.883894485453616e-07
  outer loop
    vertex 0.999999999999999 6.999999999999998 1.0000000000000044
    vertex 5.999999999999999 6.999999999999986 14.999997381622787
    vertex 6.000000000000003 7.0 1.0000000000000038
  endloop
endfacet
facet normal -8.237476611690741e-07 0.9999999999994877 5.883894485453616e-07
  outer loop
    vertex 5.999999999999999 6.999999999999986 14.999997381622787
    vertex 0.999999999999999 6.999999999999998 1.0000000000000044
    vertex 0.9999706389550612 6.99999191738133 10.00000000019588
  endloop
endfacet
facet normal -8.237476611690741e-07 0.9999999999994877 5.883894485453616e-07
  outer loop
    vertex 5.999999999999999 6.999999999999986 14.999997381622787
    vertex 0.9999706389550612 6.99999191738133 10.00000000019588
    vertex 0.9999704618658729 6.999991762523376 14.999997381622764
  endloop
endfacet
facet normal -4.04214871465838e-10 -3.9954974982595924e-10 1.0
  outer loop
    vertex 63.00000000000001 0.9999999999999996 0.9999999999999999
    vertex 6.000000000000003 7.0 1.0000000000000038
    vertex 6.000000000000002 0.9999999999999996 0.9999999999999999
  endloop
endfacet
facet normal -4.04214871465838e-10 -3.9954974982595924e-10 1.0
  outer loop
    vertex 6.000000000000003 7.0 1.0000000000000038
    vertex 63.00000000000001 0.9999999999999996 0.9999999999999999
    vertex 27.000010261596106 81.00000025185895 1.0000000719596835
  endloop
endfacet
facet normal -4.04214871465838e-10 -3.9954974982595924e-10 1.0
  outer loop
    vertex 27.000010261596106 81.00000025185895 1.0000000719596835
    vertex 63.00000000000001 0.9999999999999996 0.9999999999999999
    vertex 42.00001000064175 81.00000110644372 1.0000001233594051
  endloop
endfacet
facet normal -4.04214871465838e-10 -3.9954974982595924e-10 1.0
  outer loop
    vertex 42.00001000064175 81.00000110644372 1.0000001233594051
    vertex 63.00000000000001 0.9999999999999996 0.9999999999999999
    vertex 63.00000000000001 29.999999999999996 1.000000000000002
  endloop
endfacet
facet normal -4.04214871465838e-10 -3.9954974982595924e-10 1.0
  outer loop
    vertex 42.00001000064175 81.00000110644372 1.0000001233594051
    vertex 63.00000000000001 29.999999999999996 1.000000000000002
    vertex 63.000025399653346 81.00000068361713 1.0000001953190703
  endloop
endfacet
facet normal -4.04214871465838e-10 -3.9954974982595924e-10 1.0
  outer loop
    vertex 63.000025399653346 81.00000068361713 1.0000001953190703
    vertex 63.00000000000001 29.999999999999996 1.000000000000002
    vertex 69.00000000000001 29.99999999999999 1.0000000000000036
  endloop
endfacet
facet normal -4.04214871465838e-10 -3.9954974982595924e-10 1.0
  outer loop
    vertex 63.000025399653346 81.00000068361713 1.0000001953190703
    vertex 69.00000000000001 82.00000000000001 1.0000000000000122
    vertex 63.00002530984458 82.00000000000001 1.0000000000000095
  endloop
endfacet
facet normal -4.04214871465838e-10 -3.9954974982595924e-10 1.0
  outer loop
    vertex 69.00000000000001 82.00000000000001 1.0000000000000122
    vertex 63.000025399653346 81.00000068361713 1.0000001953190703
    vertex 69.00000000000001 29.99999999999999 1.0000000000000036
  endloop
endfacet
facet normal -4.04214871465838e-10 -3.9954974982595924e-10 1.0
  outer loop
    vertex 6.000000000000003 7.0 1.0000000000000038
    vertex 5.999999975297536 80.99999999999997 1.0000000000000362
    vertex 0.999999999999999 6.999999999999998 1.0000000000000044
  endloop
endfacet
facet normal -4.04214871465838e-10 -3.9954974982595924e-10 1.0
  outer loop
    vertex 5.999999975297536 80.99999999999997 1.0000000000000362
    vertex 6.000000000000003 7.0 1.0000000000000038
    vertex 27.000010261596106 81.00000025185895 1.0000000719596835
  endloop
endfacet
facet normal -4.04214871465838e-10 -3.9954974982595924e-10 1.0
  outer loop
    vertex 0.999999999999999 6.999999999999998 1.0000000000000044
    vertex 6.0 81.99999999999997 1.0000000000000362
    vertex 0.9999999999999905 81.99999999999997 1.000000000000012
  endloop
endfacet
facet normal -4.04214871465838e-10 -3.9954974982595924e-10 1.0
  outer loop
    vertex 6.0 81.99999999999997 1.0000000000000362
    vertex 0.999999999999999 6.999999999999998 1.0000000000000044
    vertex 5.999999975297536 80.99999999999997 1.0000000000000362
  endloop
endfacet
facet normal -0.9999999999934066 3.374649060236973e-07 3.615691808741342e-06
  outer loop
    vertex 69.00000017708916 30.000000154857926 9.999996033839816
    vertex 69.00000000000001 82.00000000000001 1.0000000000000122
    vertex 69.00000000000001 29.99999999999999 1.0000000000000036
  endloop
endfacet
facet normal -0.9999999999934066 3.374649060236973e-07 3.615691808741342e-06
  outer loop
    vertex 69.00000000000001 82.00000000000001 1.0000000000000122
    vertex 69.00000017708916 30.000000154857926 9.999996033839816
    vertex 69.00005079677831 82.00001146015451 9.99998706642414
  endloop
endfacet
facet normal -0.9999999999999878 2.271706003068119e-10 -1.5621067262378058e-07
  outer loop
    vertex 42.000010261594646 88.00000639369958 7.499999999980482
    vertex 42.000012119014784 81.50000748832022 -4.401020741444982e-05
    vertex 42.0000102377978 81.49999948126718 0.9999956396908274
  endloop
endfacet
facet normal -0.9999999999999878 2.271706003068119e-10 -1.5621067262378058e-07
  outer loop
    vertex 42.000012119014784 81.50000748832022 -4.401020741444982e-05
    vertex 42.000010261594646 88.00000639369958 7.499999999980482
    vertex 42.000011206164245 86.49999626210949 0.9999886714414653
  endloop
endfacet
facet normal -0.9999999999999878 2.271706003068119e-10 -1.5621067262378058e-07
  outer loop
    vertex 42.000011206164245 86.49999626210949 0.9999886714414653
    vertex 42.000010261594646 88.00000639369958 7.499999999980482
    vertex 42.00001066896824 87.99999626207736 2.5000000000030176
  endloop
endfacet
facet normal -0.9999999999999878 2.271706003068119e-10 -1.5621067262378058e-07
  outer loop
    vertex 42.000011206164245 86.49999626210949 -1.1328558534698933e-05
    vertex 42.000012119014784 81.50000748832022 -4.401020741444982e-05
    vertex 42.000011206164245 86.49999626210949 0.9999886714414653
  endloop
endfacet
facet normal -0.9999999999999962 -4.606820326143041e-13 -8.698443873251646e-08
  outer loop
    vertex 42.000010261594646 88.00000639369958 7.499999999980482
    vertex 42.00001066896824 88.99999626207736 2.5000000000030176
    vertex 42.00001066896824 87.99999626207736 2.5000000000030176
  endloop
endfacet
facet normal -0.9999999999999962 -4.606820326143041e-13 -8.698443873251646e-08
  outer loop
    vertex 42.00001066896824 88.99999626207736 2.5000000000030176
    vertex 42.000010261594646 88.00000639369958 7.499999999980482
    vertex 42.000010261594454 89.00000768206259 7.49999161220038
  endloop
endfacet
facet normal -0.9999999999999791 -1.9694969323505183e-07 -5.58481943725386e-08
  outer loop
    vertex 42.00001066896824 87.99999626207736 2.5000000000030176
    vertex 42.000011206164245 86.49999626210949 -1.1328558534698933e-05
    vertex 42.000011206164245 86.49999626210949 0.9999886714414653
  endloop
endfacet
facet normal -0.9999999999999791 -1.9694969323505183e-07 -5.58481943725386e-08
  outer loop
    vertex 42.000011206164245 86.49999626210949 -1.1328558534698933e-05
    vertex 42.00001066896824 87.99999626207736 2.5000000000030176
    vertex 42.000010696516874 88.99999870928187 1.4388878977200646e-12
  endloop
endfacet
facet normal -0.9999999999999791 -1.9694969323505183e-07 -5.58481943725386e-08
  outer loop
    vertex 42.000010696516874 88.99999870928187 1.4388878977200646e-12
    vertex 42.00001066896824 87.99999626207736 2.5000000000030176
    vertex 42.00001066896824 88.99999626207736 2.5000000000030176
  endloop
endfacet
facet normal -0.9999999999932776 -1.0057439428420144e-06 3.526072886525721e-06
  outer loop
    vertex 63.00003776908676 82.0000023568078 9.999987441906537
    vertex 63.00000000000001 88.00000000000001 1.0000000000000122
    vertex 63.00002530984458 82.00000000000001 1.0000000000000095
  endloop
endfacet
facet normal -0.9999999999932776 -1.0057439428420144e-06 3.526072886525721e-06
  outer loop
    vertex 63.00000000000001 88.00000000000001 1.0000000000000122
    vertex 63.00003776908676 82.0000023568078 9.999987441906537
    vertex 63.00005100996786 88.0000109276358 9.999987441908752
  endloop
endfacet
facet normal 0.9999999999999962 5.029810635458996e-13 8.698430760782744e-08
  outer loop
    vertex 27.000010668968542 88.99999336948775 2.4999991735461724
    vertex 27.000010261595577 88.00000323048152 7.499999999982405
    vertex 27.000010668968542 87.99999336948775 2.4999991735461724
  endloop
endfacet
facet normal 0.9999999999999962 5.029810635458996e-13 8.698430760782744e-08
  outer loop
    vertex 27.000010261595577 88.00000323048152 7.499999999982405
    vertex 27.000010668968542 88.99999336948775 2.4999991735461724
    vertex 27.0000102615953 89.00000768206259 7.49999161220038
  endloop
endfacet
facet normal 9.52317558762923e-07 -0.9999999999994209 5.014177137464492e-07
  outer loop
    vertex 69.00000000000001 82.00000000000001 1.0000000000000122
    vertex 63.00003776908676 82.0000023568078 9.999987441906537
    vertex 63.00002530984458 82.00000000000001 1.0000000000000095
  endloop
endfacet
facet normal 9.52317558762923e-07 -0.9999999999994209 5.014177137464492e-07
  outer loop
    vertex 63.00003776908676 82.0000023568078 9.999987441906537
    vertex 69.00000000000001 82.00000000000001 1.0000000000000122
    vertex 69.00005079677831 82.00001146015451 9.99998706642414
  endloop
endfacet
facet normal 9.52317558762923e-07 -0.9999999999994209 5.014177137464492e-07
  outer loop
    vertex 63.00003776908676 82.0000023568078 9.999987441906537
    vertex 69.00005079677831 82.00001146015451 9.99998706642414
    vertex 69.00005061968788 82.00001130529535 15.000000000206299
  endloop
endfacet
facet normal 9.52317558762923e-07 -0.9999999999994209 5.014177137464492e-07
  outer loop
    vertex 63.00003776908676 82.0000023568078 9.999987441906537
    vertex 69.00005061968788 82.00001130529535 15.000000000206299
    vertex 63.00003737880678 82.00000273446734 15.000000000204082
  endloop
endfacet
facet normal 1.2850232030176557e-21 -0.9999999999999762 -2.1821475394506997e-07
  outer loop
    vertex 6.0 81.99999999999997 1.0000000000000362
    vertex 1.0000001770891656 82.00000015485789 9.99999738162335
    vertex 0.9999999999999905 81.99999999999997 1.000000000000012
  endloop
endfacet
facet normal 1.2850232030176557e-21 -0.9999999999999762 -2.1821475394506997e-07
  outer loop
    vertex 1.0000001770891656 82.00000015485789 9.99999738162335
    vertex 6.0 81.99999999999997 1.0000000000000362
    vertex 6.0000003902788075 81.99999962233916 9.999997757107986
  endloop
endfacet
facet normal 1.2850232030176557e-21 -0.9999999999999762 -2.1821475394506997e-07
  outer loop
    vertex 1.0000001770891656 82.00000015485789 9.99999738162335
    vertex 6.0000003902788075 81.99999962233916 9.999997757107986
    vertex 0.9999999999999781 81.99999694499414 14.999997381622721
  endloop
endfacet
facet normal 1.2850232030176557e-21 -0.9999999999999762 -2.1821475394506997e-07
  outer loop
    vertex 0.9999999999999781 81.99999694499414 14.999997381622721
    vertex 6.0000003902788075 81.99999962233916 9.999997757107986
    vertex 6.000000000000001 81.99999694499414 14.99999738162275
  endloop
endfacet
facet normal -0.9999999999956943 -2.4615108275558485e-06 -1.5976447732946265e-06
  outer loop
    vertex 5.999970852144691 87.99999138486255 10.000000375680491
    vertex 6.0 81.99999999999997 1.0000000000000362
    vertex 6.0000003902788075 81.99999962233916 9.999997757107986
  endloop
endfacet
facet normal -0.9999999999956943 -2.4615108275558485e-06 -1.5976447732946265e-06
  outer loop
    vertex 6.0 81.99999999999997 1.0000000000000362
    vertex 5.999970852144691 87.99999138486255 10.000000375680491
    vertex 6.000000000000002 88.00000000000001 1.0000000000000122
  endloop
endfacet
facet normal -2.3969710148577654e-15 -4.36429352213358e-07 0.9999999999999047
  outer loop
    vertex 0.9999999999999781 81.99999694499414 14.999997381622721
    vertex 5.999970461865885 87.99998870751753 15.000000000195252
    vertex 0.9999704618658712 87.99998870751752 15.000000000195252
  endloop
endfacet
facet normal -2.3969710148577654e-15 -4.36429352213358e-07 0.9999999999999047
  outer loop
    vertex 5.999970461865885 87.99998870751753 15.000000000195252
    vertex 0.9999999999999781 81.99999694499414 14.999997381622721
    vertex 6.000000000000001 81.99999694499414 14.99999738162275
  endloop
endfacet
facet normal -0.9999999999878819 -4.923029109960958e-06 -2.150951376402799e-12
  outer loop
    vertex 0.9999704618658712 87.99998870751752 15.000000000195252
    vertex 1.0000001770891656 82.00000015485789 9.99999738162335
    vertex 0.9999999999999781 81.99999694499414 14.999997381622721
  endloop
endfacet
facet normal -0.9999999999878819 -4.923029109960958e-06 -2.150951376402799e-12
  outer loop
    vertex 1.0000001770891656 82.00000015485789 9.99999738162335
    vertex 0.9999704618658712 87.99998870751752 15.000000000195252
    vertex 0.9999706389550588 87.99999191738127 10.00000000019588
  endloop
endfacet
facet normal 0.9999999999878804 4.923029087126165e-06 5.575661569373796e-08
  outer loop
    vertex 6.0000003902788075 81.99999962233916 9.999997757107986
    vertex 5.999970461865885 87.99998870751753 15.000000000195252
    vertex 6.000000000000001 81.99999694499414 14.99999738162275
  endloop
endfacet
facet normal 0.9999999999878804 4.923029087126165e-06 5.575661569373796e-08
  outer loop
    vertex 5.999970461865885 87.99998870751753 15.000000000195252
    vertex 6.0000003902788075 81.99999962233916 9.999997757107986
    vertex 5.999970852144691 87.99999138486255 10.000000375680491
  endloop
endfacet
facet normal 5.325184870915758e-08 0.9999999999998501 5.452090349531405e-07
  outer loop
    vertex 0.9999704618658712 87.99998870751752 15.000000000195252
    vertex 5.999970852144691 87.99999138486255 10.000000375680491
    vertex 0.9999706389550588 87.99999191738127 10.00000000019588
  endloop
endfacet
facet normal 5.325184870915758e-08 0.9999999999998501 5.452090349531405e-07
  outer loop
    vertex 5.999970852144691 87.99999138486255 10.000000375680491
    vertex 0.9999704618658712 87.99998870751752 15.000000000195252
    vertex 5.999970461865885 87.99998870751753 15.000000000195252
  endloop
endfacet
facet normal -1.8459190663674535e-13 -1.845912291845348e-13 1.0
  outer loop
    vertex 69.00005061968788 82.00001130529535 15.000000000206299
    vertex 63.00005061968788 88.00001130529535 15.000000000206299
    vertex 63.00003737880678 82.00000273446734 15.000000000204082
  endloop
endfacet
facet normal -1.8459190663674535e-13 -1.845912291845348e-13 1.0
  outer loop
    vertex 63.00005061968788 88.00001130529535 15.000000000206299
    vertex 69.00005061968788 82.00001130529535 15.000000000206299
    vertex 68.99999999999875 87.99999999999875 15.000000000206299
  endloop
endfacet
facet normal 1.839855095966672e-06 0.9999999999983074 -1.5914153910423638e-08
  outer loop
    vertex 63.00005100996786 88.0000109276358 9.999987441908752
    vertex 68.99999999999875 87.99999999999875 15.000000000206299
    vertex 69.00000017708916 88.00000015485791 9.999987066424138
  endloop
endfacet
facet normal 1.839855095966672e-06 0.9999999999983074 -1.5914153910423638e-08
  outer loop
    vertex 68.99999999999875 87.99999999999875 15.000000000206299
    vertex 63.00005100996786 88.0000109276358 9.999987441908752
    vertex 63.00005061968788 88.00001130529535 15.000000000206299
  endloop
endfacet
facet normal -0.9999999999975635 2.2068103644877716e-06 -5.5754373624014037e-08
  outer loop
    vertex 63.00003737880678 82.00000273446734 15.000000000204082
    vertex 63.00005100996786 88.0000109276358 9.999987441908752
    vertex 63.00003776908676 82.0000023568078 9.999987441906537
  endloop
endfacet
facet normal -0.9999999999975635 2.2068103644877716e-06 -5.5754373624014037e-08
  outer loop
    vertex 63.00005100996786 88.0000109276358 9.999987441908752
    vertex 63.00003737880678 82.00000273446734 15.000000000204082
    vertex 63.00005061968788 88.00001130529535 15.000000000206299
  endloop
endfacet
facet normal 0.9999999999644117 8.436630752694065e-06 1.845934639582168e-13
  outer loop
    vertex 69.00005079677831 82.00001146015451 9.99998706642414
    vertex 68.99999999999875 87.99999999999875 15.000000000206299
    vertex 69.00005061968788 82.00001130529535 15.000000000206299
  endloop
endfacet
facet normal 0.9999999999644117 8.436630752694065e-06 1.845934639582168e-13
  outer loop
    vertex 68.99999999999875 87.99999999999875 15.000000000206299
    vertex 69.00005079677831 82.00001146015451 9.99998706642414
    vertex 69.00000017708916 88.00000015485791 9.999987066424138
  endloop
endfacet
facet normal 2.819978097239565e-16 -2.819962317624806e-15 1.0
  outer loop
    vertex 30.0 4.984416082276717e-15 6.200000000195891
    vertex 40.00000000000001 1.0000000000000069 6.200000000195891
    vertex 29.999970461865832 0.9999917625233964 6.200000000195896
  endloop
endfacet
facet normal 2.819978097239565e-16 -2.819962317624806e-15 1.0
  outer loop
    vertex 40.00000000000001 1.0000000000000069 6.200000000195891
    vertex 30.0 4.984416082276717e-15 6.200000000195891
    vertex 40.00000000000001 4.98499282151374e-15 6.200000000195891
  endloop
endfacet
facet normal -1.0 -0.0 2.819978097239565e-16
  outer loop
    vertex 40.00000017708916 1.54857939049098e-07 10.000000000195875
    vertex 40.00000000000001 1.0000000000000069 6.200000000195891
    vertex 40.00000000000001 4.98499282151374e-15 6.200000000195891
  endloop
endfacet
facet normal -1.0 -0.0 2.819978097239565e-16
  outer loop
    vertex 40.00000000000001 1.0000000000000069 6.200000000195891
    vertex 40.00000017708916 1.54857939049098e-07 10.000000000195875
    vertex 40.00000017708916 1.0000001548579385 10.000000000195875
  endloop
endfacet
facet normal 0.9999999995637422 2.9538377476757484e-05 -2.819145124895245e-16
  outer loop
    vertex 29.999970461865832 0.9999917625233964 6.200000000195896
    vertex 30.00000017708916 1.5485793904852126e-07 10.000000000195875
    vertex 30.0 4.984416082276717e-15 6.200000000195891
  endloop
endfacet
facet normal 0.9999999995637422 2.9538377476757484e-05 -2.819145124895245e-16
  outer loop
    vertex 30.00000017708916 1.5485793904852126e-07 10.000000000195875
    vertex 29.999970461865832 0.9999917625233964 6.200000000195896
    vertex 29.99997063895499 0.9999919173813281 10.00000000019588
  endloop
endfacet
facet normal -1.5509826300554762e-15 1.2924808200747778e-15 1.0
  outer loop
    vertex 0.9999999999999869 1.0000000000000087 14.999997381622787
    vertex 5.999999999999999 6.999999999999986 14.999997381622787
    vertex 0.9999704618658729 6.999991762523376 14.999997381622764
  endloop
endfacet
facet normal -1.5509826300554762e-15 1.2924808200747778e-15 1.0
  outer loop
    vertex 5.999999999999999 6.999999999999986 14.999997381622787
    vertex 0.9999999999999869 1.0000000000000087 14.999997381622787
    vertex 6.0 1.0000000000000087 14.999997381622787
  endloop
endfacet
facet normal -0.999999999987882 -4.923029111166251e-06 -1.5509762671159785e-15
  outer loop
    vertex 0.9999704618658729 6.999991762523376 14.999997381622764
    vertex 1.0000001770891753 1.0000001548579385 10.000000000195897
    vertex 0.9999999999999869 1.0000000000000087 14.999997381622787
  endloop
endfacet
facet normal -0.999999999987882 -4.923029111166251e-06 -1.5509762671159785e-15
  outer loop
    vertex 1.0000001770891753 1.0000001548579385 10.000000000195897
    vertex 0.9999704618658729 6.999991762523376 14.999997381622764
    vertex 0.9999706389550612 6.99999191738133 10.00000000019588
  endloop
endfacet
facet normal 0.0 -1.0 1.2924808200747778e-15
  outer loop
    vertex 6.0 1.0000000000000087 14.999997381622787
    vertex 1.0000001770891753 1.0000001548579385 10.000000000195897
    vertex 6.000000177089178 1.0000001548579385 10.000000000195897
  endloop
endfacet
facet normal 0.0 -1.0 1.2924808200747778e-15
  outer loop
    vertex 1.0000001770891753 1.0000001548579385 10.000000000195897
    vertex 6.0 1.0000000000000087 14.999997381622787
    vertex 0.9999999999999869 1.0000000000000087 14.999997381622787
  endloop
endfacet
facet normal 0.0 0.0 1.0
  outer loop
    vertex 69.00000000000001 0.9999999999999981 15.000000000205187
    vertex 63.00000000000001 6.999999999999998 15.000000000205187
    vertex 63.00000000000001 0.9999999999999996 15.000000000205187
  endloop
endfacet
facet normal 0.0 0.0 1.0
  outer loop
    vertex 63.00000000000001 6.999999999999998 15.000000000205187
    vertex 69.00000000000001 0.9999999999999981 15.000000000205187
    vertex 69.00000000000001 6.999999999999998 15.000000000205187
  endloop
endfacet
facet normal 1.0 -0.0 0.0
  outer loop
    vertex 69.00000017708916 1.0000001548579371 10.000000000195884
    vertex 69.00000000000001 6.999999999999998 15.000000000205187
    vertex 69.00000000000001 0.9999999999999981 15.000000000205187
  endloop
endfacet
facet normal 1.0 -0.0 0.0
  outer loop
    vertex 69.00000000000001 6.999999999999998 15.000000000205187
    vertex 69.00000017708916 1.0000001548579371 10.000000000195884
    vertex 69.00000017708916 7.000000154857941 10.000000000195884
  endloop
endfacet
facet normal -2.3499720687899147e-16 -1.0 -0.0
  outer loop
    vertex 69.00000000000001 0.9999999999999981 15.000000000205187
    vertex 63.00000017708916 1.0000001548579385 10.000000000195884
    vertex 69.00000017708916 1.0000001548579371 10.000000000195884
  endloop
endfacet
facet normal -2.3499720687899147e-16 -1.0 -0.0
  outer loop
    vertex 63.00000017708916 1.0000001548579385 10.000000000195884
    vertex 69.00000000000001 0.9999999999999981 15.000000000205187
    vertex 63.00000000000001 0.9999999999999996 15.000000000205187
  endloop
endfacet
facet normal -0.9999999999999998 2.4702464357373485e-08 0.0
  outer loop
    vertex 6.0000003902788075 81.99999962233916 9.999997757107986
    vertex 5.999999975297536 80.99999999999997 1.0000000000000362
    vertex 6.0000003655763425 80.99999962233917 9.999997757107986
  endloop
endfacet
facet normal -0.9999999999999998 2.4702464357373485e-08 0.0
  outer loop
    vertex 5.999999975297536 80.99999999999997 1.0000000000000362
    vertex 6.0000003902788075 81.99999962233916 9.999997757107986
    vertex 6.0 81.99999999999997 1.0000000000000362
  endloop
endfacet
facet normal 0.9999999999985096 8.980850078113219e-08 -1.724140859056649e-06
  outer loop
    vertex 63.00002530984458 82.00000000000001 1.0000000000000095
    vertex 63.00003785889553 81.00000304042491 9.999987637225598
    vertex 63.000025399653346 81.00000068361713 1.0000001953190703
  endloop
endfacet
facet normal 0.9999999999985096 8.980850078113219e-08 -1.724140859056649e-06
  outer loop
    vertex 63.00003785889553 81.00000304042491 9.999987637225598
    vertex 63.00002530984458 82.00000000000001 1.0000000000000095
    vertex 63.00003776908676 82.0000023568078 9.999987441906537
  endloop
endfacet
facet normal 3.3728068305850845e-09 -9.842074034038255e-08 -0.9999999999999953
  outer loop
    vertex 27.00001120616455 86.49999336951987 -1.215501538006905e-05
    vertex 27.00001069651711 81.00000110644372 0.0
    vertex 27.00001069651711 88.99999668474388 0.0
  endloop
endfacet
facet normal 3.3728068305850845e-09 -9.842074034038255e-08 -0.9999999999999953
  outer loop
    vertex 27.00001069651711 81.00000110644372 0.0
    vertex 27.00001120616455 86.49999336951987 -1.215501538006905e-05
    vertex 27.000012056884525 81.50000891613962 -4.401021043295957e-05
  endloop
endfacet
facet normal 3.3728068305850845e-09 -9.842074034038255e-08 -0.9999999999999953
  outer loop
    vertex 70.0 89.00000000000001 0.0
    vertex 42.000011206164245 86.49999626210949 -1.1328558534698933e-05
    vertex 42.000010696516874 88.99999870928187 1.4388878977200646e-12
  endloop
endfacet
facet normal 3.3728068305850845e-09 -9.842074034038255e-08 -0.9999999999999953
  outer loop
    vertex 42.000011206164245 86.49999626210949 -1.1328558534698933e-05
    vertex 70.0 89.00000000000001 0.0
    vertex 42.000012119014784 81.50000748832022 -4.401020741444982e-05
  endloop
endfacet
facet normal 3.3728068305850845e-09 -9.842074034038255e-08 -0.9999999999999953
  outer loop
    vertex 27.00001069651711 88.99999668474388 0.0
    vertex 0.0 0.0 0.0
    vertex 0.0 89.00000000000001 0.0
  endloop
endfacet
facet normal 3.3728068305850845e-09 -9.842074034038255e-08 -0.9999999999999953
  outer loop
    vertex 0.0 0.0 0.0
    vertex 27.00001069651711 88.99999668474388 0.0
    vertex 27.00001069651711 81.00000110644372 0.0
  endloop
endfacet
facet normal 3.3728068305850845e-09 -9.842074034038255e-08 -0.9999999999999953
  outer loop
    vertex 0.0 0.0 0.0
    vertex 27.00001069651711 81.00000110644372 0.0
    vertex 70.0 0.0 0.0
  endloop
endfacet
facet normal 3.3728068305850845e-09 -9.842074034038255e-08 -0.9999999999999953
  outer loop
    vertex 70.0 0.0 0.0
    vertex 27.00001069651711 81.00000110644372 0.0
    vertex 42.00001000064175 81.00000110644372 0.0
  endloop
endfacet
facet normal 3.3728068305850845e-09 -9.842074034038255e-08 -0.9999999999999953
  outer loop
    vertex 70.0 0.0 0.0
    vertex 42.00001000064175 81.00000110644372 0.0
    vertex 42.000012119014784 81.50000748832022 -4.401020741444982e-05
  endloop
endfacet
facet normal 3.3728068305850845e-09 -9.842074034038255e-08 -0.9999999999999953
  outer loop
    vertex 70.0 0.0 0.0
    vertex 42.000012119014784 81.50000748832022 -4.401020741444982e-05
    vertex 70.0 89.00000000000001 0.0
  endloop
endfacet
facet normal -1.1965952754448006e-07 0.9999999999999816 -1.5012387886071339e-07
  outer loop
    vertex 27.000010261596163 89.00000214366412 9.999995011451801
    vertex 42.000010261594454 89.00000768206259 7.49999161220038
    vertex 27.0000102615953 89.00000768206259 7.49999161220038
  endloop
endfacet
facet normal -1.1965952754448006e-07 0.9999999999999816 -1.5012387886071339e-07
  outer loop
    vertex 42.000010261594454 89.00000768206259 7.49999161220038
    vertex 27.000010261596163 89.00000214366412 9.999995011451801
    vertex 42.000010000641815 89.00000573344953 9.999992239931428
  endloop
endfacet
facet normal 1.991593646773398e-08 -0.9999999999999858 1.6841645944919225e-07
  outer loop
    vertex 63.000025399653346 81.00000068361713 1.0000001953190703
    vertex 42.00001000064174 81.00000178112933 9.999991802768621
    vertex 42.00001000064175 81.00000110644372 1.0000001233594051
  endloop
endfacet
facet normal 1.991593646773398e-08 -0.9999999999999858 1.6841645944919225e-07
  outer loop
    vertex 42.00001000064174 81.00000178112933 9.999991802768621
    vertex 63.000025399653346 81.00000068361713 1.0000001953190703
    vertex 63.00003785889553 81.00000304042491 9.999987637225598
  endloop
endfacet
facet normal 2.1328645280433697e-07 -1.6099444213272864e-08 0.9999999999999771
  outer loop
    vertex 63.00003785889553 81.00000304042491 9.999987637225598
    vertex 42.00001000064181 88.00000372766277 9.999992196135576
    vertex 42.00001000064174 81.00000178112933 9.999991802768621
  endloop
endfacet
facet normal 2.1328645280433697e-07 -1.6099444213272864e-08 0.9999999999999771
  outer loop
    vertex 42.00001000064181 88.00000372766277 9.999992196135576
    vertex 63.00003785889553 81.00000304042491 9.999987637225598
    vertex 63.00003776908676 82.0000023568078 9.999987441906537
  endloop
endfacet
facet normal 2.1328645280433697e-07 -1.6099444213272864e-08 0.9999999999999771
  outer loop
    vertex 63.00005100996786 88.0000109276358 9.999987441908752
    vertex 42.00001000064181 88.00000372766277 9.999992196135576
    vertex 63.00003776908676 82.0000023568078 9.999987441906537
  endloop
endfacet
facet normal 9.399888275159659e-16 1.0 3.448328579202605e-17
  outer loop
    vertex 63.00000017708916 30.00000015485793 9.999996033839812
    vertex 69.00000000000001 29.99999999999999 1.0000000000000036
    vertex 63.00000000000001 29.999999999999996 1.000000000000002
  endloop
endfacet
facet normal 9.399888275159659e-16 1.0 3.448328579202605e-17
  outer loop
    vertex 69.00000000000001 29.99999999999999 1.0000000000000036
    vertex 63.00000017708916 30.00000015485793 9.999996033839812
    vertex 69.00000017708916 30.000000154857926 9.999996033839816
  endloop
endfacet
facet normal -1.0 0.0 0.0
  outer loop
    vertex 63.00000000000001 6.999999999999998 15.000000000205187
    vertex 63.00000017708916 1.0000001548579385 10.000000000195884
    vertex 63.00000000000001 0.9999999999999996 15.000000000205187
  endloop
endfacet
facet normal -1.0 0.0 0.0
  outer loop
    vertex 63.00000017708916 1.0000001548579385 10.000000000195884
    vertex 63.00000000000001 29.999999999999996 1.000000000000002
    vertex 63.00000000000001 0.9999999999999996 0.9999999999999999
  endloop
endfacet
facet normal -1.0 0.0 0.0
  outer loop
    vertex 63.00000000000001 29.999999999999996 1.000000000000002
    vertex 63.00000017708916 1.0000001548579385 10.000000000195884
    vertex 63.00000017708916 7.000000154857941 9.999996033839812
  endloop
endfacet
facet normal -1.0 0.0 0.0
  outer loop
    vertex 63.00000017708916 7.000000154857941 9.999996033839812
    vertex 63.00000017708916 1.0000001548579385 10.000000000195884
    vertex 63.00000000000001 6.999999999999998 15.000000000205187
  endloop
endfacet
facet normal -1.0 0.0 0.0
  outer loop
    vertex 63.00000000000001 29.999999999999996 1.000000000000002
    vertex 63.00000017708916 7.000000154857941 9.999996033839812
    vertex 63.00000017708916 30.00000015485793 9.999996033839812
  endloop
endfacet
facet normal 8.959045115719447e-08 1.248773491818958e-07 0.9999999999999882
  outer loop
    vertex 70.00000017708916 1.5485793904881373e-07 10.000000000195868
    vertex 40.00000017708916 1.0000001548579385 10.000000000195875
    vertex 40.00000017708916 1.54857939049098e-07 10.000000000195875
  endloop
endfacet
facet normal 8.959045115719447e-08 1.248773491818958e-07 0.9999999999999882
  outer loop
    vertex 40.00000017708916 1.0000001548579385 10.000000000195875
    vertex 70.00000017708916 1.5485793904881373e-07 10.000000000195868
    vertex 63.00000017708916 1.0000001548579385 10.000000000195884
  endloop
endfacet
facet normal 8.959045115719447e-08 1.248773491818958e-07 0.9999999999999882
  outer loop
    vertex 63.00000017708916 1.0000001548579385 10.000000000195884
    vertex 70.00000017708916 1.5485793904881373e-07 10.000000000195868
    vertex 69.00000017708916 1.0000001548579371 10.000000000195884
  endloop
endfacet
facet normal 8.959045115719447e-08 1.248773491818958e-07 0.9999999999999882
  outer loop
    vertex 69.00000017708916 1.0000001548579371 10.000000000195884
    vertex 70.00000017708916 1.5485793904881373e-07 10.000000000195868
    vertex 69.00000017708916 7.000000154857941 10.000000000195884
  endloop
endfacet
facet normal 8.959045115719447e-08 1.248773491818958e-07 0.9999999999999882
  outer loop
    vertex 69.00000017708916 7.000000154857941 10.000000000195884
    vertex 70.00000017708916 1.5485793904881373e-07 10.000000000195868
    vertex 69.00000017708916 30.000000154857926 9.999996033839816
  endloop
endfacet
facet normal 8.959045115719447e-08 1.248773491818958e-07 0.9999999999999882
  outer loop
    vertex 69.00000017708916 30.000000154857926 9.999996033839816
    vertex 70.00000017708916 1.5485793904881373e-07 10.000000000195868
    vertex 69.00005079677831 82.00001146015451 9.99998706642414
  endloop
endfacet
facet normal 8.959045115719447e-08 1.248773491818958e-07 0.9999999999999882
  outer loop
    vertex 63.00005100996786 88.0000109276358 9.999987441908752
    vertex 42.000010000641815 89.00000573344953 9.999992239931428
    vertex 42.00001000064181 88.00000372766277 9.999992196135576
  endloop
endfacet
facet normal 8.959045115719447e-08 1.248773491818958e-07 0.9999999999999882
  outer loop
    vertex 42.000010000641815 89.00000573344953 9.999992239931428
    vertex 63.00005100996786 88.0000109276358 9.999987441908752
    vertex 70.00005079677831 89.00001146015452 9.99998706642414
  endloop
endfacet
facet normal 8.959045115719447e-08 1.248773491818958e-07 0.9999999999999882
  outer loop
    vertex 70.00005079677831 89.00001146015452 9.99998706642414
    vertex 63.00005100996786 88.0000109276358 9.999987441908752
    vertex 69.00000017708916 88.00000015485791 9.999987066424138
  endloop
endfacet
facet normal 8.959045115719447e-08 1.248773491818958e-07 0.9999999999999882
  outer loop
    vertex 70.00005079677831 89.00001146015452 9.99998706642414
    vertex 69.00000017708916 88.00000015485791 9.999987066424138
    vertex 69.00005079677831 82.00001146015451 9.99998706642414
  endloop
endfacet
facet normal 8.959045115719447e-08 1.248773491818958e-07 0.9999999999999882
  outer loop
    vertex 70.00005079677831 89.00001146015452 9.99998706642414
    vertex 69.00005079677831 82.00001146015451 9.99998706642414
    vertex 70.00000017708916 1.5485793904881373e-07 10.000000000195868
  endloop
endfacet
facet normal 8.959045115719447e-08 1.248773491818958e-07 0.9999999999999882
  outer loop
    vertex 69.00000017708916 7.000000154857941 10.000000000195884
    vertex 63.00000017708916 30.00000015485793 9.999996033839812
    vertex 63.00000017708916 7.000000154857941 9.999996033839812
  endloop
endfacet
facet normal 8.959045115719447e-08 1.248773491818958e-07 0.9999999999999882
  outer loop
    vertex 63.00000017708916 30.00000015485793 9.999996033839812
    vertex 69.00000017708916 7.000000154857941 10.000000000195884
    vertex 69.00000017708916 30.000000154857926 9.999996033839816
  endloop
endfacet
facet normal -1.1077502704091588e-07 0.9999999999999876 -1.1238057629643518e-07
  outer loop
    vertex -2.9361044938562676e-05 88.99999191738128 10.00000000019588
    vertex 27.00001069651711 88.99999668474388 0.0
    vertex 0.0 89.00000000000001 0.0
  endloop
endfacet
facet normal -1.1077502704091588e-07 0.9999999999999876 -1.1238057629643518e-07
  outer loop
    vertex 27.00001069651711 88.99999668474388 0.0
    vertex -2.9361044938562676e-05 88.99999191738128 10.00000000019588
    vertex 27.000010668968542 88.99999336948775 2.4999991735461724
  endloop
endfacet
facet normal -1.1077502704091588e-07 0.9999999999999876 -1.1238057629643518e-07
  outer loop
    vertex 27.000010668968542 88.99999336948775 2.4999991735461724
    vertex -2.9361044938562676e-05 88.99999191738128 10.00000000019588
    vertex 27.0000102615953 89.00000768206259 7.49999161220038
  endloop
endfacet
facet normal -1.1077502704091588e-07 0.9999999999999876 -1.1238057629643518e-07
  outer loop
    vertex 27.0000102615953 89.00000768206259 7.49999161220038
    vertex -2.9361044938562676e-05 88.99999191738128 10.00000000019588
    vertex 27.000010261596163 89.00000214366412 9.999995011451801
  endloop
endfacet
facet normal -1.6390429280774318e-07 0.9999999999989491 1.440615413840725e-06
  outer loop
    vertex 27.000010668968542 88.99999336948775 2.4999991735461724
    vertex 42.000010696516874 88.99999870928187 1.4388878977200646e-12
    vertex 27.00001069651711 88.99999668474388 0.0
  endloop
endfacet
facet normal -1.6390429280774318e-07 0.9999999999989491 1.440615413840725e-06
  outer loop
    vertex 42.000010696516874 88.99999870928187 1.4388878977200646e-12
    vertex 27.000010668968542 88.99999336948775 2.4999991735461724
    vertex 42.00001066896824 88.99999626207736 2.5000000000030176
  endloop
endfacet
facet normal -1.5836595940555206e-07 0.9999999999994971 -9.903332192450328e-07
  outer loop
    vertex 42.000010696516874 88.99999870928187 1.4388878977200646e-12
    vertex 70.00005079677831 89.00001146015452 9.99998706642414
    vertex 70.0 89.00000000000001 0.0
  endloop
endfacet
facet normal -1.5836595940555206e-07 0.9999999999994971 -9.903332192450328e-07
  outer loop
    vertex 70.00005079677831 89.00001146015452 9.99998706642414
    vertex 42.000010696516874 88.99999870928187 1.4388878977200646e-12
    vertex 42.00001066896824 88.99999626207736 2.5000000000030176
  endloop
endfacet
facet normal -1.5836595940555206e-07 0.9999999999994971 -9.903332192450328e-07
  outer loop
    vertex 70.00005079677831 89.00001146015452 9.99998706642414
    vertex 42.00001066896824 88.99999626207736 2.5000000000030176
    vertex 42.000010261594454 89.00000768206259 7.49999161220038
  endloop
endfacet
facet normal -1.5836595940555206e-07 0.9999999999994971 -9.903332192450328e-07
  outer loop
    vertex 70.00005079677831 89.00001146015452 9.99998706642414
    vertex 42.000010261594454 89.00000768206259 7.49999161220038
    vertex 42.000010000641815 89.00000573344953 9.999992239931428
  endloop
endfacet
facet normal 1.9535021906204343e-07 1.1493731358345231e-07 0.9999999999999745
  outer loop
    vertex 27.00001026159623 87.99999858483504 9.999995285122676
    vertex 42.000010000641815 89.00000573344953 9.999992239931428
    vertex 27.000010261596163 89.00000214366412 9.999995011451801
  endloop
endfacet
facet normal 1.9535021906204343e-07 1.1493731358345231e-07 0.9999999999999745
  outer loop
    vertex 42.000010000641815 89.00000573344953 9.999992239931428
    vertex 27.00001026159623 87.99999858483504 9.999995285122676
    vertex 42.00001000064181 88.00000372766277 9.999992196135576
  endloop
endfacet
facet normal 1.8459200343839058e-07 -2.553944380147289e-07 0.9999999999999505
  outer loop
    vertex 27.000010261596106 81.00000088163368 9.999994647597227
    vertex 6.0000003902788075 81.99999962233916 9.999997757107986
    vertex 6.0000003655763425 80.99999962233917 9.999997757107986
  endloop
endfacet
facet normal 1.8459200343839058e-07 -2.553944380147289e-07 0.9999999999999505
  outer loop
    vertex 6.0000003902788075 81.99999962233916 9.999997757107986
    vertex 27.00001026159623 87.99999858483504 9.999995285122676
    vertex 5.999970852144691 87.99999138486255 10.000000375680491
  endloop
endfacet
facet normal 1.8459200343839058e-07 -2.553944380147289e-07 0.9999999999999505
  outer loop
    vertex 27.00001026159623 87.99999858483504 9.999995285122676
    vertex 6.0000003902788075 81.99999962233916 9.999997757107986
    vertex 27.000010261596106 81.00000088163368 9.999994647597227
  endloop
endfacet
facet normal 7.231560667931281e-08 2.3908135798310313e-08 0.9999999999999971
  outer loop
    vertex -2.9361044938562676e-05 -8.082618672650944e-06 10.00000000019588
    vertex 1.0000001770891753 1.0000001548579385 10.000000000195897
    vertex -2.9361044938562676e-05 88.99999191738128 10.00000000019588
  endloop
endfacet
facet normal 7.231560667931281e-08 2.3908135798310313e-08 0.9999999999999971
  outer loop
    vertex 1.0000001770891753 1.0000001548579385 10.000000000195897
    vertex -2.9361044938562676e-05 -8.082618672650944e-06 10.00000000019588
    vertex 30.00000017708916 1.5485793904852126e-07 10.000000000195875
  endloop
endfacet
facet normal 7.231560667931281e-08 2.3908135798310313e-08 0.9999999999999971
  outer loop
    vertex -2.9361044938562676e-05 88.99999191738128 10.00000000019588
    vertex 1.0000001770891753 1.0000001548579385 10.000000000195897
    vertex 0.9999706389550612 6.99999191738133 10.00000000019588
  endloop
endfacet
facet normal 7.231560667931281e-08 2.3908135798310313e-08 0.9999999999999971
  outer loop
    vertex -2.9361044938562676e-05 88.99999191738128 10.00000000019588
    vertex 0.9999706389550612 6.99999191738133 10.00000000019588
    vertex 0.9999706389550588 87.99999191738127 10.00000000019588
  endloop
endfacet
facet normal 7.231560667931281e-08 2.3908135798310313e-08 0.9999999999999971
  outer loop
    vertex 1.0000001770891753 1.0000001548579385 10.000000000195897
    vertex 30.00000017708916 1.5485793904852126e-07 10.000000000195875
    vertex 6.000000177089178 1.0000001548579385 10.000000000195897
  endloop
endfacet
facet normal 7.231560667931281e-08 2.3908135798310313e-08 0.9999999999999971
  outer loop
    vertex 6.000000177089178 1.0000001548579385 10.000000000195897
    vertex 30.00000017708916 1.5485793904852126e-07 10.000000000195875
    vertex 29.99997063895499 0.9999919173813281 10.00000000019588
  endloop
endfacet
facet normal 7.231560667931281e-08 2.3908135798310313e-08 0.9999999999999971
  outer loop
    vertex 1.0000001770891656 82.00000015485789 9.99999738162335
    vertex 0.9999706389550588 87.99999191738127 10.00000000019588
    vertex 0.9999706389550612 6.99999191738133 10.00000000019588
  endloop
endfacet
facet normal 7.231560667931281e-08 2.3908135798310313e-08 0.9999999999999971
  outer loop
    vertex 0.9999706389550588 87.99999191738127 10.00000000019588
    vertex 27.000010261596163 89.00000214366412 9.999995011451801
    vertex -2.9361044938562676e-05 88.99999191738128 10.00000000019588
  endloop
endfacet
facet normal 7.231560667931281e-08 2.3908135798310313e-08 0.9999999999999971
  outer loop
    vertex 27.000010261596163 89.00000214366412 9.999995011451801
    vertex 0.9999706389550588 87.99999191738127 10.00000000019588
    vertex 5.999970852144691 87.99999138486255 10.000000375680491
  endloop
endfacet
facet normal 7.231560667931281e-08 2.3908135798310313e-08 0.9999999999999971
  outer loop
    vertex 27.000010261596163 89.00000214366412 9.999995011451801
    vertex 5.999970852144691 87.99999138486255 10.000000375680491
    vertex 27.00001026159623 87.99999858483504 9.999995285122676
  endloop
endfacet
facet normal 3.597982842418014e-08 -0.9999999999999993 1.4006325137712669e-08
  outer loop
    vertex 27.000010261596106 81.00000025185895 1.0000000719596835
    vertex 6.0000003655763425 80.99999962233917 9.999997757107986
    vertex 5.999999975297536 80.99999999999997 1.0000000000000362
  endloop
endfacet
facet normal 3.597982842418014e-08 -0.9999999999999993 1.4006325137712669e-08
  outer loop
    vertex 6.0000003655763425 80.99999962233917 9.999997757107986
    vertex 27.000010261596106 81.00000025185895 1.0000000719596835
    vertex 27.000010261596106 81.00000088163368 9.999994647597227
  endloop
endfacet
facet normal 2.7547647211701234e-08 5.8708854312497995e-06 -0.999999999982766
  outer loop
    vertex 42.000010696516874 88.99999870928187 1.4388878977200646e-12
    vertex 27.00001120616455 86.49999336951987 -1.215501538006905e-05
    vertex 27.00001069651711 88.99999668474388 0.0
  endloop
endfacet
facet normal 2.7547647211701234e-08 5.8708854312497995e-06 -0.999999999982766
  outer loop
    vertex 27.00001120616455 86.49999336951987 -1.215501538006905e-05
    vertex 42.000010696516874 88.99999870928187 1.4388878977200646e-12
    vertex 42.000011206164245 86.49999626210949 -1.1328558534698933e-05
  endloop
endfacet
facet normal -1.7864662702598896e-12 -3.964961896347388e-05 -0.9999999992139539
  outer loop
    vertex 27.000012056884525 81.50000891613962 -4.401021043295957e-05
    vertex 42.00001000064175 81.00000110644372 0.0
    vertex 27.00001069651711 81.00000110644372 0.0
  endloop
endfacet
facet normal -1.7864662702598896e-12 -3.964961896347388e-05 -0.9999999992139539
  outer loop
    vertex 42.00001000064175 81.00000110644372 0.0
    vertex 27.000012056884525 81.50000891613962 -4.401021043295957e-05
    vertex 42.000012119014784 81.50000748832022 -4.401020741444982e-05
  endloop
endfacet
facet normal -5.5097122990678194e-08 2.7611206945956234e-23 0.9999999999999987
  outer loop
    vertex 42.00001066896824 87.99999626207736 2.5000000000030176
    vertex 27.000010668968542 88.99999336948775 2.4999991735461724
    vertex 27.000010668968542 87.99999336948775 2.4999991735461724
  endloop
endfacet
facet normal -5.5097122990678194e-08 2.7611206945956234e-23 0.9999999999999987
  outer loop
    vertex 27.000010668968542 88.99999336948775 2.4999991735461724
    vertex 42.00001066896824 87.99999626207736 2.5000000000030176
    vertex 42.00001066896824 88.99999626207736 2.5000000000030176
  endloop
endfacet
facet normal 1.9283930730177714e-07 -0.9999999999999816 1.4972992548130036e-22
  outer loop
    vertex 42.000011206164245 86.49999626210949 -1.1328558534698933e-05
    vertex 27.00001120616455 86.49999336951987 0.9999878449846193
    vertex 27.00001120616455 86.49999336951987 -1.215501538006905e-05
  endloop
endfacet
facet normal 1.9283930730177714e-07 -0.9999999999999816 1.4972992548130036e-22
  outer loop
    vertex 27.00001120616455 86.49999336951987 0.9999878449846193
    vertex 42.000011206164245 86.49999626210949 -1.1328558534698933e-05
    vertex 42.000011206164245 86.49999626210949 0.9999886714414653
  endloop
endfacet
facet normal 0.9999999999999791 1.969496519599428e-07 5.584824033558772e-08
  outer loop
    vertex 27.00001069651711 88.99999668474388 0.0
    vertex 27.00001120616455 86.49999336951987 0.9999878449846193
    vertex 27.00001120616455 86.49999336951987 -1.215501538006905e-05
  endloop
endfacet
facet normal 0.9999999999999791 1.969496519599428e-07 5.584824033558772e-08
  outer loop
    vertex 27.00001120616455 86.49999336951987 0.9999878449846193
    vertex 27.00001069651711 88.99999668474388 0.0
    vertex 27.000010668968542 87.99999336948775 2.4999991735461724
  endloop
endfacet
facet normal 0.9999999999999791 1.969496519599428e-07 5.584824033558772e-08
  outer loop
    vertex 27.000010668968542 87.99999336948775 2.4999991735461724
    vertex 27.00001069651711 88.99999668474388 0.0
    vertex 27.000010668968542 88.99999336948775 2.4999991735461724
  endloop
endfacet
facet normal 9.739909458594924e-08 -0.7071094513465398 0.7071041110164656
  outer loop
    vertex 42.000011206164245 86.49999626210949 0.9999886714414653
    vertex 27.000010668968542 87.99999336948775 2.4999991735461724
    vertex 27.00001120616455 86.49999336951987 0.9999878449846193
  endloop
endfacet
facet normal 9.739909458594924e-08 -0.7071094513465398 0.7071041110164656
  outer loop
    vertex 27.000010668968542 87.99999336948775 2.4999991735461724
    vertex 42.000011206164245 86.49999626210949 0.9999886714414653
    vertex 42.00001066896824 87.99999626207736 2.5000000000030176
  endloop
endfacet
facet normal 8.203029082692094e-13 -8.387756990703182e-06 -0.9999999999648228
  outer loop
    vertex 42.000010261594454 89.00000768206259 7.49999161220038
    vertex 27.000010261595577 88.00000323048152 7.499999999982405
    vertex 27.0000102615953 89.00000768206259 7.49999161220038
  endloop
endfacet
facet normal 8.203029082692094e-13 -8.387756990703182e-06 -0.9999999999648228
  outer loop
    vertex 27.000010261595577 88.00000323048152 7.499999999982405
    vertex 42.000010261594454 89.00000768206259 7.49999161220038
    vertex 42.000010261594646 88.00000639369958 7.499999999980482
  endloop
endfacet
facet normal 4.759397227483575e-08 0.9999999999619744 8.720617169152614e-06
  outer loop
    vertex 27.00001023779888 81.49999948126695 0.9999956396914274
    vertex 42.000012119014784 81.50000748832022 -4.401020741444982e-05
    vertex 27.000012056884525 81.50000891613962 -4.401021043295957e-05
  endloop
endfacet
facet normal 4.759397227483575e-08 0.9999999999619744 8.720617169152614e-06
  outer loop
    vertex 42.000012119014784 81.50000748832022 -4.401020741444982e-05
    vertex 27.00001023779888 81.49999948126695 0.9999956396914274
    vertex 42.0000102377978 81.49999948126718 0.9999956396908274
  endloop
endfacet
facet normal 0.9999999999999878 -5.350867172112986e-09 1.5617865734179792e-07
  outer loop
    vertex 27.000012056884525 81.50000891613962 -4.401021043295957e-05
    vertex 27.000010261595577 88.00000323048152 7.499999999982405
    vertex 27.00001023779888 81.49999948126695 0.9999956396914274
  endloop
endfacet
facet normal 0.9999999999999878 -5.350867172112986e-09 1.5617865734179792e-07
  outer loop
    vertex 27.000010261595577 88.00000323048152 7.499999999982405
    vertex 27.000012056884525 81.50000891613962 -4.401021043295957e-05
    vertex 27.00001120616455 86.49999336951987 0.9999878449846193
  endloop
endfacet
facet normal 0.9999999999999878 -5.350867172112986e-09 1.5617865734179792e-07
  outer loop
    vertex 27.00001120616455 86.49999336951987 0.9999878449846193
    vertex 27.000012056884525 81.50000891613962 -4.401021043295957e-05
    vertex 27.00001120616455 86.49999336951987 -1.215501538006905e-05
  endloop
endfacet
facet normal 0.9999999999999878 -5.350867172112986e-09 1.5617865734179792e-07
  outer loop
    vertex 27.000010261595577 88.00000323048152 7.499999999982405
    vertex 27.00001120616455 86.49999336951987 0.9999878449846193
    vertex 27.000010668968542 87.99999336948775 2.4999991735461724
  endloop
endfacet
facet normal -7.455782415118205e-08 0.7071067283965172 -0.70710683397657
  outer loop
    vertex 27.000010261595577 88.00000323048152 7.499999999982405
    vertex 42.0000102377978 81.49999948126718 0.9999956396908274
    vertex 27.00001023779888 81.49999948126695 0.9999956396914274
  endloop
endfacet
facet normal -7.455782415118205e-08 0.7071067283965172 -0.70710683397657
  outer loop
    vertex 42.0000102377978 81.49999948126718 0.9999956396908274
    vertex 27.000010261595577 88.00000323048152 7.499999999982405
    vertex 42.000010261594646 88.00000639369958 7.499999999980482
  endloop
endfacet
facet normal 5.8469354868410596e-08 -0.9999999999999958 7.247007465585764e-08
  outer loop
    vertex 42.00001000064175 81.00000110644372 1.0000001233594051
    vertex 27.000010261596106 81.00000088163368 9.999994647597227
    vertex 27.000010261596106 81.00000025185895 1.0000000719596835
  endloop
endfacet
facet normal 5.8469354868410596e-08 -0.9999999999999958 7.247007465585764e-08
  outer loop
    vertex 27.000010261596106 81.00000088163368 9.999994647597227
    vertex 42.00001000064175 81.00000110644372 1.0000001233594051
    vertex 42.00001000064174 81.00000178112933 9.999991802768621
  endloop
endfacet
facet normal 1.977938750851019e-07 -7.363516821329616e-08 0.9999999999999778
  outer loop
    vertex 42.00001000064174 81.00000178112933 9.999991802768621
    vertex 27.00001026159623 87.99999858483504 9.999995285122676
    vertex 27.000010261596106 81.00000088163368 9.999994647597227
  endloop
endfacet
facet normal 1.977938750851019e-07 -7.363516821329616e-08 0.9999999999999778
  outer loop
    vertex 27.00001026159623 87.99999858483504 9.999995285122676
    vertex 42.00001000064174 81.00000178112933 9.999991802768621
    vertex 42.00001000064181 88.00000372766277 9.999992196135576
  endloop
endfacet
endsolid EBadge4-back
