solid EBadge2-back
facet normal 0.0 0.0 -1.0
  outer loop
    vertex 70.0 89.00000000000001 0.0
    vertex 0.0 0.0 0.0
    vertex 0.0 89.00000000000001 0.0
  endloop
endfacet
facet normal 0.0 0.0 -1.0
  outer loop
    vertex 0.0 0.0 0.0
    vertex 70.0 89.00000000000001 0.0
    vertex 70.0 0.0 0.0
  endloop
endfacet
facet normal -1.2770543655738696e-35 -1.0 -1.7092771702208428e-18
  outer loop
    vertex 70.0 -9.122361633523338e-17 11.99999999999999
    vertex 0.0 0.0 0.0
    vertex 70.0 0.0 0.0
  endloop
endfacet
facet normal -1.2770543655738696e-35 -1.0 -1.7092771702208428e-18
  outer loop
    vertex 0.0 0.0 0.0
    vertex 70.0 -9.122361633523338e-17 11.99999999999999
    vertex 40.00000000000001 -9.093935021090175e-17 7.9999999999999964
  endloop
endfacet
facet normal -1.2770543655738696e-35 -1.0 -1.7092771702208428e-18
  outer loop
    vertex 40.00000000000001 -9.093935021090175e-17 7.9999999999999964
    vertex 70.0 -9.122361633523338e-17 11.99999999999999
    vertex 40.00000000000001 -9.093935021090175e-17 11.99999999999999
  endloop
endfacet
facet normal -1.2770543655738696e-35 -1.0 -1.7092771702208428e-18
  outer loop
    vertex 0.0 0.0 0.0
    vertex 30.0 -9.151608944792473e-17 7.9999999999999964
    vertex -1.8782791271085433e-16 -9.122361633523338e-17 11.99999999999999
  endloop
endfacet
facet normal -1.2770543655738696e-35 -1.0 -1.7092771702208428e-18
  outer loop
    vertex 30.0 -9.151608944792473e-17 7.9999999999999964
    vertex 0.0 0.0 0.0
    vertex 40.00000000000001 -9.093935021090175e-17 7.9999999999999964
  endloop
endfacet
facet normal -1.2770543655738696e-35 -1.0 -1.7092771702208428e-18
  outer loop
    vertex -1.8782791271085433e-16 -9.122361633523338e-17 11.99999999999999
    vertex 30.0 -9.151608944792473e-17 7.9999999999999964
    vertex 30.0 -9.151608944792473e-17 11.99999999999999
  endloop
endfacet
facet normal -1.0 0.0 0.0
  outer loop
    vertex -1.8782791271085433e-16 89.00000000000001 11.99999999999999
    vertex 0.0 0.0 0.0
    vertex -1.8782791271085433e-16 -9.122361633523338e-17 11.99999999999999
  endloop
endfacet
facet normal -1.0 0.0 0.0
  outer loop
    vertex 0.0 0.0 0.0
    vertex -1.8782791271085433e-16 89.00000000000001 11.99999999999999
    vertex 0.0 89.00000000000001 0.0
  endloop
endfacet
facet normal -0.0 1.0 -0.0
  outer loop
    vertex 0.0 89.00000000000001 0.0
    vertex 53.00000000000001 89.00000000000001 1.000000000000002
    vertex 70.0 89.00000000000001 0.0
  endloop
endfacet
facet normal -0.0 1.0 -0.0
  outer loop
    vertex 53.00000000000001 89.00000000000001 1.000000000000002
    vertex 0.0 89.00000000000001 0.0
    vertex -1.8782791271085433e-16 89.00000000000001 11.99999999999999
  endloop
endfacet
facet normal -0.0 1.0 -0.0
  outer loop
    vertex 70.0 89.00000000000001 0.0
    vertex 53.00000000000001 89.00000000000001 1.000000000000002
    vertex 61.000000000000014 89.00000000000001 1.0000000000000004
  endloop
endfacet
facet normal -0.0 1.0 -0.0
  outer loop
    vertex 53.00000000000001 89.00000000000001 1.000000000000002
    vertex -1.8782791271085433e-16 89.00000000000001 11.99999999999999
    vertex 53.00000000000001 89.00000000000001 4.000000000000002
  endloop
endfacet
facet normal -0.0 1.0 -0.0
  outer loop
    vertex 53.00000000000001 89.00000000000001 4.000000000000002
    vertex -1.8782791271085433e-16 89.00000000000001 11.99999999999999
    vertex 61.0 89.00000000000001 4.000000000000002
  endloop
endfacet
facet normal -0.0 1.0 -0.0
  outer loop
    vertex 61.000000000000014 89.00000000000001 1.0000000000000004
    vertex 70.0 89.00000000000001 11.99999999999999
    vertex 70.0 89.00000000000001 0.0
  endloop
endfacet
facet normal -0.0 1.0 -0.0
  outer loop
    vertex 70.0 89.00000000000001 11.99999999999999
    vertex 61.000000000000014 89.00000000000001 1.0000000000000004
    vertex 61.0 89.00000000000001 4.000000000000002
  endloop
endfacet
facet normal -0.0 1.0 -0.0
  outer loop
    vertex 70.0 89.00000000000001 11.99999999999999
    vertex 61.0 89.00000000000001 4.000000000000002
    vertex -1.8782791271085433e-16 89.00000000000001 11.99999999999999
  endloop
endfacet
facet normal 1.0 0.0 0.0
  outer loop
    vertex 70.0 0.0 0.0
    vertex 70.0 89.00000000000001 11.99999999999999
    vertex 70.0 -9.122361633523338e-17 11.99999999999999
  endloop
endfacet
facet normal 1.0 0.0 0.0
  outer loop
    vertex 70.0 89.00000000000001 11.99999999999999
    vertex 70.0 0.0 0.0
    vertex 70.0 89.00000000000001 0.0
  endloop
endfacet
facet normal 1.0 1.1749860343949574e-16 -3.1638570815115026e-33
  outer loop
    vertex 6.000000000000001 6.999999999999998 1.0000000000000044
    vertex 6.000000000000002 0.9999999999999996 11.99999999999999
    vertex 6.000000000000002 0.9999999999999996 0.9999999999999999
  endloop
endfacet
facet normal 1.0 1.1749860343949574e-16 -3.1638570815115026e-33
  outer loop
    vertex 6.000000000000002 0.9999999999999996 11.99999999999999
    vertex 6.000000000000001 6.999999999999998 1.0000000000000044
    vertex 6.000000000000002 0.9999999999999996 21.499999999999904
  endloop
endfacet
facet normal 1.0 1.1749860343949574e-16 -3.1638570815115026e-33
  outer loop
    vertex 6.000000000000002 0.9999999999999996 21.499999999999904
    vertex 6.000000000000001 6.999999999999998 1.0000000000000044
    vertex 6.000000000000001 6.999999999999998 21.499999999999904
  endloop
endfacet
facet normal -1.0 0.0 0.0
  outer loop
    vertex 63.00000000000001 88.00000000000001 21.49999999999996
    vertex 63.00000000000001 82.00000000000001 1.000000000000002
    vertex 63.00000000000001 82.00000000000001 21.49999999999996
  endloop
endfacet
facet normal -1.0 0.0 0.0
  outer loop
    vertex 63.00000000000001 82.00000000000001 1.000000000000002
    vertex 63.00000000000001 88.00000000000001 21.49999999999996
    vertex 63.00000000000001 88.00000000000001 0.9999999999999999
  endloop
endfacet
facet normal -1.0 0.0 0.0
  outer loop
    vertex 63.00000000000001 88.00000000000001 0.9999999999999999
    vertex 63.00000000000001 88.00000000000001 21.49999999999996
    vertex 63.00000000000001 88.00000000000001 11.99999999999999
  endloop
endfacet
facet normal 0.0 0.0 1.0
  outer loop
    vertex 69.00000000000001 82.00000000000001 21.49999999999996
    vertex 63.00000000000001 88.00000000000001 21.49999999999996
    vertex 63.00000000000001 82.00000000000001 21.49999999999996
  endloop
endfacet
facet normal 0.0 0.0 1.0
  outer loop
    vertex 63.00000000000001 88.00000000000001 21.49999999999996
    vertex 69.00000000000001 82.00000000000001 21.49999999999996
    vertex 69.00000000000001 88.00000000000001 21.49999999999996
  endloop
endfacet
facet normal 0.0 0.0 1.0
  outer loop
    vertex 69.00000000000001 0.9999999999999981 21.499999999999915
    vertex 63.00000000000001 6.999999999999998 21.499999999999915
    vertex 63.00000000000001 0.9999999999999996 21.499999999999915
  endloop
endfacet
facet normal 0.0 0.0 1.0
  outer loop
    vertex 63.00000000000001 6.999999999999998 21.499999999999915
    vertex 69.00000000000001 0.9999999999999981 21.499999999999915
    vertex 69.00000000000001 6.999999999999998 21.499999999999915
  endloop
endfacet
facet normal 0.0 0.0 1.0
  outer loop
    vertex 1.0 0.9999999999999996 21.499999999999904
    vertex 6.000000000000001 6.999999999999998 21.499999999999904
    vertex 0.999999999999999 6.999999999999998 21.499999999999904
  endloop
endfacet
facet normal 0.0 0.0 1.0
  outer loop
    vertex 6.000000000000001 6.999999999999998 21.499999999999904
    vertex 1.0 0.9999999999999996 21.499999999999904
    vertex 6.000000000000002 0.9999999999999996 21.499999999999904
  endloop
endfacet
facet normal -0.0 1.0 -0.0
  outer loop
    vertex 0.999999999999999 6.999999999999998 11.99999999999999
    vertex 6.000000000000001 6.999999999999998 1.0000000000000044
    vertex 0.999999999999999 6.999999999999998 1.0000000000000044
  endloop
endfacet
facet normal -0.0 1.0 -0.0
  outer loop
    vertex 6.000000000000001 6.999999999999998 1.0000000000000044
    vertex 0.999999999999999 6.999999999999998 11.99999999999999
    vertex 6.000000000000001 6.999999999999998 21.499999999999904
  endloop
endfacet
facet normal -0.0 1.0 -0.0
  outer loop
    vertex 6.000000000000001 6.999999999999998 21.499999999999904
    vertex 0.999999999999999 6.999999999999998 11.99999999999999
    vertex 0.999999999999999 6.999999999999998 21.499999999999904
  endloop
endfacet
facet normal -0.0 1.0 -0.0
  outer loop
    vertex 63.00000000000001 6.999999999999998 21.499999999999915
    vertex 69.00000000000001 6.999999999999998 1.000000000000002
    vertex 63.00000000000001 6.999999999999998 1.000000000000002
  endloop
endfacet
facet normal -0.0 1.0 -0.0
  outer loop
    vertex 69.00000000000001 6.999999999999998 1.000000000000002
    vertex 63.00000000000001 6.999999999999998 21.499999999999915
    vertex 69.00000000000001 6.999999999999998 11.99999999999999
  endloop
endfacet
facet normal -0.0 1.0 -0.0
  outer loop
    vertex 69.00000000000001 6.999999999999998 11.99999999999999
    vertex 63.00000000000001 6.999999999999998 21.499999999999915
    vertex 69.00000000000001 6.999999999999998 21.499999999999915
  endloop
endfacet
facet normal 0.0 -1.0 0.0
  outer loop
    vertex 69.00000000000001 82.00000000000001 11.99999999999999
    vertex 63.00000000000001 82.00000000000001 1.000000000000002
    vertex 69.00000000000001 82.00000000000001 1.000000000000002
  endloop
endfacet
facet normal 0.0 -1.0 0.0
  outer loop
    vertex 63.00000000000001 82.00000000000001 1.000000000000002
    vertex 69.00000000000001 82.00000000000001 11.99999999999999
    vertex 63.00000000000001 82.00000000000001 21.49999999999996
  endloop
endfacet
facet normal 0.0 -1.0 0.0
  outer loop
    vertex 63.00000000000001 82.00000000000001 21.49999999999996
    vertex 69.00000000000001 82.00000000000001 11.99999999999999
    vertex 69.00000000000001 82.00000000000001 21.49999999999996
  endloop
endfacet
facet normal -1.0 0.0 0.0
  outer loop
    vertex 63.00000000000001 6.999999999999998 21.499999999999915
    vertex 63.00000000000001 0.9999999999999996 11.99999999999999
    vertex 63.00000000000001 0.9999999999999996 21.499999999999915
  endloop
endfacet
facet normal -1.0 0.0 0.0
  outer loop
    vertex 63.00000000000001 0.9999999999999996 11.99999999999999
    vertex 63.00000000000001 6.999999999999998 21.499999999999915
    vertex 63.00000000000001 0.9999999999999996 0.9999999999999999
  endloop
endfacet
facet normal -1.0 0.0 0.0
  outer loop
    vertex 63.00000000000001 0.9999999999999996 0.9999999999999999
    vertex 63.00000000000001 6.999999999999998 21.499999999999915
    vertex 63.00000000000001 6.999999999999998 1.000000000000002
  endloop
endfacet
facet normal -0.0 1.0 -0.0
  outer loop
    vertex 6.000000000000002 0.9999999999999996 11.99999999999999
    vertex 63.00000000000001 0.9999999999999996 0.9999999999999999
    vertex 6.000000000000002 0.9999999999999996 0.9999999999999999
  endloop
endfacet
facet normal -0.0 1.0 -0.0
  outer loop
    vertex 63.00000000000001 0.9999999999999996 0.9999999999999999
    vertex 6.000000000000002 0.9999999999999996 11.99999999999999
    vertex 30.0 0.9999999999999996 7.9999999999999964
  endloop
endfacet
facet normal -0.0 1.0 -0.0
  outer loop
    vertex 30.0 0.9999999999999996 7.9999999999999964
    vertex 6.000000000000002 0.9999999999999996 11.99999999999999
    vertex 30.0 0.9999999999999996 11.99999999999999
  endloop
endfacet
facet normal -0.0 1.0 -0.0
  outer loop
    vertex 63.00000000000001 0.9999999999999996 0.9999999999999999
    vertex 40.00000000000001 0.9999999999999996 7.9999999999999964
    vertex 63.00000000000001 0.9999999999999996 11.99999999999999
  endloop
endfacet
facet normal -0.0 1.0 -0.0
  outer loop
    vertex 40.00000000000001 0.9999999999999996 7.9999999999999964
    vertex 63.00000000000001 0.9999999999999996 0.9999999999999999
    vertex 30.0 0.9999999999999996 7.9999999999999964
  endloop
endfacet
facet normal -0.0 1.0 -0.0
  outer loop
    vertex 63.00000000000001 0.9999999999999996 11.99999999999999
    vertex 40.00000000000001 0.9999999999999996 7.9999999999999964
    vertex 40.00000000000001 0.9999999999999996 11.99999999999999
  endloop
endfacet
facet normal 1.0 2.1149748619109226e-17 -1.9323722880193567e-33
  outer loop
    vertex 0.9999999999999974 82.00000000000001 1.0000000000000122
    vertex 0.999999999999999 6.999999999999998 11.99999999999999
    vertex 0.999999999999999 6.999999999999998 1.0000000000000044
  endloop
endfacet
facet normal 1.0 2.1149748619109226e-17 -1.9323722880193567e-33
  outer loop
    vertex 0.999999999999999 6.999999999999998 11.99999999999999
    vertex 0.9999999999999974 82.00000000000001 1.0000000000000122
    vertex 0.9999999999999974 82.00000000000001 11.99999999999999
  endloop
endfacet
facet normal 0.0 -1.0 0.0
  outer loop
    vertex 63.00000000000001 88.00000000000001 11.99999999999999
    vertex 61.000000000000014 88.00000000000001 1.0000000000000004
    vertex 63.00000000000001 88.00000000000001 0.9999999999999999
  endloop
endfacet
facet normal 0.0 -1.0 0.0
  outer loop
    vertex 61.000000000000014 88.00000000000001 1.0000000000000004
    vertex 63.00000000000001 88.00000000000001 11.99999999999999
    vertex 61.0 88.00000000000001 4.000000000000002
  endloop
endfacet
facet normal 0.0 -1.0 0.0
  outer loop
    vertex 61.0 88.00000000000001 4.000000000000002
    vertex 63.00000000000001 88.00000000000001 11.99999999999999
    vertex 53.00000000000001 88.00000000000001 4.000000000000002
  endloop
endfacet
facet normal 0.0 -1.0 0.0
  outer loop
    vertex 53.00000000000001 88.00000000000001 4.000000000000002
    vertex 63.00000000000001 88.00000000000001 11.99999999999999
    vertex 51.00000000000001 88.00000000000001 4.999999999999999
  endloop
endfacet
facet normal 0.0 -1.0 0.0
  outer loop
    vertex 51.00000000000001 88.00000000000001 4.999999999999999
    vertex 63.00000000000001 88.00000000000001 11.99999999999999
    vertex 49.00000000000001 88.00000000000001 4.999999999999999
  endloop
endfacet
facet normal 0.0 -1.0 0.0
  outer loop
    vertex 49.00000000000001 88.00000000000001 4.999999999999999
    vertex 6.000000000000002 88.00000000000001 1.0000000000000122
    vertex 49.00000000000001 88.00000000000001 1.0000000000000027
  endloop
endfacet
facet normal 0.0 -1.0 0.0
  outer loop
    vertex 6.000000000000002 88.00000000000001 1.0000000000000122
    vertex 49.00000000000001 88.00000000000001 4.999999999999999
    vertex 6.000000000000002 88.00000000000001 11.99999999999999
  endloop
endfacet
facet normal 0.0 -1.0 0.0
  outer loop
    vertex 6.000000000000002 88.00000000000001 11.99999999999999
    vertex 49.00000000000001 88.00000000000001 4.999999999999999
    vertex 63.00000000000001 88.00000000000001 11.99999999999999
  endloop
endfacet
facet normal 0.0 -1.0 0.0
  outer loop
    vertex 53.00000000000001 88.00000000000001 4.000000000000002
    vertex 51.00000000000001 88.00000000000001 1.0000000000000027
    vertex 53.00000000000001 88.00000000000001 1.000000000000002
  endloop
endfacet
facet normal 0.0 -1.0 0.0
  outer loop
    vertex 51.00000000000001 88.00000000000001 1.0000000000000027
    vertex 53.00000000000001 88.00000000000001 4.000000000000002
    vertex 51.00000000000001 88.00000000000001 4.999999999999999
  endloop
endfacet
facet normal -1.0 0.0 0.0
  outer loop
    vertex 69.00000000000001 82.00000000000001 11.99999999999999
    vertex 69.00000000000001 6.999999999999998 1.000000000000002
    vertex 69.00000000000001 6.999999999999998 11.99999999999999
  endloop
endfacet
facet normal -1.0 0.0 0.0
  outer loop
    vertex 69.00000000000001 6.999999999999998 1.000000000000002
    vertex 69.00000000000001 82.00000000000001 11.99999999999999
    vertex 69.00000000000001 82.00000000000001 1.000000000000002
  endloop
endfacet
facet normal -2.3499720687899147e-16 -1.0 -0.0
  outer loop
    vertex 69.00000000000001 0.9999999999999981 21.499999999999915
    vertex 63.00000000000001 0.9999999999999996 11.99999999999999
    vertex 69.00000000000001 0.9999999999999981 11.99999999999999
  endloop
endfacet
facet normal -2.3499720687899147e-16 -1.0 -0.0
  outer loop
    vertex 63.00000000000001 0.9999999999999996 11.99999999999999
    vertex 69.00000000000001 0.9999999999999981 21.499999999999915
    vertex 63.00000000000001 0.9999999999999996 21.499999999999915
  endloop
endfacet
facet normal -0.0 -1.0 -0.0
  outer loop
    vertex 6.000000000000002 0.9999999999999996 21.499999999999904
    vertex 1.0 0.9999999999999996 11.99999999999999
    vertex 6.000000000000002 0.9999999999999996 11.99999999999999
  endloop
endfacet
facet normal -0.0 -1.0 -0.0
  outer loop
    vertex 1.0 0.9999999999999996 11.99999999999999
    vertex 6.000000000000002 0.9999999999999996 21.499999999999904
    vertex 1.0 0.9999999999999996 21.499999999999904
  endloop
endfacet
facet normal -1.0 -1.7624790515924364e-16 -0.0
  outer loop
    vertex 0.999999999999999 6.999999999999998 21.499999999999904
    vertex 1.0 0.9999999999999996 11.99999999999999
    vertex 1.0 0.9999999999999996 21.499999999999904
  endloop
endfacet
facet normal -1.0 -1.7624790515924364e-16 -0.0
  outer loop
    vertex 1.0 0.9999999999999996 11.99999999999999
    vertex 0.999999999999999 6.999999999999998 21.499999999999904
    vertex 0.999999999999999 6.999999999999998 11.99999999999999
  endloop
endfacet
facet normal -0.0 1.0 -0.0
  outer loop
    vertex 63.00000000000001 88.00000000000001 21.49999999999996
    vertex 69.00000000000001 88.00000000000001 11.99999999999999
    vertex 63.00000000000001 88.00000000000001 11.99999999999999
  endloop
endfacet
facet normal -0.0 1.0 -0.0
  outer loop
    vertex 69.00000000000001 88.00000000000001 11.99999999999999
    vertex 63.00000000000001 88.00000000000001 21.49999999999996
    vertex 69.00000000000001 88.00000000000001 21.49999999999996
  endloop
endfacet
facet normal 1.0 0.0 0.0
  outer loop
    vertex 69.00000000000001 88.00000000000001 11.99999999999999
    vertex 69.00000000000001 82.00000000000001 21.49999999999996
    vertex 69.00000000000001 82.00000000000001 11.99999999999999
  endloop
endfacet
facet normal 1.0 0.0 0.0
  outer loop
    vertex 69.00000000000001 82.00000000000001 21.49999999999996
    vertex 69.00000000000001 88.00000000000001 11.99999999999999
    vertex 69.00000000000001 88.00000000000001 21.49999999999996
  endloop
endfacet
facet normal 1.0 0.0 0.0
  outer loop
    vertex 69.00000000000001 6.999999999999998 11.99999999999999
    vertex 69.00000000000001 0.9999999999999981 21.499999999999915
    vertex 69.00000000000001 0.9999999999999981 11.99999999999999
  endloop
endfacet
facet normal 1.0 0.0 0.0
  outer loop
    vertex 69.00000000000001 0.9999999999999981 21.499999999999915
    vertex 69.00000000000001 6.999999999999998 11.99999999999999
    vertex 69.00000000000001 6.999999999999998 21.499999999999915
  endloop
endfacet
facet normal 0.0 -1.0 0.0
  outer loop
    vertex 6.000000000000001 82.00000000000001 21.499999999999925
    vertex 0.9999999999999974 82.00000000000001 1.0000000000000122
    vertex 6.000000000000001 82.00000000000001 1.0000000000000122
  endloop
endfacet
facet normal 0.0 -1.0 0.0
  outer loop
    vertex 0.9999999999999974 82.00000000000001 1.0000000000000122
    vertex 6.000000000000001 82.00000000000001 21.499999999999925
    vertex 0.9999999999999974 82.00000000000001 11.99999999999999
  endloop
endfacet
facet normal 0.0 -1.0 0.0
  outer loop
    vertex 0.9999999999999974 82.00000000000001 11.99999999999999
    vertex 6.000000000000001 82.00000000000001 21.499999999999925
    vertex 0.9999999999999974 82.00000000000001 21.499999999999925
  endloop
endfacet
facet normal 1.0 -1.1749860343949574e-16 -0.0
  outer loop
    vertex 6.000000000000002 88.00000000000001 1.0000000000000122
    vertex 6.000000000000001 82.00000000000001 21.499999999999925
    vertex 6.000000000000001 82.00000000000001 1.0000000000000122
  endloop
endfacet
facet normal 1.0 -1.1749860343949574e-16 -0.0
  outer loop
    vertex 6.000000000000001 82.00000000000001 21.499999999999925
    vertex 6.000000000000002 88.00000000000001 1.0000000000000122
    vertex 6.000000000000002 88.00000000000001 21.499999999999925
  endloop
endfacet
facet normal 1.0 -1.1749860343949574e-16 -0.0
  outer loop
    vertex 6.000000000000002 88.00000000000001 21.499999999999925
    vertex 6.000000000000002 88.00000000000001 1.0000000000000122
    vertex 6.000000000000002 88.00000000000001 11.99999999999999
  endloop
endfacet
facet normal 0.0 0.0 1.0
  outer loop
    vertex 0.9999999999999974 82.00000000000001 21.499999999999925
    vertex 6.000000000000002 88.00000000000001 21.499999999999925
    vertex 0.9999999999999966 88.0 21.499999999999925
  endloop
endfacet
facet normal 0.0 0.0 1.0
  outer loop
    vertex 6.000000000000002 88.00000000000001 21.499999999999925
    vertex 0.9999999999999974 82.00000000000001 21.499999999999925
    vertex 6.000000000000001 82.00000000000001 21.499999999999925
  endloop
endfacet
facet normal -1.0 -1.4687325429936995e-16 -0.0
  outer loop
    vertex 0.9999999999999966 88.0 21.499999999999925
    vertex 0.9999999999999974 82.00000000000001 11.99999999999999
    vertex 0.9999999999999974 82.00000000000001 21.499999999999925
  endloop
endfacet
facet normal -1.0 -1.4687325429936995e-16 -0.0
  outer loop
    vertex 0.9999999999999974 82.00000000000001 11.99999999999999
    vertex 0.9999999999999966 88.0 21.499999999999925
    vertex 0.9999999999999966 88.0 11.99999999999999
  endloop
endfacet
facet normal -2.2559731860383158e-15 1.0 0.0
  outer loop
    vertex 0.9999999999999966 88.0 21.499999999999925
    vertex 6.000000000000002 88.00000000000001 11.99999999999999
    vertex 0.9999999999999966 88.0 11.99999999999999
  endloop
endfacet
facet normal -2.2559731860383158e-15 1.0 0.0
  outer loop
    vertex 6.000000000000002 88.00000000000001 11.99999999999999
    vertex 0.9999999999999966 88.0 21.499999999999925
    vertex 6.000000000000002 88.00000000000001 21.499999999999925
  endloop
endfacet
facet normal 4.4061976289810855e-17 -1.7624790515924354e-17 1.0
  outer loop
    vertex 51.00000000000001 83.0 4.999999999999999
    vertex 49.00000000000001 88.00000000000001 4.999999999999999
    vertex 49.00000000000001 83.0 4.999999999999999
  endloop
endfacet
facet normal 4.4061976289810855e-17 -1.7624790515924354e-17 1.0
  outer loop
    vertex 49.00000000000001 88.00000000000001 4.999999999999999
    vertex 51.00000000000001 83.0 4.999999999999999
    vertex 51.00000000000001 88.00000000000001 4.999999999999999
  endloop
endfacet
facet normal -1.0 -1.553166203651084e-33 4.4061976289810855e-17
  outer loop
    vertex 49.00000000000001 88.00000000000001 4.999999999999999
    vertex 49.00000000000001 83.0 1.0000000000000027
    vertex 49.00000000000001 83.0 4.999999999999999
  endloop
endfacet
facet normal -1.0 -1.553166203651084e-33 4.4061976289810855e-17
  outer loop
    vertex 49.00000000000001 83.0 1.0000000000000027
    vertex 49.00000000000001 88.00000000000001 4.999999999999999
    vertex 49.00000000000001 88.00000000000001 1.0000000000000027
  endloop
endfacet
facet normal 0.0 -1.0 -1.7624790515924354e-17
  outer loop
    vertex 51.00000000000001 83.0 4.999999999999999
    vertex 49.00000000000001 83.0 1.0000000000000027
    vertex 51.00000000000001 83.0 1.0000000000000027
  endloop
endfacet
facet normal 0.0 -1.0 -1.7624790515924354e-17
  outer loop
    vertex 49.00000000000001 83.0 1.0000000000000027
    vertex 51.00000000000001 83.0 4.999999999999999
    vertex 49.00000000000001 83.0 4.999999999999999
  endloop
endfacet
facet normal 1.0 0.0 -4.4061976289810855e-17
  outer loop
    vertex 51.00000000000001 88.00000000000001 1.0000000000000027
    vertex 51.00000000000001 83.0 4.999999999999999
    vertex 51.00000000000001 83.0 1.0000000000000027
  endloop
endfacet
facet normal 1.0 0.0 -4.4061976289810855e-17
  outer loop
    vertex 51.00000000000001 83.0 4.999999999999999
    vertex 51.00000000000001 88.00000000000001 1.0000000000000027
    vertex 51.00000000000001 88.00000000000001 4.999999999999999
  endloop
endfacet
facet normal 1.9827889330414885e-16 0.0 1.0
  outer loop
    vertex 61.000000000000014 88.00000000000001 1.0000000000000004
    vertex 53.00000000000001 89.00000000000001 1.000000000000002
    vertex 53.00000000000001 88.00000000000001 1.000000000000002
  endloop
endfacet
facet normal 1.9827889330414885e-16 0.0 1.0
  outer loop
    vertex 53.00000000000001 89.00000000000001 1.000000000000002
    vertex 61.000000000000014 88.00000000000001 1.0000000000000004
    vertex 61.000000000000014 89.00000000000001 1.0000000000000004
  endloop
endfacet
facet normal -1.0 -0.0 -3.759955310063861e-15
  outer loop
    vertex 61.0 89.00000000000001 4.000000000000002
    vertex 61.000000000000014 88.00000000000001 1.0000000000000004
    vertex 61.0 88.00000000000001 4.000000000000002
  endloop
endfacet
facet normal -1.0 -0.0 -3.759955310063861e-15
  outer loop
    vertex 61.000000000000014 88.00000000000001 1.0000000000000004
    vertex 61.0 89.00000000000001 4.000000000000002
    vertex 61.000000000000014 89.00000000000001 1.0000000000000004
  endloop
endfacet
facet normal -0.0 -0.0 -1.0
  outer loop
    vertex 61.0 89.00000000000001 4.000000000000002
    vertex 53.00000000000001 88.00000000000001 4.000000000000002
    vertex 53.00000000000001 89.00000000000001 4.000000000000002
  endloop
endfacet
facet normal -0.0 -0.0 -1.0
  outer loop
    vertex 53.00000000000001 88.00000000000001 4.000000000000002
    vertex 61.0 89.00000000000001 4.000000000000002
    vertex 61.0 88.00000000000001 4.000000000000002
  endloop
endfacet
facet normal 1.0 0.0 0.0
  outer loop
    vertex 53.00000000000001 89.00000000000001 1.000000000000002
    vertex 53.00000000000001 88.00000000000001 4.000000000000002
    vertex 53.00000000000001 88.00000000000001 1.000000000000002
  endloop
endfacet
facet normal 1.0 0.0 0.0
  outer loop
    vertex 53.00000000000001 88.00000000000001 4.000000000000002
    vertex 53.00000000000001 89.00000000000001 1.000000000000002
    vertex 53.00000000000001 89.00000000000001 4.000000000000002
  endloop
endfacet
facet normal 4.586362333534625e-36 4.559730161347935e-33 1.0
  outer loop
    vertex -1.8782791271085433e-16 -9.122361633523338e-17 11.99999999999999
    vertex 1.0 0.9999999999999996 11.99999999999999
    vertex -1.8782791271085433e-16 89.00000000000001 11.99999999999999
  endloop
endfacet
facet normal 4.586362333534625e-36 4.559730161347935e-33 1.0
  outer loop
    vertex 1.0 0.9999999999999996 11.99999999999999
    vertex -1.8782791271085433e-16 -9.122361633523338e-17 11.99999999999999
    vertex 30.0 -9.151608944792473e-17 11.99999999999999
  endloop
endfacet
facet normal 4.586362333534625e-36 4.559730161347935e-33 1.0
  outer loop
    vertex -1.8782791271085433e-16 89.00000000000001 11.99999999999999
    vertex 1.0 0.9999999999999996 11.99999999999999
    vertex 0.999999999999999 6.999999999999998 11.99999999999999
  endloop
endfacet
facet normal 4.586362333534625e-36 4.559730161347935e-33 1.0
  outer loop
    vertex -1.8782791271085433e-16 89.00000000000001 11.99999999999999
    vertex 0.999999999999999 6.999999999999998 11.99999999999999
    vertex 0.9999999999999966 88.0 11.99999999999999
  endloop
endfacet
facet normal 4.586362333534625e-36 4.559730161347935e-33 1.0
  outer loop
    vertex 0.9999999999999966 88.0 11.99999999999999
    vertex 0.999999999999999 6.999999999999998 11.99999999999999
    vertex 0.9999999999999974 82.00000000000001 11.99999999999999
  endloop
endfacet
facet normal 4.586362333534625e-36 4.559730161347935e-33 1.0
  outer loop
    vertex 1.0 0.9999999999999996 11.99999999999999
    vertex 30.0 -9.151608944792473e-17 11.99999999999999
    vertex 6.000000000000002 0.9999999999999996 11.99999999999999
  endloop
endfacet
facet normal 4.586362333534625e-36 4.559730161347935e-33 1.0
  outer loop
    vertex 6.000000000000002 0.9999999999999996 11.99999999999999
    vertex 30.0 -9.151608944792473e-17 11.99999999999999
    vertex 30.0 0.9999999999999996 11.99999999999999
  endloop
endfacet
facet normal 4.586362333534625e-36 4.559730161347935e-33 1.0
  outer loop
    vertex 70.0 -9.122361633523338e-17 11.99999999999999
    vertex 40.00000000000001 0.9999999999999996 11.99999999999999
    vertex 40.00000000000001 -9.093935021090175e-17 11.99999999999999
  endloop
endfacet
facet normal 4.586362333534625e-36 4.559730161347935e-33 1.0
  outer loop
    vertex 40.00000000000001 0.9999999999999996 11.99999999999999
    vertex 70.0 -9.122361633523338e-17 11.99999999999999
    vertex 63.00000000000001 0.9999999999999996 11.99999999999999
  endloop
endfacet
facet normal 4.586362333534625e-36 4.559730161347935e-33 1.0
  outer loop
    vertex 63.00000000000001 0.9999999999999996 11.99999999999999
    vertex 70.0 -9.122361633523338e-17 11.99999999999999
    vertex 69.00000000000001 0.9999999999999981 11.99999999999999
  endloop
endfacet
facet normal 4.586362333534625e-36 4.559730161347935e-33 1.0
  outer loop
    vertex 69.00000000000001 0.9999999999999981 11.99999999999999
    vertex 70.0 -9.122361633523338e-17 11.99999999999999
    vertex 69.00000000000001 6.999999999999998 11.99999999999999
  endloop
endfacet
facet normal 4.586362333534625e-36 4.559730161347935e-33 1.0
  outer loop
    vertex 69.00000000000001 6.999999999999998 11.99999999999999
    vertex 70.0 -9.122361633523338e-17 11.99999999999999
    vertex 69.00000000000001 82.00000000000001 11.99999999999999
  endloop
endfacet
facet normal 4.586362333534625e-36 4.559730161347935e-33 1.0
  outer loop
    vertex 69.00000000000001 82.00000000000001 11.99999999999999
    vertex 70.0 -9.122361633523338e-17 11.99999999999999
    vertex 69.00000000000001 88.00000000000001 11.99999999999999
  endloop
endfacet
facet normal 4.586362333534625e-36 4.559730161347935e-33 1.0
  outer loop
    vertex 0.9999999999999966 88.0 11.99999999999999
    vertex 70.0 89.00000000000001 11.99999999999999
    vertex -1.8782791271085433e-16 89.00000000000001 11.99999999999999
  endloop
endfacet
facet normal 4.586362333534625e-36 4.559730161347935e-33 1.0
  outer loop
    vertex 70.0 89.00000000000001 11.99999999999999
    vertex 0.9999999999999966 88.0 11.99999999999999
    vertex 6.000000000000002 88.00000000000001 11.99999999999999
  endloop
endfacet
facet normal 4.586362333534625e-36 4.559730161347935e-33 1.0
  outer loop
    vertex 70.0 89.00000000000001 11.99999999999999
    vertex 6.000000000000002 88.00000000000001 11.99999999999999
    vertex 63.00000000000001 88.00000000000001 11.99999999999999
  endloop
endfacet
facet normal 4.586362333534625e-36 4.559730161347935e-33 1.0
  outer loop
    vertex 70.0 89.00000000000001 11.99999999999999
    vertex 63.00000000000001 88.00000000000001 11.99999999999999
    vertex 69.00000000000001 88.00000000000001 11.99999999999999
  endloop
endfacet
facet normal 4.586362333534625e-36 4.559730161347935e-33 1.0
  outer loop
    vertex 70.0 89.00000000000001 11.99999999999999
    vertex 69.00000000000001 88.00000000000001 11.99999999999999
    vertex 70.0 -9.122361633523338e-17 11.99999999999999
  endloop
endfacet
facet normal 0.0 0.0 1.0
  outer loop
    vertex 40.00000000000001 -9.093935021090175e-17 7.9999999999999964
    vertex 30.0 0.9999999999999996 7.9999999999999964
    vertex 30.0 -9.151608944792473e-17 7.9999999999999964
  endloop
endfacet
facet normal 0.0 0.0 1.0
  outer loop
    vertex 30.0 0.9999999999999996 7.9999999999999964
    vertex 40.00000000000001 -9.093935021090175e-17 7.9999999999999964
    vertex 40.00000000000001 0.9999999999999996 7.9999999999999964
  endloop
endfacet
facet normal -1.0 0.0 -0.0
  outer loop
    vertex 40.00000000000001 0.9999999999999996 11.99999999999999
    vertex 40.00000000000001 -9.093935021090175e-17 7.9999999999999964
    vertex 40.00000000000001 -9.093935021090175e-17 11.99999999999999
  endloop
endfacet
facet normal -1.0 0.0 -0.0
  outer loop
    vertex 40.00000000000001 -9.093935021090175e-17 7.9999999999999964
    vertex 40.00000000000001 0.9999999999999996 11.99999999999999
    vertex 40.00000000000001 0.9999999999999996 7.9999999999999964
  endloop
endfacet
facet normal 1.0 0.0 0.0
  outer loop
    vertex 30.0 0.9999999999999996 7.9999999999999964
    vertex 30.0 -9.151608944792473e-17 11.99999999999999
    vertex 30.0 -9.151608944792473e-17 7.9999999999999964
  endloop
endfacet
facet normal 1.0 0.0 0.0
  outer loop
    vertex 30.0 -9.151608944792473e-17 11.99999999999999
    vertex 30.0 0.9999999999999996 7.9999999999999964
    vertex 30.0 0.9999999999999996 11.99999999999999
  endloop
endfacet
facet normal 1.1942727452833166e-16 -3.8128288247785186e-17 1.0
  outer loop
    vertex 69.00000000000001 6.999999999999998 1.000000000000002
    vertex 63.00000000000001 82.00000000000001 1.000000000000002
    vertex 63.00000000000001 6.999999999999998 1.000000000000002
  endloop
endfacet
facet normal 1.1942727452833166e-16 -3.8128288247785186e-17 1.0
  outer loop
    vertex 63.00000000000001 82.00000000000001 1.000000000000002
    vertex 69.00000000000001 6.999999999999998 1.000000000000002
    vertex 69.00000000000001 82.00000000000001 1.000000000000002
  endloop
endfacet
facet normal 1.1942727452833166e-16 -3.8128288247785186e-17 1.0
  outer loop
    vertex 0.999999999999999 6.999999999999998 1.0000000000000044
    vertex 6.000000000000001 82.00000000000001 1.0000000000000122
    vertex 0.9999999999999974 82.00000000000001 1.0000000000000122
  endloop
endfacet
facet normal 1.1942727452833166e-16 -3.8128288247785186e-17 1.0
  outer loop
    vertex 6.000000000000001 82.00000000000001 1.0000000000000122
    vertex 0.999999999999999 6.999999999999998 1.0000000000000044
    vertex 6.000000000000001 6.999999999999998 1.0000000000000044
  endloop
endfacet
facet normal 1.1942727452833166e-16 -3.8128288247785186e-17 1.0
  outer loop
    vertex 6.000000000000001 82.00000000000001 1.0000000000000122
    vertex 6.000000000000001 6.999999999999998 1.0000000000000044
    vertex 6.000000000000002 0.9999999999999996 0.9999999999999999
  endloop
endfacet
facet normal 1.1942727452833166e-16 -3.8128288247785186e-17 1.0
  outer loop
    vertex 6.000000000000001 82.00000000000001 1.0000000000000122
    vertex 6.000000000000002 0.9999999999999996 0.9999999999999999
    vertex 6.000000000000002 88.00000000000001 1.0000000000000122
  endloop
endfacet
facet normal 1.1942727452833166e-16 -3.8128288247785186e-17 1.0
  outer loop
    vertex 6.000000000000002 88.00000000000001 1.0000000000000122
    vertex 6.000000000000002 0.9999999999999996 0.9999999999999999
    vertex 63.00000000000001 0.9999999999999996 0.9999999999999999
  endloop
endfacet
facet normal 1.1942727452833166e-16 -3.8128288247785186e-17 1.0
  outer loop
    vertex 6.000000000000002 88.00000000000001 1.0000000000000122
    vertex 63.00000000000001 0.9999999999999996 0.9999999999999999
    vertex 49.00000000000001 83.0 1.0000000000000027
  endloop
endfacet
facet normal 1.1942727452833166e-16 -3.8128288247785186e-17 1.0
  outer loop
    vertex 49.00000000000001 83.0 1.0000000000000027
    vertex 63.00000000000001 0.9999999999999996 0.9999999999999999
    vertex 51.00000000000001 83.0 1.0000000000000027
  endloop
endfacet
facet normal 1.1942727452833166e-16 -3.8128288247785186e-17 1.0
  outer loop
    vertex 51.00000000000001 83.0 1.0000000000000027
    vertex 63.00000000000001 0.9999999999999996 0.9999999999999999
    vertex 51.00000000000001 88.00000000000001 1.0000000000000027
  endloop
endfacet
facet normal 1.1942727452833166e-16 -3.8128288247785186e-17 1.0
  outer loop
    vertex 51.00000000000001 88.00000000000001 1.0000000000000027
    vertex 63.00000000000001 0.9999999999999996 0.9999999999999999
    vertex 53.00000000000001 81.00000000000001 1.000000000000002
  endloop
endfacet
facet normal 1.1942727452833166e-16 -3.8128288247785186e-17 1.0
  outer loop
    vertex 53.00000000000001 81.00000000000001 1.000000000000002
    vertex 63.00000000000001 0.9999999999999996 0.9999999999999999
    vertex 61.0 81.00000000000001 1.000000000000002
  endloop
endfacet
facet normal 1.1942727452833166e-16 -3.8128288247785186e-17 1.0
  outer loop
    vertex 61.0 81.00000000000001 1.000000000000002
    vertex 63.00000000000001 0.9999999999999996 0.9999999999999999
    vertex 61.0 83.0 1.0000000000000016
  endloop
endfacet
facet normal 1.1942727452833166e-16 -3.8128288247785186e-17 1.0
  outer loop
    vertex 61.0 83.0 1.0000000000000016
    vertex 63.00000000000001 0.9999999999999996 0.9999999999999999
    vertex 61.000000000000014 88.00000000000001 1.0000000000000004
  endloop
endfacet
facet normal 1.1942727452833166e-16 -3.8128288247785186e-17 1.0
  outer loop
    vertex 61.000000000000014 88.00000000000001 1.0000000000000004
    vertex 63.00000000000001 0.9999999999999996 0.9999999999999999
    vertex 63.00000000000001 88.00000000000001 0.9999999999999999
  endloop
endfacet
facet normal 1.1942727452833166e-16 -3.8128288247785186e-17 1.0
  outer loop
    vertex 63.00000000000001 88.00000000000001 0.9999999999999999
    vertex 63.00000000000001 0.9999999999999996 0.9999999999999999
    vertex 63.00000000000001 6.999999999999998 1.000000000000002
  endloop
endfacet
facet normal 1.1942727452833166e-16 -3.8128288247785186e-17 1.0
  outer loop
    vertex 63.00000000000001 88.00000000000001 0.9999999999999999
    vertex 63.00000000000001 6.999999999999998 1.000000000000002
    vertex 63.00000000000001 82.00000000000001 1.000000000000002
  endloop
endfacet
facet normal 1.1942727452833166e-16 -3.8128288247785186e-17 1.0
  outer loop
    vertex 53.00000000000001 81.00000000000001 1.000000000000002
    vertex 53.00000000000001 88.00000000000001 1.000000000000002
    vertex 51.00000000000001 88.00000000000001 1.0000000000000027
  endloop
endfacet
facet normal 1.1942727452833166e-16 -3.8128288247785186e-17 1.0
  outer loop
    vertex 53.00000000000001 88.00000000000001 1.000000000000002
    vertex 53.00000000000001 81.00000000000001 1.000000000000002
    vertex 53.00000000000001 83.00000000000001 1.0000000000000022
  endloop
endfacet
facet normal 1.1942727452833166e-16 -3.8128288247785186e-17 1.0
  outer loop
    vertex 53.00000000000001 88.00000000000001 1.000000000000002
    vertex 53.00000000000001 83.00000000000001 1.0000000000000022
    vertex 61.0 83.0 1.0000000000000016
  endloop
endfacet
facet normal 1.1942727452833166e-16 -3.8128288247785186e-17 1.0
  outer loop
    vertex 53.00000000000001 88.00000000000001 1.000000000000002
    vertex 61.0 83.0 1.0000000000000016
    vertex 61.000000000000014 88.00000000000001 1.0000000000000004
  endloop
endfacet
facet normal 1.1942727452833166e-16 -3.8128288247785186e-17 1.0
  outer loop
    vertex 49.00000000000001 88.00000000000001 1.0000000000000027
    vertex 6.000000000000002 88.00000000000001 1.0000000000000122
    vertex 49.00000000000001 83.0 1.0000000000000027
  endloop
endfacet
facet normal 4.406197628981098e-17 8.81239525796212e-17 1.0
  outer loop
    vertex 61.0 81.00000000000001 2.0000000000000013
    vertex 53.00000000000001 83.00000000000001 2.0000000000000013
    vertex 53.00000000000001 81.00000000000001 2.0000000000000013
  endloop
endfacet
facet normal 4.406197628981098e-17 8.81239525796212e-17 1.0
  outer loop
    vertex 53.00000000000001 83.00000000000001 2.0000000000000013
    vertex 61.0 81.00000000000001 2.0000000000000013
    vertex 61.0 83.0 2.0000000000000004
  endloop
endfacet
facet normal 1.0 -1.1648746527383189e-32 -4.406197628981098e-17
  outer loop
    vertex 61.0 83.0 1.0000000000000016
    vertex 61.0 81.00000000000001 2.0000000000000013
    vertex 61.0 81.00000000000001 1.000000000000002
  endloop
endfacet
facet normal 1.0 -1.1648746527383189e-32 -4.406197628981098e-17
  outer loop
    vertex 61.0 81.00000000000001 2.0000000000000013
    vertex 61.0 83.0 1.0000000000000016
    vertex 61.0 83.0 2.0000000000000004
  endloop
endfacet
facet normal 1.4099832412739493e-15 1.0 -8.812395257962127e-17
  outer loop
    vertex 53.00000000000001 83.00000000000001 1.0000000000000022
    vertex 61.0 83.0 2.0000000000000004
    vertex 61.0 83.0 1.0000000000000016
  endloop
endfacet
facet normal 1.4099832412739493e-15 1.0 -8.812395257962127e-17
  outer loop
    vertex 61.0 83.0 2.0000000000000004
    vertex 53.00000000000001 83.00000000000001 1.0000000000000022
    vertex 53.00000000000001 83.00000000000001 2.0000000000000013
  endloop
endfacet
facet normal -1.0 -3.882915509127708e-33 4.406197628981098e-17
  outer loop
    vertex 53.00000000000001 83.00000000000001 2.0000000000000013
    vertex 53.00000000000001 81.00000000000001 1.000000000000002
    vertex 53.00000000000001 81.00000000000001 2.0000000000000013
  endloop
endfacet
facet normal -1.0 -3.882915509127708e-33 4.406197628981098e-17
  outer loop
    vertex 53.00000000000001 81.00000000000001 1.000000000000002
    vertex 53.00000000000001 83.00000000000001 2.0000000000000013
    vertex 53.00000000000001 83.00000000000001 1.0000000000000022
  endloop
endfacet
facet normal 0.0 -1.0 8.81239525796212e-17
  outer loop
    vertex 61.0 81.00000000000001 2.0000000000000013
    vertex 53.00000000000001 81.00000000000001 1.000000000000002
    vertex 61.0 81.00000000000001 1.000000000000002
  endloop
endfacet
facet normal 0.0 -1.0 8.81239525796212e-17
  outer loop
    vertex 53.00000000000001 81.00000000000001 1.000000000000002
    vertex 61.0 81.00000000000001 2.0000000000000013
    vertex 53.00000000000001 81.00000000000001 2.0000000000000013
  endloop
endfacet
endsolid EBadge2-back
