solid EBadge4-front
facet normal 0.0 0.0 -1.0
  outer loop
    vertex 0.0 89.00000000000001 0.0
    vertex 6.000000000000002 88.00000000000001 0.0
    vertex 0.0 0.0 0.0
  endloop
endfacet
facet normal 0.0 0.0 -1.0
  outer loop
    vertex 6.000000000000002 88.00000000000001 0.0
    vertex 0.0 89.00000000000001 0.0
    vertex 70.0 89.00000000000001 0.0
  endloop
endfacet
facet normal 0.0 0.0 -1.0
  outer loop
    vertex 6.000000000000002 88.00000000000001 0.0
    vertex 70.0 89.00000000000001 0.0
    vertex 63.00000000000001 88.00000000000001 0.0
  endloop
endfacet
facet normal 0.0 0.0 -1.0
  outer loop
    vertex 63.00000000000001 88.00000000000001 0.0
    vertex 70.0 89.00000000000001 0.0
    vertex 63.00000000000001 0.9999999999999996 0.0
  endloop
endfacet
facet normal 0.0 0.0 -1.0
  outer loop
    vertex 0.0 0.0 0.0
    vertex 6.000000000000002 0.9999999999999996 0.0
    vertex 70.0 0.0 0.0
  endloop
endfacet
facet normal 0.0 0.0 -1.0
  outer loop
    vertex 6.000000000000002 0.9999999999999996 0.0
    vertex 0.0 0.0 0.0
    vertex 6.000000000000002 88.00000000000001 0.0
  endloop
endfacet
facet normal 0.0 0.0 -1.0
  outer loop
    vertex 70.0 0.0 0.0
    vertex 6.000000000000002 0.9999999999999996 0.0
    vertex 63.00000000000001 0.9999999999999996 0.0
  endloop
endfacet
facet normal 0.0 0.0 -1.0
  outer loop
    vertex 70.0 0.0 0.0
    vertex 63.00000000000001 0.9999999999999996 0.0
    vertex 70.0 89.00000000000001 0.0
  endloop
endfacet
facet normal 5.359915832116539e-19 -1.0 -5.4339704846413276e-18
  outer loop
    vertex 70.0 0.0 0.0
    vertex 53.000000000000014 0.0 5.499999999999996
    vertex 0.0 0.0 0.0
  endloop
endfacet
facet normal 5.359915832116539e-19 -1.0 -5.4339704846413276e-18
  outer loop
    vertex 53.000000000000014 0.0 5.499999999999996
    vertex 70.0 0.0 0.0
    vertex 70.0 -4.4377574348147174e-17 10.999999999999991
  endloop
endfacet
facet normal 5.359915832116539e-19 -1.0 -5.4339704846413276e-18
  outer loop
    vertex 53.000000000000014 0.0 5.499999999999996
    vertex 70.0 -4.4377574348147174e-17 10.999999999999991
    vertex 53.000000000000014 4.645966963783383e-16 8.499999999999996
  endloop
endfacet
facet normal 5.359915832116539e-19 -1.0 -5.4339704846413276e-18
  outer loop
    vertex 53.000000000000014 4.645966963783383e-16 8.499999999999996
    vertex 70.0 -4.4377574348147174e-17 10.999999999999991
    vertex 39.99999999999999 4.645966963783383e-16 8.499999999999996
  endloop
endfacet
facet normal 5.359915832116539e-19 -1.0 -5.4339704846413276e-18
  outer loop
    vertex 0.0 0.0 0.0
    vertex 39.99999999999999 0.0 5.499999999999996
    vertex 1.0718171910792173e-17 -4.4377574348147174e-17 10.999999999999991
  endloop
endfacet
facet normal 5.359915832116539e-19 -1.0 -5.4339704846413276e-18
  outer loop
    vertex 39.99999999999999 0.0 5.499999999999996
    vertex 0.0 0.0 0.0
    vertex 53.000000000000014 0.0 5.499999999999996
  endloop
endfacet
facet normal 5.359915832116539e-19 -1.0 -5.4339704846413276e-18
  outer loop
    vertex 1.0718171910792173e-17 -4.4377574348147174e-17 10.999999999999991
    vertex 39.99999999999999 0.0 5.499999999999996
    vertex 39.99999999999999 4.645966963783383e-16 8.499999999999996
  endloop
endfacet
facet normal 5.359915832116539e-19 -1.0 -5.4339704846413276e-18
  outer loop
    vertex 1.0718171910792173e-17 -4.4377574348147174e-17 10.999999999999991
    vertex 39.99999999999999 4.645966963783383e-16 8.499999999999996
    vertex 70.0 -4.4377574348147174e-17 10.999999999999991
  endloop
endfacet
facet normal -1.0 0.0 0.0
  outer loop
    vertex 1.0718171910792173e-17 89.00000000000001 10.999999999999991
    vertex 0.0 0.0 0.0
    vertex 1.0718171910792173e-17 -4.4377574348147174e-17 10.999999999999991
  endloop
endfacet
facet normal -1.0 0.0 0.0
  outer loop
    vertex 0.0 0.0 0.0
    vertex 1.0718171910792173e-17 89.00000000000001 10.999999999999991
    vertex 0.0 89.00000000000001 0.0
  endloop
endfacet
facet normal -0.0 1.0 -0.0
  outer loop
    vertex 1.0718171910792173e-17 89.00000000000001 10.999999999999991
    vertex 70.0 89.00000000000001 0.0
    vertex 0.0 89.00000000000001 0.0
  endloop
endfacet
facet normal -0.0 1.0 -0.0
  outer loop
    vertex 70.0 89.00000000000001 0.0
    vertex 1.0718171910792173e-17 89.00000000000001 10.999999999999991
    vertex 70.0 89.00000000000001 10.999999999999991
  endloop
endfacet
facet normal -0.0 1.0 -0.0
  outer loop
    vertex 70.0 89.00000000000001 10.999999999999991
    vertex 1.0718171910792173e-17 89.00000000000001 10.999999999999991
    vertex 34.50000000000001 89.00000000000001 10.999999999999991
  endloop
endfacet
facet normal 1.0 0.0 0.0
  outer loop
    vertex 70.0 89.00000000000001 0.0
    vertex 70.0 65.0 6.999999999999998
    vertex 70.0 0.0 0.0
  endloop
endfacet
facet normal 1.0 0.0 0.0
  outer loop
    vertex 70.0 65.0 6.999999999999998
    vertex 70.0 89.00000000000001 0.0
    vertex 70.0 77.0 7.000000000000001
  endloop
endfacet
facet normal 1.0 0.0 0.0
  outer loop
    vertex 70.0 77.0 7.000000000000001
    vertex 70.0 89.00000000000001 0.0
    vertex 70.0 77.0 10.999999999999988
  endloop
endfacet
facet normal 1.0 0.0 0.0
  outer loop
    vertex 70.0 77.0 10.999999999999988
    vertex 70.0 89.00000000000001 0.0
    vertex 70.0 89.00000000000001 10.999999999999991
  endloop
endfacet
facet normal 1.0 0.0 0.0
  outer loop
    vertex 70.0 0.0 0.0
    vertex 70.0 65.0 10.999999999999988
    vertex 70.0 -4.4377574348147174e-17 10.999999999999991
  endloop
endfacet
facet normal 1.0 0.0 0.0
  outer loop
    vertex 70.0 65.0 10.999999999999988
    vertex 70.0 0.0 0.0
    vertex 70.0 65.0 6.999999999999998
  endloop
endfacet
facet normal 1.0 -0.0 -0.0
  outer loop
    vertex 6.000000000000002 88.00000000000001 0.0
    vertex 6.000000000000002 0.9999999999999996 3.9999999999999996
    vertex 6.000000000000002 0.9999999999999996 0.0
  endloop
endfacet
facet normal 1.0 -0.0 -0.0
  outer loop
    vertex 6.000000000000002 0.9999999999999996 3.9999999999999996
    vertex 6.000000000000002 88.00000000000001 0.0
    vertex 6.000000000000001 6.999999999999998 3.9999999999999996
  endloop
endfacet
facet normal 1.0 -0.0 -0.0
  outer loop
    vertex 6.000000000000001 6.999999999999998 3.9999999999999996
    vertex 6.000000000000002 88.00000000000001 0.0
    vertex 6.000000000000001 6.999999999999998 5.499999999999996
  endloop
endfacet
facet normal 1.0 -0.0 -0.0
  outer loop
    vertex 6.000000000000001 6.999999999999998 5.499999999999996
    vertex 6.000000000000002 88.00000000000001 0.0
    vertex 6.000000000000001 82.00000000000001 3.9999999999999996
  endloop
endfacet
facet normal 1.0 -0.0 -0.0
  outer loop
    vertex 6.000000000000001 82.00000000000001 3.9999999999999996
    vertex 6.000000000000002 88.00000000000001 0.0
    vertex 6.000000000000002 88.00000000000001 3.9999999999999996
  endloop
endfacet
facet normal 1.0 -0.0 -0.0
  outer loop
    vertex 6.000000000000001 82.00000000000001 5.499999999999996
    vertex 6.000000000000001 6.999999999999998 5.499999999999996
    vertex 6.000000000000001 82.00000000000001 3.9999999999999996
  endloop
endfacet
facet normal -3.895783404228197e-34 1.0 -5.098233974643641e-33
  outer loop
    vertex 6.000000000000002 0.9999999999999996 3.9999999999999996
    vertex 63.00000000000001 0.9999999999999996 0.0
    vertex 6.000000000000002 0.9999999999999996 0.0
  endloop
endfacet
facet normal -3.895783404228197e-34 1.0 -5.098233974643641e-33
  outer loop
    vertex 63.00000000000001 0.9999999999999996 0.0
    vertex 6.000000000000002 0.9999999999999996 3.9999999999999996
    vertex 63.00000000000001 0.9999999999999996 3.9999999999999996
  endloop
endfacet
facet normal -3.895783404228197e-34 1.0 -5.098233974643641e-33
  outer loop
    vertex 63.00000000000001 0.9999999999999996 3.9999999999999996
    vertex 6.000000000000002 0.9999999999999996 3.9999999999999996
    vertex 39.99999999999999 0.9999999999999996 5.499999999999996
  endloop
endfacet
facet normal -3.895783404228197e-34 1.0 -5.098233974643641e-33
  outer loop
    vertex 39.99999999999999 0.9999999999999996 5.499999999999996
    vertex 6.000000000000002 0.9999999999999996 3.9999999999999996
    vertex 6.000000000000002 0.9999999999999996 10.999999999999991
  endloop
endfacet
facet normal -3.895783404228197e-34 1.0 -5.098233974643641e-33
  outer loop
    vertex 39.99999999999999 0.9999999999999996 5.499999999999996
    vertex 6.000000000000002 0.9999999999999996 10.999999999999991
    vertex 39.99999999999999 0.9999999999999996 8.499999999999996
  endloop
endfacet
facet normal -3.895783404228197e-34 1.0 -5.098233974643641e-33
  outer loop
    vertex 63.00000000000001 0.9999999999999996 3.9999999999999996
    vertex 53.000000000000014 0.9999999999999996 5.499999999999996
    vertex 63.00000000000001 0.9999999999999996 10.999999999999991
  endloop
endfacet
facet normal -3.895783404228197e-34 1.0 -5.098233974643641e-33
  outer loop
    vertex 53.000000000000014 0.9999999999999996 5.499999999999996
    vertex 63.00000000000001 0.9999999999999996 3.9999999999999996
    vertex 39.99999999999999 0.9999999999999996 5.499999999999996
  endloop
endfacet
facet normal -3.895783404228197e-34 1.0 -5.098233974643641e-33
  outer loop
    vertex 63.00000000000001 0.9999999999999996 10.999999999999991
    vertex 53.000000000000014 0.9999999999999996 5.499999999999996
    vertex 53.000000000000014 0.9999999999999996 8.499999999999996
  endloop
endfacet
facet normal -3.895783404228197e-34 1.0 -5.098233974643641e-33
  outer loop
    vertex 63.00000000000001 0.9999999999999996 10.999999999999991
    vertex 53.000000000000014 0.9999999999999996 8.499999999999996
    vertex 39.99999999999999 0.9999999999999996 8.499999999999996
  endloop
endfacet
facet normal -3.895783404228197e-34 1.0 -5.098233974643641e-33
  outer loop
    vertex 63.00000000000001 0.9999999999999996 10.999999999999991
    vertex 39.99999999999999 0.9999999999999996 8.499999999999996
    vertex 6.000000000000002 0.9999999999999996 10.999999999999991
  endloop
endfacet
facet normal -1.0 0.0 0.0
  outer loop
    vertex 63.00000000000001 60.0 5.499999999999994
    vertex 63.00000000000001 6.999999999999998 3.9999999999999996
    vertex 63.00000000000001 6.999999999999998 5.499999999999994
  endloop
endfacet
facet normal -1.0 0.0 0.0
  outer loop
    vertex 63.00000000000001 65.0 10.999999999999963
    vertex 63.00000000000001 60.0 5.499999999999994
    vertex 63.00000000000001 60.0 10.999999999999963
  endloop
endfacet
facet normal -1.0 0.0 0.0
  outer loop
    vertex 63.00000000000001 81.50000000000001 10.999999999999995
    vertex 63.00000000000001 77.0 6.999999999999991
    vertex 63.00000000000001 77.0 10.999999999999986
  endloop
endfacet
facet normal -1.0 0.0 0.0
  outer loop
    vertex 63.00000000000001 6.999999999999998 3.9999999999999996
    vertex 63.00000000000001 0.9999999999999996 0.0
    vertex 63.00000000000001 0.9999999999999996 3.9999999999999996
  endloop
endfacet
facet normal -1.0 0.0 0.0
  outer loop
    vertex 63.00000000000001 0.9999999999999996 0.0
    vertex 63.00000000000001 6.999999999999998 3.9999999999999996
    vertex 63.00000000000001 88.00000000000001 0.0
  endloop
endfacet
facet normal -1.0 0.0 0.0
  outer loop
    vertex 63.00000000000001 88.00000000000001 0.0
    vertex 63.00000000000001 6.999999999999998 3.9999999999999996
    vertex 63.00000000000001 60.0 5.499999999999994
  endloop
endfacet
facet normal -1.0 0.0 0.0
  outer loop
    vertex 63.00000000000001 88.00000000000001 0.0
    vertex 63.00000000000001 60.0 5.499999999999994
    vertex 63.00000000000001 65.0 6.999999999999991
  endloop
endfacet
facet normal -1.0 0.0 0.0
  outer loop
    vertex 63.00000000000001 65.0 6.999999999999991
    vertex 63.00000000000001 60.0 5.499999999999994
    vertex 63.00000000000001 65.0 10.999999999999963
  endloop
endfacet
facet normal -1.0 0.0 0.0
  outer loop
    vertex 63.00000000000001 88.00000000000001 0.0
    vertex 63.00000000000001 65.0 6.999999999999991
    vertex 63.00000000000001 81.50000000000001 3.9999999999999996
  endloop
endfacet
facet normal -1.0 0.0 0.0
  outer loop
    vertex 63.00000000000001 81.50000000000001 3.9999999999999996
    vertex 63.00000000000001 65.0 6.999999999999991
    vertex 63.00000000000001 77.0 6.999999999999991
  endloop
endfacet
facet normal -1.0 0.0 0.0
  outer loop
    vertex 63.00000000000001 81.50000000000001 3.9999999999999996
    vertex 63.00000000000001 77.0 6.999999999999991
    vertex 63.00000000000001 81.50000000000001 10.999999999999995
  endloop
endfacet
facet normal -1.0 0.0 0.0
  outer loop
    vertex 63.00000000000001 88.00000000000001 0.0
    vertex 63.00000000000001 81.50000000000001 3.9999999999999996
    vertex 63.00000000000001 88.00000000000001 3.9999999999999996
  endloop
endfacet
facet normal -0.0 -0.0 1.0
  outer loop
    vertex 0.9999999999999974 82.00000000000001 3.9999999999999996
    vertex 6.000000000000002 88.00000000000001 3.9999999999999996
    vertex 0.9999999999999966 88.0 3.9999999999999996
  endloop
endfacet
facet normal -0.0 -0.0 1.0
  outer loop
    vertex 6.000000000000002 88.00000000000001 3.9999999999999996
    vertex 0.9999999999999974 82.00000000000001 3.9999999999999996
    vertex 6.000000000000001 82.00000000000001 3.9999999999999996
  endloop
endfacet
facet normal 0.0 -1.0 0.0
  outer loop
    vertex 63.00000000000001 88.00000000000001 3.9999999999999996
    vertex 6.000000000000002 88.00000000000001 0.0
    vertex 63.00000000000001 88.00000000000001 0.0
  endloop
endfacet
facet normal 0.0 -1.0 0.0
  outer loop
    vertex 6.000000000000002 88.00000000000001 0.0
    vertex 63.00000000000001 88.00000000000001 3.9999999999999996
    vertex 6.000000000000002 88.00000000000001 3.9999999999999996
  endloop
endfacet
facet normal 0.0 -1.0 0.0
  outer loop
    vertex 6.000000000000002 88.00000000000001 3.9999999999999996
    vertex 63.00000000000001 88.00000000000001 3.9999999999999996
    vertex 63.00000000000001 88.00000000000001 10.999999999999991
  endloop
endfacet
facet normal 0.0 -1.0 0.0
  outer loop
    vertex 6.000000000000002 88.00000000000001 3.9999999999999996
    vertex 63.00000000000001 88.00000000000001 10.999999999999991
    vertex 6.000000000000002 88.00000000000001 10.999999999999991
  endloop
endfacet
facet normal 0.0 -1.0 0.0
  outer loop
    vertex 6.000000000000002 88.00000000000001 10.999999999999991
    vertex 63.00000000000001 88.00000000000001 10.999999999999991
    vertex 34.50000000000001 88.00000000000001 10.999999999999991
  endloop
endfacet
facet normal -0.0 -0.0 1.0
  outer loop
    vertex 69.00000000000001 81.50000000000001 3.9999999999999996
    vertex 63.00000000000001 88.00000000000001 3.9999999999999996
    vertex 63.00000000000001 81.50000000000001 3.9999999999999996
  endloop
endfacet
facet normal -0.0 -0.0 1.0
  outer loop
    vertex 63.00000000000001 88.00000000000001 3.9999999999999996
    vertex 69.00000000000001 81.50000000000001 3.9999999999999996
    vertex 69.00000000000001 88.00000000000001 3.9999999999999996
  endloop
endfacet
facet normal -0.0 -0.0 1.0
  outer loop
    vertex 53.000000000000014 0.0 5.499999999999996
    vertex 39.99999999999999 0.9999999999999996 5.499999999999996
    vertex 39.99999999999999 0.0 5.499999999999996
  endloop
endfacet
facet normal -0.0 -0.0 1.0
  outer loop
    vertex 39.99999999999999 0.9999999999999996 5.499999999999996
    vertex 53.000000000000014 0.0 5.499999999999996
    vertex 53.000000000000014 0.9999999999999996 5.499999999999996
  endloop
endfacet
facet normal 0.0 1.0 0.0
  outer loop
    vertex 1.0 0.9999999999999996 10.999999999999991
    vertex 6.000000000000002 0.9999999999999996 3.9999999999999996
    vertex 1.0 0.9999999999999996 3.9999999999999996
  endloop
endfacet
facet normal 0.0 1.0 0.0
  outer loop
    vertex 6.000000000000002 0.9999999999999996 3.9999999999999996
    vertex 1.0 0.9999999999999996 10.999999999999991
    vertex 6.000000000000002 0.9999999999999996 10.999999999999991
  endloop
endfacet
facet normal 1.0 1.4687325429936992e-16 2.1571752828482497e-33
  outer loop
    vertex 0.9999999999999966 88.0 3.9999999999999996
    vertex 0.9999999999999974 82.00000000000001 5.499999999999996
    vertex 0.9999999999999974 82.00000000000001 3.9999999999999996
  endloop
endfacet
facet normal 1.0 1.4687325429936992e-16 2.1571752828482497e-33
  outer loop
    vertex 0.9999999999999974 82.00000000000001 5.499999999999996
    vertex 0.9999999999999966 88.0 3.9999999999999996
    vertex 0.9999999999999974 82.00000000000001 10.999999999999991
  endloop
endfacet
facet normal 1.0 1.4687325429936992e-16 2.1571752828482497e-33
  outer loop
    vertex 0.9999999999999974 82.00000000000001 10.999999999999991
    vertex 0.9999999999999966 88.0 3.9999999999999996
    vertex 0.9999999999999966 88.0 10.999999999999991
  endloop
endfacet
facet normal 2.2559731860383158e-15 -1.0 0.0
  outer loop
    vertex 6.000000000000002 88.00000000000001 10.999999999999991
    vertex 0.9999999999999966 88.0 3.9999999999999996
    vertex 6.000000000000002 88.00000000000001 3.9999999999999996
  endloop
endfacet
facet normal 2.2559731860383158e-15 -1.0 0.0
  outer loop
    vertex 0.9999999999999966 88.0 3.9999999999999996
    vertex 6.000000000000002 88.00000000000001 10.999999999999991
    vertex 0.9999999999999966 88.0 10.999999999999991
  endloop
endfacet
facet normal 0.0 -1.0 0.0
  outer loop
    vertex 69.00000000000001 88.00000000000001 10.999999999999991
    vertex 63.00000000000001 88.00000000000001 3.9999999999999996
    vertex 69.00000000000001 88.00000000000001 3.9999999999999996
  endloop
endfacet
facet normal 0.0 -1.0 0.0
  outer loop
    vertex 63.00000000000001 88.00000000000001 3.9999999999999996
    vertex 69.00000000000001 88.00000000000001 10.999999999999991
    vertex 63.00000000000001 88.00000000000001 10.999999999999991
  endloop
endfacet
facet normal -1.0 0.0 0.0
  outer loop
    vertex 69.00000000000001 6.999999999999998 10.999999999999986
    vertex 69.00000000000001 0.9999999999999981 3.9999999999999996
    vertex 69.00000000000001 0.9999999999999981 10.999999999999991
  endloop
endfacet
facet normal -1.0 0.0 0.0
  outer loop
    vertex 69.00000000000001 0.9999999999999981 3.9999999999999996
    vertex 69.00000000000001 6.999999999999998 10.999999999999986
    vertex 69.00000000000001 6.999999999999998 3.9999999999999996
  endloop
endfacet
facet normal -1.0 0.0 0.0
  outer loop
    vertex 69.00000000000001 6.999999999999998 3.9999999999999996
    vertex 69.00000000000001 6.999999999999998 10.999999999999986
    vertex 69.00000000000001 6.999999999999998 5.499999999999994
  endloop
endfacet
facet normal 2.3499720687899147e-16 1.0 0.0
  outer loop
    vertex 63.00000000000001 0.9999999999999996 10.999999999999991
    vertex 69.00000000000001 0.9999999999999981 3.9999999999999996
    vertex 63.00000000000001 0.9999999999999996 3.9999999999999996
  endloop
endfacet
facet normal 2.3499720687899147e-16 1.0 0.0
  outer loop
    vertex 69.00000000000001 0.9999999999999981 3.9999999999999996
    vertex 63.00000000000001 0.9999999999999996 10.999999999999991
    vertex 69.00000000000001 0.9999999999999981 10.999999999999991
  endloop
endfacet
facet normal -0.0 -0.0 1.0
  outer loop
    vertex 69.00000000000001 0.9999999999999981 3.9999999999999996
    vertex 63.00000000000001 6.999999999999998 3.9999999999999996
    vertex 63.00000000000001 0.9999999999999996 3.9999999999999996
  endloop
endfacet
facet normal -0.0 -0.0 1.0
  outer loop
    vertex 63.00000000000001 6.999999999999998 3.9999999999999996
    vertex 69.00000000000001 0.9999999999999981 3.9999999999999996
    vertex 69.00000000000001 6.999999999999998 3.9999999999999996
  endloop
endfacet
facet normal -0.0 -0.0 1.0
  outer loop
    vertex 1.0 0.9999999999999996 3.9999999999999996
    vertex 6.000000000000001 6.999999999999998 3.9999999999999996
    vertex 0.999999999999999 6.999999999999998 3.9999999999999996
  endloop
endfacet
facet normal -0.0 -0.0 1.0
  outer loop
    vertex 6.000000000000001 6.999999999999998 3.9999999999999996
    vertex 1.0 0.9999999999999996 3.9999999999999996
    vertex 6.000000000000002 0.9999999999999996 3.9999999999999996
  endloop
endfacet
facet normal -0.0 -0.0 1.0
  outer loop
    vertex 0.999999999999999 6.999999999999998 5.499999999999996
    vertex 6.000000000000001 82.00000000000001 5.499999999999996
    vertex 0.9999999999999974 82.00000000000001 5.499999999999996
  endloop
endfacet
facet normal -0.0 -0.0 1.0
  outer loop
    vertex 6.000000000000001 82.00000000000001 5.499999999999996
    vertex 0.999999999999999 6.999999999999998 5.499999999999996
    vertex 6.000000000000001 6.999999999999998 5.499999999999996
  endloop
endfacet
facet normal 0.0 -1.0 0.0
  outer loop
    vertex 6.000000000000001 6.999999999999998 5.499999999999996
    vertex 0.999999999999999 6.999999999999998 3.9999999999999996
    vertex 6.000000000000001 6.999999999999998 3.9999999999999996
  endloop
endfacet
facet normal 0.0 -1.0 0.0
  outer loop
    vertex 0.999999999999999 6.999999999999998 3.9999999999999996
    vertex 6.000000000000001 6.999999999999998 5.499999999999996
    vertex 0.999999999999999 6.999999999999998 5.499999999999996
  endloop
endfacet
facet normal -0.0 1.0 -0.0
  outer loop
    vertex 0.9999999999999974 82.00000000000001 5.499999999999996
    vertex 6.000000000000001 82.00000000000001 3.9999999999999996
    vertex 0.9999999999999974 82.00000000000001 3.9999999999999996
  endloop
endfacet
facet normal -0.0 1.0 -0.0
  outer loop
    vertex 6.000000000000001 82.00000000000001 3.9999999999999996
    vertex 0.9999999999999974 82.00000000000001 5.499999999999996
    vertex 6.000000000000001 82.00000000000001 5.499999999999996
  endloop
endfacet
facet normal 1.0 1.7624790515924362e-16 -2.5886103394185177e-33
  outer loop
    vertex 0.999999999999999 6.999999999999998 3.9999999999999996
    vertex 1.0 0.9999999999999996 10.999999999999991
    vertex 1.0 0.9999999999999996 3.9999999999999996
  endloop
endfacet
facet normal 1.0 1.7624790515924362e-16 -2.5886103394185177e-33
  outer loop
    vertex 1.0 0.9999999999999996 10.999999999999991
    vertex 0.999999999999999 6.999999999999998 3.9999999999999996
    vertex 0.999999999999999 6.999999999999998 10.999999999999991
  endloop
endfacet
facet normal 1.0 1.7624790515924362e-16 -2.5886103394185177e-33
  outer loop
    vertex 0.999999999999999 6.999999999999998 10.999999999999991
    vertex 0.999999999999999 6.999999999999998 3.9999999999999996
    vertex 0.999999999999999 6.999999999999998 5.499999999999996
  endloop
endfacet
facet normal 0.0 -1.0 0.0
  outer loop
    vertex 69.00000000000001 6.999999999999998 5.499999999999994
    vertex 63.00000000000001 6.999999999999998 3.9999999999999996
    vertex 69.00000000000001 6.999999999999998 3.9999999999999996
  endloop
endfacet
facet normal 0.0 -1.0 0.0
  outer loop
    vertex 63.00000000000001 6.999999999999998 3.9999999999999996
    vertex 69.00000000000001 6.999999999999998 5.499999999999994
    vertex 63.00000000000001 6.999999999999998 5.499999999999994
  endloop
endfacet
facet normal -1.0 0.0 0.0
  outer loop
    vertex 69.00000000000001 88.00000000000001 10.999999999999991
    vertex 69.00000000000001 82.00000000000001 5.500000000000002
    vertex 69.00000000000001 82.00000000000001 10.999999999999986
  endloop
endfacet
facet normal -1.0 0.0 0.0
  outer loop
    vertex 69.00000000000001 82.00000000000001 5.500000000000002
    vertex 69.00000000000001 81.50000000000001 3.9999999999999996
    vertex 69.00000000000001 81.50000000000001 5.500000000000002
  endloop
endfacet
facet normal -1.0 0.0 0.0
  outer loop
    vertex 69.00000000000001 81.50000000000001 3.9999999999999996
    vertex 69.00000000000001 82.00000000000001 5.500000000000002
    vertex 69.00000000000001 88.00000000000001 3.9999999999999996
  endloop
endfacet
facet normal -1.0 0.0 0.0
  outer loop
    vertex 69.00000000000001 88.00000000000001 3.9999999999999996
    vertex 69.00000000000001 82.00000000000001 5.500000000000002
    vertex 69.00000000000001 88.00000000000001 10.999999999999991
  endloop
endfacet
facet normal 1.0873273275143684e-17 -3.990306477134541e-16 1.0
  outer loop
    vertex 70.0 77.0 10.999999999999988
    vertex 69.00000000000001 82.00000000000001 10.999999999999986
    vertex 69.00000000000001 77.0 10.999999999999986
  endloop
endfacet
facet normal 1.0873273275143684e-17 -3.990306477134541e-16 1.0
  outer loop
    vertex 69.00000000000001 82.00000000000001 10.999999999999986
    vertex 70.0 77.0 10.999999999999988
    vertex 69.00000000000001 88.00000000000001 10.999999999999991
  endloop
endfacet
facet normal 1.0873273275143684e-17 -3.990306477134541e-16 1.0
  outer loop
    vertex 63.00000000000001 88.00000000000001 10.999999999999991
    vertex 34.50000000000001 89.00000000000001 10.999999999999991
    vertex 34.50000000000001 88.00000000000001 10.999999999999991
  endloop
endfacet
facet normal 1.0873273275143684e-17 -3.990306477134541e-16 1.0
  outer loop
    vertex 34.50000000000001 89.00000000000001 10.999999999999991
    vertex 63.00000000000001 88.00000000000001 10.999999999999991
    vertex 70.0 89.00000000000001 10.999999999999991
  endloop
endfacet
facet normal 1.0873273275143684e-17 -3.990306477134541e-16 1.0
  outer loop
    vertex 70.0 89.00000000000001 10.999999999999991
    vertex 63.00000000000001 88.00000000000001 10.999999999999991
    vertex 69.00000000000001 88.00000000000001 10.999999999999991
  endloop
endfacet
facet normal 1.0873273275143684e-17 -3.990306477134541e-16 1.0
  outer loop
    vertex 70.0 89.00000000000001 10.999999999999991
    vertex 69.00000000000001 88.00000000000001 10.999999999999991
    vertex 70.0 77.0 10.999999999999988
  endloop
endfacet
facet normal 1.0 2.114974861910923e-17 -9.488063764152729e-18
  outer loop
    vertex 0.9999999999999974 82.00000000000001 5.499999999999996
    vertex 0.999999999999999 6.999999999999998 10.999999999999991
    vertex 0.999999999999999 6.999999999999998 5.499999999999996
  endloop
endfacet
facet normal 1.0 2.114974861910923e-17 -9.488063764152729e-18
  outer loop
    vertex 0.999999999999999 6.999999999999998 10.999999999999991
    vertex 0.9999999999999974 82.00000000000001 5.499999999999996
    vertex 0.9999999999999974 82.00000000000001 10.999999999999991
  endloop
endfacet
facet normal -1.0 0.0 0.0
  outer loop
    vertex 69.00000000000001 82.00000000000001 10.999999999999986
    vertex 69.00000000000001 77.0 6.999999999999991
    vertex 69.00000000000001 77.0 10.999999999999986
  endloop
endfacet
facet normal -1.0 0.0 0.0
  outer loop
    vertex 69.00000000000001 77.0 6.999999999999991
    vertex 69.00000000000001 82.00000000000001 10.999999999999986
    vertex 69.00000000000001 77.0 5.500000000000002
  endloop
endfacet
facet normal -1.0 0.0 0.0
  outer loop
    vertex 69.00000000000001 77.0 5.500000000000002
    vertex 69.00000000000001 82.00000000000001 10.999999999999986
    vertex 69.00000000000001 81.50000000000001 5.500000000000002
  endloop
endfacet
facet normal -1.0 0.0 0.0
  outer loop
    vertex 69.00000000000001 81.50000000000001 5.500000000000002
    vertex 69.00000000000001 82.00000000000001 10.999999999999986
    vertex 69.00000000000001 82.00000000000001 5.500000000000002
  endloop
endfacet
facet normal 1.0 -0.0 -0.0
  outer loop
    vertex 39.99999999999999 0.9999999999999996 5.499999999999996
    vertex 39.99999999999999 4.645966963783383e-16 8.499999999999996
    vertex 39.99999999999999 0.0 5.499999999999996
  endloop
endfacet
facet normal 1.0 -0.0 -0.0
  outer loop
    vertex 39.99999999999999 4.645966963783383e-16 8.499999999999996
    vertex 39.99999999999999 0.9999999999999996 5.499999999999996
    vertex 39.99999999999999 0.9999999999999996 8.499999999999996
  endloop
endfacet
facet normal -1.0 0.0 0.0
  outer loop
    vertex 53.000000000000014 4.645966963783383e-16 8.499999999999996
    vertex 53.000000000000014 0.9999999999999996 5.499999999999996
    vertex 53.000000000000014 0.0 5.499999999999996
  endloop
endfacet
facet normal -1.0 0.0 0.0
  outer loop
    vertex 53.000000000000014 0.9999999999999996 5.499999999999996
    vertex 53.000000000000014 4.645966963783383e-16 8.499999999999996
    vertex 53.000000000000014 0.9999999999999996 8.499999999999996
  endloop
endfacet
facet normal 5.4230124664382565e-17 -7.04991620636975e-16 1.0
  outer loop
    vertex 53.000000000000014 4.645966963783383e-16 8.499999999999996
    vertex 39.99999999999999 0.9999999999999996 8.499999999999996
    vertex 39.99999999999999 4.645966963783383e-16 8.499999999999996
  endloop
endfacet
facet normal 5.4230124664382565e-17 -7.04991620636975e-16 1.0
  outer loop
    vertex 39.99999999999999 0.9999999999999996 8.499999999999996
    vertex 53.000000000000014 4.645966963783383e-16 8.499999999999996
    vertex 53.000000000000014 0.9999999999999996 8.499999999999996
  endloop
endfacet
facet normal 8.495303128285181e-16 -8.459899447643689e-16 1.0
  outer loop
    vertex 67.97916279142318 77.0 10.999999999999986
    vertex 63.00000000000001 81.50000000000001 10.999999999999995
    vertex 63.00000000000001 77.0 10.999999999999986
  endloop
endfacet
facet normal 8.495303128285181e-16 -8.459899447643689e-16 1.0
  outer loop
    vertex 63.00000000000001 81.50000000000001 10.999999999999995
    vertex 67.97916279142318 77.0 10.999999999999986
    vertex 67.97916279142318 81.50000000000001 10.999999999999986
  endloop
endfacet
facet normal 0.0 0.0 1.0
  outer loop
    vertex 67.97916279142318 60.0 10.999999999999963
    vertex 63.00000000000001 65.0 10.999999999999963
    vertex 63.00000000000001 60.0 10.999999999999963
  endloop
endfacet
facet normal 0.0 0.0 1.0
  outer loop
    vertex 63.00000000000001 65.0 10.999999999999963
    vertex 67.97916279142318 60.0 10.999999999999963
    vertex 67.97916279142318 65.0 10.999999999999963
  endloop
endfacet
facet normal 0.0 -1.0 0.0
  outer loop
    vertex 67.97916279142318 60.0 10.999999999999963
    vertex 63.00000000000001 60.0 5.499999999999994
    vertex 67.97916279142318 60.0 5.499999999999994
  endloop
endfacet
facet normal 0.0 -1.0 0.0
  outer loop
    vertex 63.00000000000001 60.0 5.499999999999994
    vertex 67.97916279142318 60.0 10.999999999999963
    vertex 63.00000000000001 60.0 10.999999999999963
  endloop
endfacet
facet normal -0.0 1.0 -0.0
  outer loop
    vertex 63.00000000000001 65.0 10.999999999999963
    vertex 67.97916279142318 65.0 6.999999999999991
    vertex 63.00000000000001 65.0 6.999999999999991
  endloop
endfacet
facet normal -0.0 1.0 -0.0
  outer loop
    vertex 67.97916279142318 65.0 6.999999999999991
    vertex 63.00000000000001 65.0 10.999999999999963
    vertex 67.97916279142318 65.0 10.999999999999963
  endloop
endfacet
facet normal 1.0 -0.0 -0.0
  outer loop
    vertex 67.97916279142318 81.50000000000001 5.500000000000002
    vertex 67.97916279142318 77.0 6.999999999999991
    vertex 67.97916279142318 77.0 5.500000000000002
  endloop
endfacet
facet normal 1.0 -0.0 -0.0
  outer loop
    vertex 67.97916279142318 77.0 6.999999999999991
    vertex 67.97916279142318 81.50000000000001 5.500000000000002
    vertex 67.97916279142318 77.0 10.999999999999986
  endloop
endfacet
facet normal 1.0 -0.0 -0.0
  outer loop
    vertex 67.97916279142318 77.0 10.999999999999986
    vertex 67.97916279142318 81.50000000000001 5.500000000000002
    vertex 67.97916279142318 81.50000000000001 10.999999999999986
  endloop
endfacet
facet normal -0.0 -1.0 -0.0
  outer loop
    vertex 67.97916279142318 77.0 10.999999999999986
    vertex 63.00000000000001 77.0 6.999999999999991
    vertex 67.97916279142318 77.0 6.999999999999991
  endloop
endfacet
facet normal -0.0 -1.0 -0.0
  outer loop
    vertex 63.00000000000001 77.0 6.999999999999991
    vertex 67.97916279142318 77.0 10.999999999999986
    vertex 63.00000000000001 77.0 10.999999999999986
  endloop
endfacet
facet normal -1.0 0.0 0.0
  outer loop
    vertex 69.00000000000001 65.0 10.999999999999986
    vertex 69.00000000000001 6.999999999999998 5.499999999999994
    vertex 69.00000000000001 6.999999999999998 10.999999999999986
  endloop
endfacet
facet normal -1.0 0.0 0.0
  outer loop
    vertex 69.00000000000001 6.999999999999998 5.499999999999994
    vertex 69.00000000000001 65.0 10.999999999999986
    vertex 69.00000000000001 65.0 5.499999999999994
  endloop
endfacet
facet normal -1.0 0.0 0.0
  outer loop
    vertex 69.00000000000001 65.0 5.499999999999994
    vertex 69.00000000000001 65.0 10.999999999999986
    vertex 69.00000000000001 65.0 6.999999999999991
  endloop
endfacet
facet normal 4.140095540041273e-17 7.981469678850047e-18 1.0
  outer loop
    vertex 1.0718171910792173e-17 -4.4377574348147174e-17 10.999999999999991
    vertex 1.0 0.9999999999999996 10.999999999999991
    vertex 1.0718171910792173e-17 89.00000000000001 10.999999999999991
  endloop
endfacet
facet normal 4.140095540041273e-17 7.981469678850047e-18 1.0
  outer loop
    vertex 1.0 0.9999999999999996 10.999999999999991
    vertex 1.0718171910792173e-17 -4.4377574348147174e-17 10.999999999999991
    vertex 70.0 -4.4377574348147174e-17 10.999999999999991
  endloop
endfacet
facet normal 4.140095540041273e-17 7.981469678850047e-18 1.0
  outer loop
    vertex 1.0718171910792173e-17 89.00000000000001 10.999999999999991
    vertex 1.0 0.9999999999999996 10.999999999999991
    vertex 0.999999999999999 6.999999999999998 10.999999999999991
  endloop
endfacet
facet normal 4.140095540041273e-17 7.981469678850047e-18 1.0
  outer loop
    vertex 1.0718171910792173e-17 89.00000000000001 10.999999999999991
    vertex 0.999999999999999 6.999999999999998 10.999999999999991
    vertex 0.9999999999999966 88.0 10.999999999999991
  endloop
endfacet
facet normal 4.140095540041273e-17 7.981469678850047e-18 1.0
  outer loop
    vertex 0.9999999999999966 88.0 10.999999999999991
    vertex 0.999999999999999 6.999999999999998 10.999999999999991
    vertex 0.9999999999999974 82.00000000000001 10.999999999999991
  endloop
endfacet
facet normal 4.140095540041273e-17 7.981469678850047e-18 1.0
  outer loop
    vertex 1.0 0.9999999999999996 10.999999999999991
    vertex 70.0 -4.4377574348147174e-17 10.999999999999991
    vertex 6.000000000000002 0.9999999999999996 10.999999999999991
  endloop
endfacet
facet normal 4.140095540041273e-17 7.981469678850047e-18 1.0
  outer loop
    vertex 6.000000000000002 0.9999999999999996 10.999999999999991
    vertex 70.0 -4.4377574348147174e-17 10.999999999999991
    vertex 63.00000000000001 0.9999999999999996 10.999999999999991
  endloop
endfacet
facet normal 4.140095540041273e-17 7.981469678850047e-18 1.0
  outer loop
    vertex 63.00000000000001 0.9999999999999996 10.999999999999991
    vertex 70.0 -4.4377574348147174e-17 10.999999999999991
    vertex 69.00000000000001 0.9999999999999981 10.999999999999991
  endloop
endfacet
facet normal 4.140095540041273e-17 7.981469678850047e-18 1.0
  outer loop
    vertex 69.00000000000001 0.9999999999999981 10.999999999999991
    vertex 70.0 -4.4377574348147174e-17 10.999999999999991
    vertex 69.00000000000001 6.999999999999998 10.999999999999986
  endloop
endfacet
facet normal 4.140095540041273e-17 7.981469678850047e-18 1.0
  outer loop
    vertex 69.00000000000001 6.999999999999998 10.999999999999986
    vertex 70.0 -4.4377574348147174e-17 10.999999999999991
    vertex 69.00000000000001 65.0 10.999999999999986
  endloop
endfacet
facet normal 4.140095540041273e-17 7.981469678850047e-18 1.0
  outer loop
    vertex 69.00000000000001 65.0 10.999999999999986
    vertex 70.0 -4.4377574348147174e-17 10.999999999999991
    vertex 70.0 65.0 10.999999999999988
  endloop
endfacet
facet normal 4.140095540041273e-17 7.981469678850047e-18 1.0
  outer loop
    vertex 0.9999999999999966 88.0 10.999999999999991
    vertex 34.50000000000001 89.00000000000001 10.999999999999991
    vertex 1.0718171910792173e-17 89.00000000000001 10.999999999999991
  endloop
endfacet
facet normal 4.140095540041273e-17 7.981469678850047e-18 1.0
  outer loop
    vertex 34.50000000000001 89.00000000000001 10.999999999999991
    vertex 0.9999999999999966 88.0 10.999999999999991
    vertex 6.000000000000002 88.00000000000001 10.999999999999991
  endloop
endfacet
facet normal 4.140095540041273e-17 7.981469678850047e-18 1.0
  outer loop
    vertex 34.50000000000001 89.00000000000001 10.999999999999991
    vertex 6.000000000000002 88.00000000000001 10.999999999999991
    vertex 34.50000000000001 88.00000000000001 10.999999999999991
  endloop
endfacet
facet normal -8.459899447643707e-15 -1.174986034394957e-16 1.0
  outer loop
    vertex 70.0 65.0 6.999999999999998
    vertex 69.00000000000001 77.0 6.999999999999991
    vertex 69.00000000000001 65.0 6.999999999999991
  endloop
endfacet
facet normal -8.459899447643707e-15 -1.174986034394957e-16 1.0
  outer loop
    vertex 69.00000000000001 77.0 6.999999999999991
    vertex 70.0 65.0 6.999999999999998
    vertex 70.0 77.0 7.000000000000001
  endloop
endfacet
facet normal -0.0 1.0 -0.0
  outer loop
    vertex 69.00000000000001 65.0 10.999999999999986
    vertex 70.0 65.0 6.999999999999998
    vertex 69.00000000000001 65.0 6.999999999999991
  endloop
endfacet
facet normal -0.0 1.0 -0.0
  outer loop
    vertex 70.0 65.0 6.999999999999998
    vertex 69.00000000000001 65.0 10.999999999999986
    vertex 70.0 65.0 10.999999999999988
  endloop
endfacet
facet normal 0.0 -1.0 0.0
  outer loop
    vertex 70.0 77.0 7.000000000000001
    vertex 69.00000000000001 77.0 10.999999999999986
    vertex 69.00000000000001 77.0 6.999999999999991
  endloop
endfacet
facet normal 0.0 -1.0 0.0
  outer loop
    vertex 69.00000000000001 77.0 10.999999999999986
    vertex 70.0 77.0 7.000000000000001
    vertex 70.0 77.0 10.999999999999988
  endloop
endfacet
facet normal -0.0 -0.0 1.0
  outer loop
    vertex 67.97916279142318 65.0 6.999999999999991
    vertex 63.00000000000001 77.0 6.999999999999991
    vertex 63.00000000000001 65.0 6.999999999999991
  endloop
endfacet
facet normal -0.0 -0.0 1.0
  outer loop
    vertex 63.00000000000001 77.0 6.999999999999991
    vertex 67.97916279142318 65.0 6.999999999999991
    vertex 67.97916279142318 77.0 6.999999999999991
  endloop
endfacet
facet normal -1.0 0.0 0.0
  outer loop
    vertex 69.00000000000001 77.0 6.999999999999991
    vertex 69.00000000000001 65.0 5.499999999999994
    vertex 69.00000000000001 65.0 6.999999999999991
  endloop
endfacet
facet normal -1.0 0.0 0.0
  outer loop
    vertex 69.00000000000001 65.0 5.499999999999994
    vertex 69.00000000000001 77.0 6.999999999999991
    vertex 69.00000000000001 77.0 5.500000000000002
  endloop
endfacet
facet normal 1.0 -0.0 -0.0
  outer loop
    vertex 67.97916279142318 77.0 5.500000000000002
    vertex 67.97916279142318 65.0 6.999999999999991
    vertex 67.97916279142318 65.0 5.499999999999994
  endloop
endfacet
facet normal 1.0 -0.0 -0.0
  outer loop
    vertex 67.97916279142318 65.0 6.999999999999991
    vertex 67.97916279142318 77.0 5.500000000000002
    vertex 67.97916279142318 77.0 6.999999999999991
  endloop
endfacet
facet normal -3.3028650595427057e-16 -9.047251849994847e-17 1.0
  outer loop
    vertex 69.00000000000001 6.999999999999998 5.499999999999994
    vertex 63.00000000000001 60.0 5.499999999999994
    vertex 63.00000000000001 6.999999999999998 5.499999999999994
  endloop
endfacet
facet normal -3.3028650595427057e-16 -9.047251849994847e-17 1.0
  outer loop
    vertex 63.00000000000001 60.0 5.499999999999994
    vertex 69.00000000000001 6.999999999999998 5.499999999999994
    vertex 67.97916279142318 60.0 5.499999999999994
  endloop
endfacet
facet normal -3.3028650595427057e-16 -9.047251849994847e-17 1.0
  outer loop
    vertex 67.97916279142318 60.0 5.499999999999994
    vertex 69.00000000000001 6.999999999999998 5.499999999999994
    vertex 67.97916279142318 65.0 5.499999999999994
  endloop
endfacet
facet normal -3.3028650595427057e-16 -9.047251849994847e-17 1.0
  outer loop
    vertex 67.97916279142318 65.0 5.499999999999994
    vertex 69.00000000000001 6.999999999999998 5.499999999999994
    vertex 67.97916279142318 77.0 5.500000000000002
  endloop
endfacet
facet normal -3.3028650595427057e-16 -9.047251849994847e-17 1.0
  outer loop
    vertex 67.97916279142318 77.0 5.500000000000002
    vertex 69.00000000000001 6.999999999999998 5.499999999999994
    vertex 67.97916279142318 81.50000000000001 5.500000000000002
  endloop
endfacet
facet normal -3.3028650595427057e-16 -9.047251849994847e-17 1.0
  outer loop
    vertex 67.97916279142318 81.50000000000001 5.500000000000002
    vertex 69.00000000000001 6.999999999999998 5.499999999999994
    vertex 69.00000000000001 81.50000000000001 5.500000000000002
  endloop
endfacet
facet normal -3.3028650595427057e-16 -9.047251849994847e-17 1.0
  outer loop
    vertex 69.00000000000001 81.50000000000001 5.500000000000002
    vertex 69.00000000000001 6.999999999999998 5.499999999999994
    vertex 69.00000000000001 65.0 5.499999999999994
  endloop
endfacet
facet normal -3.3028650595427057e-16 -9.047251849994847e-17 1.0
  outer loop
    vertex 69.00000000000001 81.50000000000001 5.500000000000002
    vertex 69.00000000000001 65.0 5.499999999999994
    vertex 69.00000000000001 77.0 5.500000000000002
  endloop
endfacet
facet normal 1.0 -0.0 -0.0
  outer loop
    vertex 67.97916279142318 65.0 5.499999999999994
    vertex 67.97916279142318 60.0 10.999999999999963
    vertex 67.97916279142318 60.0 5.499999999999994
  endloop
endfacet
facet normal 1.0 -0.0 -0.0
  outer loop
    vertex 67.97916279142318 60.0 10.999999999999963
    vertex 67.97916279142318 65.0 5.499999999999994
    vertex 67.97916279142318 65.0 10.999999999999963
  endloop
endfacet
facet normal 1.0 -0.0 -0.0
  outer loop
    vertex 67.97916279142318 65.0 10.999999999999963
    vertex 67.97916279142318 65.0 5.499999999999994
    vertex 67.97916279142318 65.0 6.999999999999991
  endloop
endfacet
facet normal 0.0 1.0 0.0
  outer loop
    vertex 63.00000000000001 81.50000000000001 10.999999999999995
    vertex 69.00000000000001 81.50000000000001 3.9999999999999996
    vertex 63.00000000000001 81.50000000000001 3.9999999999999996
  endloop
endfacet
facet normal 0.0 1.0 0.0
  outer loop
    vertex 69.00000000000001 81.50000000000001 3.9999999999999996
    vertex 63.00000000000001 81.50000000000001 10.999999999999995
    vertex 67.97916279142318 81.50000000000001 5.500000000000002
  endloop
endfacet
facet normal 0.0 1.0 0.0
  outer loop
    vertex 67.97916279142318 81.50000000000001 5.500000000000002
    vertex 63.00000000000001 81.50000000000001 10.999999999999995
    vertex 67.97916279142318 81.50000000000001 10.999999999999986
  endloop
endfacet
facet normal 0.0 1.0 0.0
  outer loop
    vertex 69.00000000000001 81.50000000000001 5.500000000000002
    vertex 69.00000000000001 81.50000000000001 3.9999999999999996
    vertex 67.97916279142318 81.50000000000001 5.500000000000002
  endloop
endfacet
endsolid EBadge4-front
