solid EBadge3-divot
facet normal 0.0 0.0 -1.0
  outer loop
    vertex 22.0 5.5 0.0
    vertex 0.0 0.9999999999999996 0.0
    vertex 0.0 5.5 0.0
  endloop
endfacet
facet normal 0.0 0.0 -1.0
  outer loop
    vertex 0.0 0.9999999999999996 0.0
    vertex 22.0 5.5 0.0
    vertex 7.499999999999999 0.9999999999999999 0.0
  endloop
endfacet
facet normal 0.0 0.0 -1.0
  outer loop
    vertex 7.499999999999999 0.9999999999999999 0.0
    vertex 22.0 5.5 0.0
    vertex 7.499999999999999 0.0 0.0
  endloop
endfacet
facet normal 0.0 0.0 -1.0
  outer loop
    vertex 7.499999999999999 0.0 0.0
    vertex 22.0 5.5 0.0
    vertex 14.500000000000002 0.9999999999999999 0.0
  endloop
endfacet
facet normal 0.0 0.0 -1.0
  outer loop
    vertex 14.500000000000002 0.9999999999999999 0.0
    vertex 22.0 5.5 0.0
    vertex 22.0 0.9999999999999999 0.0
  endloop
endfacet
facet normal 0.0 0.0 -1.0
  outer loop
    vertex 14.500000000000002 0.0 0.0
    vertex 7.499999999999999 0.0 0.0
    vertex 14.500000000000002 0.9999999999999999 0.0
  endloop
endfacet
facet normal 0.0 0.0 1.0
  outer loop
    vertex 14.500000000000002 0.0 7.000000000000001
    vertex 7.499999999999999 0.9999999999999999 7.000000000000001
    vertex 7.499999999999999 0.0 7.000000000000001
  endloop
endfacet
facet normal 0.0 0.0 1.0
  outer loop
    vertex 7.499999999999999 0.9999999999999999 7.000000000000001
    vertex 0.0 5.5 7.000000000000001
    vertex 0.0 0.9999999999999996 7.000000000000001
  endloop
endfacet
facet normal 0.0 0.0 1.0
  outer loop
    vertex 0.0 5.5 7.000000000000001
    vertex 7.499999999999999 0.9999999999999999 7.000000000000001
    vertex 22.0 5.5 7.000000000000001
  endloop
endfacet
facet normal 0.0 0.0 1.0
  outer loop
    vertex 22.0 5.5 7.000000000000001
    vertex 7.499999999999999 0.9999999999999999 7.000000000000001
    vertex 14.500000000000002 0.9999999999999999 7.000000000000001
  endloop
endfacet
facet normal 0.0 0.0 1.0
  outer loop
    vertex 14.500000000000002 0.9999999999999999 7.000000000000001
    vertex 7.499999999999999 0.9999999999999999 7.000000000000001
    vertex 14.500000000000002 0.0 7.000000000000001
  endloop
endfacet
facet normal 0.0 0.0 1.0
  outer loop
    vertex 22.0 5.5 7.000000000000001
    vertex 14.500000000000002 0.9999999999999999 7.000000000000001
    vertex 22.0 0.9999999999999999 7.000000000000001
  endloop
endfacet
facet normal -0.0 -1.0 -0.0
  outer loop
    vertex 22.0 0.9999999999999999 7.000000000000001
    vertex 14.500000000000002 0.9999999999999999 0.0
    vertex 22.0 0.9999999999999999 0.0
  endloop
endfacet
facet normal -0.0 -1.0 -0.0
  outer loop
    vertex 14.500000000000002 0.9999999999999999 0.0
    vertex 22.0 0.9999999999999999 7.000000000000001
    vertex 14.500000000000002 0.9999999999999999 7.000000000000001
  endloop
endfacet
facet normal 1.0 0.0 0.0
  outer loop
    vertex 14.500000000000002 0.9999999999999999 0.0
    vertex 14.500000000000002 0.0 7.000000000000001
    vertex 14.500000000000002 0.0 0.0
  endloop
endfacet
facet normal 1.0 0.0 0.0
  outer loop
    vertex 14.500000000000002 0.0 7.000000000000001
    vertex 14.500000000000002 0.9999999999999999 0.0
    vertex 14.500000000000002 0.9999999999999999 7.000000000000001
  endloop
endfacet
facet normal -0.0 -1.0 -0.0
  outer loop
    vertex 14.500000000000002 0.0 7.000000000000001
    vertex 7.499999999999999 0.0 0.0
    vertex 14.500000000000002 0.0 0.0
  endloop
endfacet
facet normal -0.0 -1.0 -0.0
  outer loop
    vertex 7.499999999999999 0.0 0.0
    vertex 14.500000000000002 0.0 7.000000000000001
    vertex 7.499999999999999 0.0 7.000000000000001
  endloop
endfacet
facet normal -1.0 0.0 0.0
  outer loop
    vertex 7.499999999999999 0.9999999999999999 7.000000000000001
    vertex 7.499999999999999 0.0 0.0
    vertex 7.499999999999999 0.0 7.000000000000001
  endloop
endfacet
facet normal -1.0 0.0 0.0
  outer loop
    vertex 7.499999999999999 0.0 0.0
    vertex 7.499999999999999 0.9999999999999999 7.000000000000001
    vertex 7.499999999999999 0.9999999999999999 0.0
  endloop
endfacet
facet normal 5.035654433121246e-17 -1.0 0.0
  outer loop
    vertex 7.499999999999999 0.9999999999999999 7.000000000000001
    vertex 0.0 0.9999999999999996 0.0
    vertex 7.499999999999999 0.9999999999999999 0.0
  endloop
endfacet
facet normal 5.035654433121246e-17 -1.0 0.0
  outer loop
    vertex 0.0 0.9999999999999996 0.0
    vertex 7.499999999999999 0.9999999999999999 7.000000000000001
    vertex 0.0 0.9999999999999996 7.000000000000001
  endloop
endfacet
facet normal -1.0 0.0 0.0
  outer loop
    vertex 0.0 5.5 7.000000000000001
    vertex 0.0 0.9999999999999996 0.0
    vertex 0.0 0.9999999999999996 7.000000000000001
  endloop
endfacet
facet normal -1.0 0.0 0.0
  outer loop
    vertex 0.0 0.9999999999999996 0.0
    vertex 0.0 5.5 7.000000000000001
    vertex 0.0 5.5 0.0
  endloop
endfacet
facet normal 0.0 1.0 0.0
  outer loop
    vertex 0.0 5.5 7.000000000000001
    vertex 22.0 5.5 0.0
    vertex 0.0 5.5 0.0
  endloop
endfacet
facet normal 0.0 1.0 0.0
  outer loop
    vertex 22.0 5.5 0.0
    vertex 0.0 5.5 7.000000000000001
    vertex 22.0 5.5 7.000000000000001
  endloop
endfacet
facet normal 1.0 0.0 0.0
  outer loop
    vertex 22.0 5.5 0.0
    vertex 22.0 0.9999999999999999 7.000000000000001
    vertex 22.0 0.9999999999999999 0.0
  endloop
endfacet
facet normal 1.0 0.0 0.0
  outer loop
    vertex 22.0 0.9999999999999999 7.000000000000001
    vertex 22.0 5.5 0.0
    vertex 22.0 5.5 7.000000000000001
  endloop
endfacet
endsolid EBadge3-divot
