solid EBadge3-back
facet normal 0.0 0.0 -1.0
  outer loop
    vertex 0.0 89.00000000000001 0.0
    vertex 27.46126791474297 84.00000000000001 1.0424938239041395e-13
    vertex 0.0 0.0 0.0
  endloop
endfacet
facet normal 0.0 0.0 -1.0
  outer loop
    vertex 27.46126791474297 84.00000000000001 1.0424938239041395e-13
    vertex 0.0 89.00000000000001 0.0
    vertex 70.0 89.00000000000001 0.0
  endloop
endfacet
facet normal 0.0 0.0 -1.0
  outer loop
    vertex 0.0 0.0 0.0
    vertex 27.46126791474297 84.00000000000001 1.0424938239041395e-13
    vertex 27.46126791474295 78.60065436251027 4.497026797428145e-14
  endloop
endfacet
facet normal 0.0 0.0 -1.0
  outer loop
    vertex 27.46126791474297 84.00000000000001 1.0424938239041395e-13
    vertex 70.0 89.00000000000001 0.0
    vertex 41.50000000000005 84.0 -1.7448542610765116e-14
  endloop
endfacet
facet normal 0.0 0.0 -1.0
  outer loop
    vertex 41.50000000000005 84.0 -1.7448542610765116e-14
    vertex 70.0 89.00000000000001 0.0
    vertex 41.50000000000005 78.60065436251027 -1.6391055179809654e-14
  endloop
endfacet
facet normal 0.0 0.0 -1.0
  outer loop
    vertex 27.46126791474295 78.60065436251027 4.497026797428145e-14
    vertex 70.0 0.0 0.0
    vertex 0.0 0.0 0.0
  endloop
endfacet
facet normal 0.0 0.0 -1.0
  outer loop
    vertex 70.0 0.0 0.0
    vertex 27.46126791474295 78.60065436251027 4.497026797428145e-14
    vertex 41.50000000000005 78.60065436251027 -1.6391055179809654e-14
  endloop
endfacet
facet normal 0.0 0.0 -1.0
  outer loop
    vertex 70.0 0.0 0.0
    vertex 41.50000000000005 78.60065436251027 -1.6391055179809654e-14
    vertex 70.0 89.00000000000001 0.0
  endloop
endfacet
facet normal -1.2770543655738696e-35 -1.0 -1.7092771702208428e-18
  outer loop
    vertex 70.0 -9.122361633523338e-17 11.99999999999999
    vertex 0.0 0.0 0.0
    vertex 70.0 0.0 0.0
  endloop
endfacet
facet normal -1.2770543655738696e-35 -1.0 -1.7092771702208428e-18
  outer loop
    vertex 0.0 0.0 0.0
    vertex 70.0 -9.122361633523338e-17 11.99999999999999
    vertex 40.00000000000001 -9.093935021090175e-17 7.9999999999999964
  endloop
endfacet
facet normal -1.2770543655738696e-35 -1.0 -1.7092771702208428e-18
  outer loop
    vertex 40.00000000000001 -9.093935021090175e-17 7.9999999999999964
    vertex 70.0 -9.122361633523338e-17 11.99999999999999
    vertex 40.00000000000001 -9.093935021090175e-17 11.99999999999999
  endloop
endfacet
facet normal -1.2770543655738696e-35 -1.0 -1.7092771702208428e-18
  outer loop
    vertex 0.0 0.0 0.0
    vertex 30.0 -9.151608944792473e-17 7.9999999999999964
    vertex -1.8782791271085433e-16 -9.122361633523338e-17 11.99999999999999
  endloop
endfacet
facet normal -1.2770543655738696e-35 -1.0 -1.7092771702208428e-18
  outer loop
    vertex 30.0 -9.151608944792473e-17 7.9999999999999964
    vertex 0.0 0.0 0.0
    vertex 40.00000000000001 -9.093935021090175e-17 7.9999999999999964
  endloop
endfacet
facet normal -1.2770543655738696e-35 -1.0 -1.7092771702208428e-18
  outer loop
    vertex -1.8782791271085433e-16 -9.122361633523338e-17 11.99999999999999
    vertex 30.0 -9.151608944792473e-17 7.9999999999999964
    vertex 30.0 -9.151608944792473e-17 11.99999999999999
  endloop
endfacet
facet normal -1.0 0.0 0.0
  outer loop
    vertex -1.8782791271085433e-16 89.00000000000001 11.99999999999999
    vertex 0.0 0.0 0.0
    vertex -1.8782791271085433e-16 -9.122361633523338e-17 11.99999999999999
  endloop
endfacet
facet normal -1.0 0.0 0.0
  outer loop
    vertex 0.0 0.0 0.0
    vertex -1.8782791271085433e-16 89.00000000000001 11.99999999999999
    vertex 0.0 89.00000000000001 0.0
  endloop
endfacet
facet normal -0.0 1.0 -0.0
  outer loop
    vertex 0.0 89.00000000000001 0.0
    vertex 27.46126791474297 89.00000000000003 5.000000000000135
    vertex 70.0 89.00000000000001 0.0
  endloop
endfacet
facet normal -0.0 1.0 -0.0
  outer loop
    vertex 27.46126791474297 89.00000000000003 5.000000000000135
    vertex 0.0 89.00000000000001 0.0
    vertex -1.8782791271085433e-16 89.00000000000001 11.99999999999999
  endloop
endfacet
facet normal -0.0 1.0 -0.0
  outer loop
    vertex 70.0 89.00000000000001 0.0
    vertex 27.46126791474297 89.00000000000003 5.000000000000135
    vertex 41.50000000000005 89.00000000000001 5.0000000000000036
  endloop
endfacet
facet normal -0.0 1.0 -0.0
  outer loop
    vertex 27.46126791474297 89.00000000000003 5.000000000000135
    vertex -1.8782791271085433e-16 89.00000000000001 11.99999999999999
    vertex 27.461267914742933 89.00000000000003 10.399345637489835
  endloop
endfacet
facet normal -0.0 1.0 -0.0
  outer loop
    vertex 41.50000000000005 89.00000000000001 5.0000000000000036
    vertex 70.0 89.00000000000001 11.99999999999999
    vertex 70.0 89.00000000000001 0.0
  endloop
endfacet
facet normal -0.0 1.0 -0.0
  outer loop
    vertex 70.0 89.00000000000001 11.99999999999999
    vertex 41.50000000000005 89.00000000000001 5.0000000000000036
    vertex 41.50000000000005 89.00000000000001 10.399345637489741
  endloop
endfacet
facet normal -0.0 1.0 -0.0
  outer loop
    vertex 70.0 89.00000000000001 11.99999999999999
    vertex 41.50000000000005 89.00000000000001 10.399345637489741
    vertex 27.461267914742933 89.00000000000003 10.399345637489835
  endloop
endfacet
facet normal -0.0 1.0 -0.0
  outer loop
    vertex 70.0 89.00000000000001 11.99999999999999
    vertex 27.461267914742933 89.00000000000003 10.399345637489835
    vertex -1.8782791271085433e-16 89.00000000000001 11.99999999999999
  endloop
endfacet
facet normal 1.0 5.874930171974779e-17 3.710482213878845e-17
  outer loop
    vertex 6.000000000000002 6.999999999999998 11.99999999999999
    vertex 6.000000000000002 0.9999999999999996 21.499999999999904
    vertex 6.000000000000002 0.999999999999992 11.999999999999991
  endloop
endfacet
facet normal 1.0 5.874930171974779e-17 3.710482213878845e-17
  outer loop
    vertex 6.000000000000002 0.9999999999999996 21.499999999999904
    vertex 6.000000000000002 6.999999999999998 11.99999999999999
    vertex 6.000000000000001 6.999999999999998 21.499999999999904
  endloop
endfacet
facet normal 0.0 0.0 1.0
  outer loop
    vertex 69.00000000000001 82.00000000000001 21.49999999999996
    vertex 63.00000000000001 88.00000000000001 21.49999999999996
    vertex 63.00000000000001 82.00000000000001 21.49999999999996
  endloop
endfacet
facet normal 0.0 0.0 1.0
  outer loop
    vertex 63.00000000000001 88.00000000000001 21.49999999999996
    vertex 69.00000000000001 82.00000000000001 21.49999999999996
    vertex 69.00000000000001 88.00000000000001 21.49999999999996
  endloop
endfacet
facet normal 0.0 0.0 1.0
  outer loop
    vertex 69.00000000000001 0.9999999999999981 21.499999999999915
    vertex 63.00000000000001 6.999999999999998 21.499999999999915
    vertex 63.00000000000001 0.9999999999999996 21.499999999999915
  endloop
endfacet
facet normal 0.0 0.0 1.0
  outer loop
    vertex 63.00000000000001 6.999999999999998 21.499999999999915
    vertex 69.00000000000001 0.9999999999999981 21.499999999999915
    vertex 69.00000000000001 6.999999999999998 21.499999999999915
  endloop
endfacet
facet normal 0.0 0.0 1.0
  outer loop
    vertex 1.0 0.9999999999999996 21.499999999999904
    vertex 6.000000000000001 6.999999999999998 21.499999999999904
    vertex 0.999999999999999 6.999999999999998 21.499999999999904
  endloop
endfacet
facet normal 0.0 0.0 1.0
  outer loop
    vertex 6.000000000000001 6.999999999999998 21.499999999999904
    vertex 1.0 0.9999999999999996 21.499999999999904
    vertex 6.000000000000002 0.9999999999999996 21.499999999999904
  endloop
endfacet
facet normal -0.0 1.0 -0.0
  outer loop
    vertex 63.00000000000001 6.999999999999998 21.499999999999915
    vertex 69.00000000000001 6.999999999999998 1.000000000000002
    vertex 63.00000000000001 6.999999999999998 1.000000000000002
  endloop
endfacet
facet normal -0.0 1.0 -0.0
  outer loop
    vertex 69.00000000000001 6.999999999999998 1.000000000000002
    vertex 63.00000000000001 6.999999999999998 21.499999999999915
    vertex 69.00000000000001 6.999999999999998 11.99999999999999
  endloop
endfacet
facet normal -0.0 1.0 -0.0
  outer loop
    vertex 69.00000000000001 6.999999999999998 11.99999999999999
    vertex 63.00000000000001 6.999999999999998 21.499999999999915
    vertex 69.00000000000001 6.999999999999998 21.499999999999915
  endloop
endfacet
facet normal 0.0 -1.0 0.0
  outer loop
    vertex 69.00000000000001 82.00000000000001 11.99999999999999
    vertex 68.00000000000001 82.00000000000001 1.000000000000002
    vertex 69.00000000000001 82.00000000000001 1.000000000000002
  endloop
endfacet
facet normal 0.0 -1.0 0.0
  outer loop
    vertex 68.00000000000001 82.00000000000001 1.000000000000002
    vertex 69.00000000000001 82.00000000000001 11.99999999999999
    vertex 68.00000000000001 82.00000000000001 4.999999999999999
  endloop
endfacet
facet normal 0.0 -1.0 0.0
  outer loop
    vertex 68.00000000000001 82.00000000000001 4.999999999999999
    vertex 69.00000000000001 82.00000000000001 11.99999999999999
    vertex 64.0 82.00000000000001 4.999999999999999
  endloop
endfacet
facet normal 0.0 -1.0 0.0
  outer loop
    vertex 64.0 82.00000000000001 4.999999999999999
    vertex 69.00000000000001 82.00000000000001 11.99999999999999
    vertex 64.0 82.00000000000001 11.999999999999984
  endloop
endfacet
facet normal 0.0 -1.0 0.0
  outer loop
    vertex 64.0 82.00000000000001 11.999999999999984
    vertex 69.00000000000001 82.00000000000001 11.99999999999999
    vertex 63.00000000000001 82.00000000000001 11.99999999999999
  endloop
endfacet
facet normal 0.0 -1.0 0.0
  outer loop
    vertex 63.00000000000001 82.00000000000001 11.99999999999999
    vertex 69.00000000000001 82.00000000000001 11.99999999999999
    vertex 69.00000000000001 82.00000000000001 21.49999999999996
  endloop
endfacet
facet normal 0.0 -1.0 0.0
  outer loop
    vertex 63.00000000000001 82.00000000000001 11.99999999999999
    vertex 69.00000000000001 82.00000000000001 21.49999999999996
    vertex 63.00000000000001 82.00000000000001 21.49999999999996
  endloop
endfacet
facet normal -1.0 0.0 0.0
  outer loop
    vertex 63.00000000000001 6.999999999999998 21.499999999999915
    vertex 63.00000000000001 0.9999999999999996 11.99999999999999
    vertex 63.00000000000001 0.9999999999999996 21.499999999999915
  endloop
endfacet
facet normal -1.0 0.0 0.0
  outer loop
    vertex 63.00000000000001 0.9999999999999996 11.99999999999999
    vertex 63.00000000000001 6.999999999999998 21.499999999999915
    vertex 63.00000000000001 0.9999999999999996 0.9999999999999999
  endloop
endfacet
facet normal -1.0 0.0 0.0
  outer loop
    vertex 63.00000000000001 0.9999999999999996 0.9999999999999999
    vertex 63.00000000000001 6.999999999999998 21.499999999999915
    vertex 63.00000000000001 6.999999999999998 1.000000000000002
  endloop
endfacet
facet normal -7.822074766173393e-17 1.0 1.4035438162789968e-16
  outer loop
    vertex 19.000000000000078 0.9999999999999913 11.999999999999991
    vertex 30.0 0.9999999999999996 7.9999999999999964
    vertex 19.000000000000078 0.9999999999999989 1.0000000000000009
  endloop
endfacet
facet normal -7.822074766173393e-17 1.0 1.4035438162789968e-16
  outer loop
    vertex 30.0 0.9999999999999996 7.9999999999999964
    vertex 19.000000000000078 0.9999999999999913 11.999999999999991
    vertex 30.0 0.9999999999999996 11.99999999999999
  endloop
endfacet
facet normal -7.822074766173393e-17 1.0 1.4035438162789968e-16
  outer loop
    vertex 19.000000000000078 0.9999999999999989 1.0000000000000009
    vertex 63.00000000000001 0.9999999999999996 11.99999999999999
    vertex 63.00000000000001 0.9999999999999996 0.9999999999999999
  endloop
endfacet
facet normal -7.822074766173393e-17 1.0 1.4035438162789968e-16
  outer loop
    vertex 63.00000000000001 0.9999999999999996 11.99999999999999
    vertex 19.000000000000078 0.9999999999999989 1.0000000000000009
    vertex 40.00000000000001 0.9999999999999996 7.9999999999999964
  endloop
endfacet
facet normal -7.822074766173393e-17 1.0 1.4035438162789968e-16
  outer loop
    vertex 40.00000000000001 0.9999999999999996 7.9999999999999964
    vertex 19.000000000000078 0.9999999999999989 1.0000000000000009
    vertex 30.0 0.9999999999999996 7.9999999999999964
  endloop
endfacet
facet normal -7.822074766173393e-17 1.0 1.4035438162789968e-16
  outer loop
    vertex 63.00000000000001 0.9999999999999996 11.99999999999999
    vertex 40.00000000000001 0.9999999999999996 7.9999999999999964
    vertex 40.00000000000001 0.9999999999999996 11.99999999999999
  endloop
endfacet
facet normal 1.0 1.0071308866242489e-17 -1.2557357925150708e-33
  outer loop
    vertex 0.9999999999999905 81.99999999999997 1.000000000000012
    vertex 0.999999999999999 6.999999999999998 11.99999999999999
    vertex 0.999999999999999 6.999999999999998 1.0000000000000044
  endloop
endfacet
facet normal 1.0 1.0071308866242489e-17 -1.2557357925150708e-33
  outer loop
    vertex 0.999999999999999 6.999999999999998 11.99999999999999
    vertex 0.9999999999999905 81.99999999999997 1.000000000000012
    vertex 0.9999999999999905 81.99999999999997 11.999999999999988
  endloop
endfacet
facet normal -1.0 0.0 0.0
  outer loop
    vertex 69.00000000000001 82.00000000000001 11.99999999999999
    vertex 69.00000000000001 75.00000000000001 4.000000000000002
    vertex 69.00000000000001 75.00000000000001 11.99999999999999
  endloop
endfacet
facet normal -1.0 0.0 0.0
  outer loop
    vertex 69.00000000000001 75.00000000000001 4.000000000000002
    vertex 69.00000000000001 82.00000000000001 11.99999999999999
    vertex 69.00000000000001 75.00000000000001 1.000000000000002
  endloop
endfacet
facet normal -1.0 0.0 0.0
  outer loop
    vertex 69.00000000000001 75.00000000000001 1.000000000000002
    vertex 69.00000000000001 82.00000000000001 11.99999999999999
    vertex 69.00000000000001 82.00000000000001 1.000000000000002
  endloop
endfacet
facet normal -2.3499720687899147e-16 -1.0 -0.0
  outer loop
    vertex 69.00000000000001 0.9999999999999981 21.499999999999915
    vertex 63.00000000000001 0.9999999999999996 11.99999999999999
    vertex 69.00000000000001 0.9999999999999981 11.99999999999999
  endloop
endfacet
facet normal -2.3499720687899147e-16 -1.0 -0.0
  outer loop
    vertex 63.00000000000001 0.9999999999999996 11.99999999999999
    vertex 69.00000000000001 0.9999999999999981 21.499999999999915
    vertex 63.00000000000001 0.9999999999999996 21.499999999999915
  endloop
endfacet
facet normal -7.578659921847475e-16 -1.0 3.9887683799197602e-16
  outer loop
    vertex 6.000000000000002 0.999999999999992 11.999999999999991
    vertex 1.0 0.9999999999999996 21.499999999999904
    vertex 1.0 0.9999999999999996 11.99999999999999
  endloop
endfacet
facet normal -7.578659921847475e-16 -1.0 3.9887683799197602e-16
  outer loop
    vertex 1.0 0.9999999999999996 21.499999999999904
    vertex 6.000000000000002 0.999999999999992 11.999999999999991
    vertex 6.000000000000002 0.9999999999999996 21.499999999999904
  endloop
endfacet
facet normal -1.0 -1.7624790515924364e-16 -0.0
  outer loop
    vertex 0.999999999999999 6.999999999999998 21.499999999999904
    vertex 1.0 0.9999999999999996 11.99999999999999
    vertex 1.0 0.9999999999999996 21.499999999999904
  endloop
endfacet
facet normal -1.0 -1.7624790515924364e-16 -0.0
  outer loop
    vertex 1.0 0.9999999999999996 11.99999999999999
    vertex 0.999999999999999 6.999999999999998 21.499999999999904
    vertex 0.999999999999999 6.999999999999998 11.99999999999999
  endloop
endfacet
facet normal -0.0 1.0 -0.0
  outer loop
    vertex 63.00000000000001 88.00000000000001 21.49999999999996
    vertex 69.00000000000001 88.00000000000001 11.99999999999999
    vertex 63.00000000000001 88.00000000000001 11.99999999999999
  endloop
endfacet
facet normal -0.0 1.0 -0.0
  outer loop
    vertex 69.00000000000001 88.00000000000001 11.99999999999999
    vertex 63.00000000000001 88.00000000000001 21.49999999999996
    vertex 69.00000000000001 88.00000000000001 21.49999999999996
  endloop
endfacet
facet normal 1.0 0.0 0.0
  outer loop
    vertex 69.00000000000001 88.00000000000001 11.99999999999999
    vertex 69.00000000000001 82.00000000000001 21.49999999999996
    vertex 69.00000000000001 82.00000000000001 11.99999999999999
  endloop
endfacet
facet normal 1.0 0.0 0.0
  outer loop
    vertex 69.00000000000001 82.00000000000001 21.49999999999996
    vertex 69.00000000000001 88.00000000000001 11.99999999999999
    vertex 69.00000000000001 88.00000000000001 21.49999999999996
  endloop
endfacet
facet normal 1.0 0.0 0.0
  outer loop
    vertex 69.00000000000001 6.999999999999998 11.99999999999999
    vertex 69.00000000000001 0.9999999999999981 21.499999999999915
    vertex 69.00000000000001 0.9999999999999981 11.99999999999999
  endloop
endfacet
facet normal 1.0 0.0 0.0
  outer loop
    vertex 69.00000000000001 0.9999999999999981 21.499999999999915
    vertex 69.00000000000001 6.999999999999998 11.99999999999999
    vertex 69.00000000000001 6.999999999999998 21.499999999999915
  endloop
endfacet
facet normal 0.0 0.0 1.0
  outer loop
    vertex 6.0 81.99999999999997 21.499999999999925
    vertex 0.9999999999999966 88.0 21.499999999999925
    vertex 0.9999999999999905 81.99999999999997 21.499999999999925
  endloop
endfacet
facet normal 0.0 0.0 1.0
  outer loop
    vertex 0.9999999999999966 88.0 21.499999999999925
    vertex 6.0 81.99999999999997 21.499999999999925
    vertex 6.000000000000002 88.00000000000001 21.499999999999925
  endloop
endfacet
facet normal -1.0 -1.602253683265852e-16 0.0
  outer loop
    vertex 0.9999999999999966 88.0 21.499999999999925
    vertex 0.9999999999999905 81.99999999999997 11.999999999999988
    vertex 0.9999999999999905 81.99999999999997 21.499999999999925
  endloop
endfacet
facet normal -1.0 -1.602253683265852e-16 0.0
  outer loop
    vertex 0.9999999999999905 81.99999999999997 11.999999999999988
    vertex 0.9999999999999966 88.0 21.499999999999925
    vertex 0.9999999999999966 88.0 11.99999999999999
  endloop
endfacet
facet normal -2.2559731860383158e-15 1.0 0.0
  outer loop
    vertex 0.9999999999999966 88.0 21.499999999999925
    vertex 6.000000000000002 88.00000000000001 11.99999999999999
    vertex 0.9999999999999966 88.0 11.99999999999999
  endloop
endfacet
facet normal -2.2559731860383158e-15 1.0 0.0
  outer loop
    vertex 6.000000000000002 88.00000000000001 11.99999999999999
    vertex 0.9999999999999966 88.0 21.499999999999925
    vertex 6.000000000000002 88.00000000000001 21.499999999999925
  endloop
endfacet
facet normal 1.4631127978475432e-16 -1.2782286675628186e-16 1.0
  outer loop
    vertex -1.8782791271085433e-16 -9.122361633523338e-17 11.99999999999999
    vertex 1.0 0.9999999999999996 11.99999999999999
    vertex -1.8782791271085433e-16 89.00000000000001 11.99999999999999
  endloop
endfacet
facet normal 1.4631127978475432e-16 -1.2782286675628186e-16 1.0
  outer loop
    vertex 1.0 0.9999999999999996 11.99999999999999
    vertex -1.8782791271085433e-16 -9.122361633523338e-17 11.99999999999999
    vertex 30.0 -9.151608944792473e-17 11.99999999999999
  endloop
endfacet
facet normal 1.4631127978475432e-16 -1.2782286675628186e-16 1.0
  outer loop
    vertex -1.8782791271085433e-16 89.00000000000001 11.99999999999999
    vertex 1.0 0.9999999999999996 11.99999999999999
    vertex 0.999999999999999 6.999999999999998 11.99999999999999
  endloop
endfacet
facet normal 1.4631127978475432e-16 -1.2782286675628186e-16 1.0
  outer loop
    vertex -1.8782791271085433e-16 89.00000000000001 11.99999999999999
    vertex 0.999999999999999 6.999999999999998 11.99999999999999
    vertex 0.9999999999999905 81.99999999999997 11.999999999999988
  endloop
endfacet
facet normal 1.4631127978475432e-16 -1.2782286675628186e-16 1.0
  outer loop
    vertex 1.0 0.9999999999999996 11.99999999999999
    vertex 30.0 -9.151608944792473e-17 11.99999999999999
    vertex 6.000000000000002 0.999999999999992 11.999999999999991
  endloop
endfacet
facet normal 1.4631127978475432e-16 -1.2782286675628186e-16 1.0
  outer loop
    vertex 6.000000000000002 0.999999999999992 11.999999999999991
    vertex 30.0 -9.151608944792473e-17 11.99999999999999
    vertex 19.000000000000078 0.9999999999999913 11.999999999999991
  endloop
endfacet
facet normal 1.4631127978475432e-16 -1.2782286675628186e-16 1.0
  outer loop
    vertex 19.000000000000078 0.9999999999999913 11.999999999999991
    vertex 30.0 -9.151608944792473e-17 11.99999999999999
    vertex 30.0 0.9999999999999996 11.99999999999999
  endloop
endfacet
facet normal 1.4631127978475432e-16 -1.2782286675628186e-16 1.0
  outer loop
    vertex 70.0 75.00000000000001 11.99999999999999
    vertex 69.00000000000001 82.00000000000001 11.99999999999999
    vertex 69.00000000000001 75.00000000000001 11.99999999999999
  endloop
endfacet
facet normal 1.4631127978475432e-16 -1.2782286675628186e-16 1.0
  outer loop
    vertex 69.00000000000001 82.00000000000001 11.99999999999999
    vertex 70.0 75.00000000000001 11.99999999999999
    vertex 69.00000000000001 88.00000000000001 11.99999999999999
  endloop
endfacet
facet normal 1.4631127978475432e-16 -1.2782286675628186e-16 1.0
  outer loop
    vertex -1.8782791271085433e-16 89.00000000000001 11.99999999999999
    vertex 0.9999999999999966 88.0 11.99999999999999
    vertex 70.0 89.00000000000001 11.99999999999999
  endloop
endfacet
facet normal 1.4631127978475432e-16 -1.2782286675628186e-16 1.0
  outer loop
    vertex 0.9999999999999966 88.0 11.99999999999999
    vertex -1.8782791271085433e-16 89.00000000000001 11.99999999999999
    vertex 0.9999999999999905 81.99999999999997 11.999999999999988
  endloop
endfacet
facet normal 1.4631127978475432e-16 -1.2782286675628186e-16 1.0
  outer loop
    vertex 70.0 89.00000000000001 11.99999999999999
    vertex 0.9999999999999966 88.0 11.99999999999999
    vertex 6.000000000000002 88.00000000000001 11.99999999999999
  endloop
endfacet
facet normal 1.4631127978475432e-16 -1.2782286675628186e-16 1.0
  outer loop
    vertex 70.0 89.00000000000001 11.99999999999999
    vertex 6.000000000000002 88.00000000000001 11.99999999999999
    vertex 18.999999999999964 88.00000000000001 12.000000000000078
  endloop
endfacet
facet normal 1.4631127978475432e-16 -1.2782286675628186e-16 1.0
  outer loop
    vertex 70.0 89.00000000000001 11.99999999999999
    vertex 18.999999999999964 88.00000000000001 12.000000000000078
    vertex 41.500000000000085 88.00000000000001 11.99999999999999
  endloop
endfacet
facet normal 1.4631127978475432e-16 -1.2782286675628186e-16 1.0
  outer loop
    vertex 70.0 89.00000000000001 11.99999999999999
    vertex 41.500000000000085 88.00000000000001 11.99999999999999
    vertex 50.00000000000001 88.00000000000001 11.99999999999999
  endloop
endfacet
facet normal 1.4631127978475432e-16 -1.2782286675628186e-16 1.0
  outer loop
    vertex 70.0 89.00000000000001 11.99999999999999
    vertex 50.00000000000001 88.00000000000001 11.99999999999999
    vertex 63.00000000000001 88.00000000000001 11.99999999999999
  endloop
endfacet
facet normal 1.4631127978475432e-16 -1.2782286675628186e-16 1.0
  outer loop
    vertex 70.0 89.00000000000001 11.99999999999999
    vertex 63.00000000000001 88.00000000000001 11.99999999999999
    vertex 69.00000000000001 88.00000000000001 11.99999999999999
  endloop
endfacet
facet normal 1.4631127978475432e-16 -1.2782286675628186e-16 1.0
  outer loop
    vertex 70.0 89.00000000000001 11.99999999999999
    vertex 69.00000000000001 88.00000000000001 11.99999999999999
    vertex 70.0 75.00000000000001 11.99999999999999
  endloop
endfacet
facet normal 0.0 0.0 1.0
  outer loop
    vertex 40.00000000000001 -9.093935021090175e-17 7.9999999999999964
    vertex 30.0 0.9999999999999996 7.9999999999999964
    vertex 30.0 -9.151608944792473e-17 7.9999999999999964
  endloop
endfacet
facet normal 0.0 0.0 1.0
  outer loop
    vertex 30.0 0.9999999999999996 7.9999999999999964
    vertex 40.00000000000001 -9.093935021090175e-17 7.9999999999999964
    vertex 40.00000000000001 0.9999999999999996 7.9999999999999964
  endloop
endfacet
facet normal -1.0 0.0 -0.0
  outer loop
    vertex 40.00000000000001 0.9999999999999996 11.99999999999999
    vertex 40.00000000000001 -9.093935021090175e-17 7.9999999999999964
    vertex 40.00000000000001 -9.093935021090175e-17 11.99999999999999
  endloop
endfacet
facet normal -1.0 0.0 -0.0
  outer loop
    vertex 40.00000000000001 -9.093935021090175e-17 7.9999999999999964
    vertex 40.00000000000001 0.9999999999999996 11.99999999999999
    vertex 40.00000000000001 0.9999999999999996 7.9999999999999964
  endloop
endfacet
facet normal 1.0 0.0 0.0
  outer loop
    vertex 30.0 0.9999999999999996 7.9999999999999964
    vertex 30.0 -9.151608944792473e-17 11.99999999999999
    vertex 30.0 -9.151608944792473e-17 7.9999999999999964
  endloop
endfacet
facet normal 1.0 0.0 0.0
  outer loop
    vertex 30.0 -9.151608944792473e-17 11.99999999999999
    vertex 30.0 0.9999999999999996 7.9999999999999964
    vertex 30.0 0.9999999999999996 11.99999999999999
  endloop
endfacet
facet normal 2.4000060933279717e-16 -1.3215571673553794e-16 1.0
  outer loop
    vertex 70.0 67.00000000000001 1.000000000000002
    vertex 69.00000000000001 75.00000000000001 1.000000000000002
    vertex 69.00000000000001 67.00000000000001 1.000000000000002
  endloop
endfacet
facet normal 2.4000060933279717e-16 -1.3215571673553794e-16 1.0
  outer loop
    vertex 69.00000000000001 75.00000000000001 1.000000000000002
    vertex 70.0 67.00000000000001 1.000000000000002
    vertex 70.0 75.00000000000001 1.000000000000002
  endloop
endfacet
facet normal 2.4000060933279717e-16 -1.3215571673553794e-16 1.0
  outer loop
    vertex 63.00000000000001 0.9999999999999996 0.9999999999999999
    vertex 19.000000000000078 7.00000000000001 1.000000000000006
    vertex 19.000000000000078 0.9999999999999989 1.0000000000000009
  endloop
endfacet
facet normal 2.4000060933279717e-16 -1.3215571673553794e-16 1.0
  outer loop
    vertex 19.000000000000078 7.00000000000001 1.000000000000006
    vertex 63.00000000000001 0.9999999999999996 0.9999999999999999
    vertex 41.500000000000085 77.0 1.000000000000002
  endloop
endfacet
facet normal 2.4000060933279717e-16 -1.3215571673553794e-16 1.0
  outer loop
    vertex 41.500000000000085 77.0 1.000000000000002
    vertex 63.00000000000001 0.9999999999999996 0.9999999999999999
    vertex 62.00000000000001 60.0 1.0000000000000018
  endloop
endfacet
facet normal 2.4000060933279717e-16 -1.3215571673553794e-16 1.0
  outer loop
    vertex 62.00000000000001 60.0 1.0000000000000018
    vertex 63.00000000000001 0.9999999999999996 0.9999999999999999
    vertex 63.00000000000001 6.999999999999998 1.000000000000002
  endloop
endfacet
facet normal 2.4000060933279717e-16 -1.3215571673553794e-16 1.0
  outer loop
    vertex 62.00000000000001 60.0 1.0000000000000018
    vertex 63.00000000000001 6.999999999999998 1.000000000000002
    vertex 68.00000000000001 60.0 1.000000000000002
  endloop
endfacet
facet normal 2.4000060933279717e-16 -1.3215571673553794e-16 1.0
  outer loop
    vertex 68.00000000000001 60.0 1.000000000000002
    vertex 63.00000000000001 6.999999999999998 1.000000000000002
    vertex 69.00000000000001 6.999999999999998 1.000000000000002
  endloop
endfacet
facet normal 2.4000060933279717e-16 -1.3215571673553794e-16 1.0
  outer loop
    vertex 68.00000000000001 60.0 1.000000000000002
    vertex 69.00000000000001 6.999999999999998 1.000000000000002
    vertex 68.00000000000001 65.0 1.000000000000002
  endloop
endfacet
facet normal 2.4000060933279717e-16 -1.3215571673553794e-16 1.0
  outer loop
    vertex 68.00000000000001 65.0 1.000000000000002
    vertex 69.00000000000001 6.999999999999998 1.000000000000002
    vertex 68.00000000000001 77.0 1.000000000000002
  endloop
endfacet
facet normal 2.4000060933279717e-16 -1.3215571673553794e-16 1.0
  outer loop
    vertex 68.00000000000001 77.0 1.000000000000002
    vertex 69.00000000000001 6.999999999999998 1.000000000000002
    vertex 68.00000000000001 82.00000000000001 1.000000000000002
  endloop
endfacet
facet normal 2.4000060933279717e-16 -1.3215571673553794e-16 1.0
  outer loop
    vertex 68.00000000000001 82.00000000000001 1.000000000000002
    vertex 69.00000000000001 6.999999999999998 1.000000000000002
    vertex 69.00000000000001 82.00000000000001 1.000000000000002
  endloop
endfacet
facet normal 2.4000060933279717e-16 -1.3215571673553794e-16 1.0
  outer loop
    vertex 69.00000000000001 82.00000000000001 1.000000000000002
    vertex 69.00000000000001 6.999999999999998 1.000000000000002
    vertex 69.00000000000001 67.00000000000001 1.000000000000002
  endloop
endfacet
facet normal 2.4000060933279717e-16 -1.3215571673553794e-16 1.0
  outer loop
    vertex 69.00000000000001 82.00000000000001 1.000000000000002
    vertex 69.00000000000001 67.00000000000001 1.000000000000002
    vertex 69.00000000000001 75.00000000000001 1.000000000000002
  endloop
endfacet
facet normal 2.4000060933279717e-16 -1.3215571673553794e-16 1.0
  outer loop
    vertex 41.500000000000085 77.0 1.000000000000002
    vertex 62.00000000000001 65.0 1.000000000000002
    vertex 68.00000000000001 77.0 1.000000000000002
  endloop
endfacet
facet normal 2.4000060933279717e-16 -1.3215571673553794e-16 1.0
  outer loop
    vertex 62.00000000000001 65.0 1.000000000000002
    vertex 41.500000000000085 77.0 1.000000000000002
    vertex 62.00000000000001 60.0 1.0000000000000018
  endloop
endfacet
facet normal 2.4000060933279717e-16 -1.3215571673553794e-16 1.0
  outer loop
    vertex 68.00000000000001 77.0 1.000000000000002
    vertex 62.00000000000001 65.0 1.000000000000002
    vertex 68.00000000000001 65.0 1.000000000000002
  endloop
endfacet
facet normal 2.4000060933279717e-16 -1.3215571673553794e-16 1.0
  outer loop
    vertex 0.999999999999999 6.999999999999998 1.0000000000000044
    vertex 18.999999999999964 81.99999999999999 1.0000000000000326
    vertex 0.9999999999999905 81.99999999999997 1.000000000000012
  endloop
endfacet
facet normal 2.4000060933279717e-16 -1.3215571673553794e-16 1.0
  outer loop
    vertex 18.999999999999964 81.99999999999999 1.0000000000000326
    vertex 0.999999999999999 6.999999999999998 1.0000000000000044
    vertex 19.000000000000078 7.00000000000001 1.000000000000006
  endloop
endfacet
facet normal 2.4000060933279717e-16 -1.3215571673553794e-16 1.0
  outer loop
    vertex 18.999999999999964 81.99999999999999 1.0000000000000326
    vertex 19.000000000000078 7.00000000000001 1.000000000000006
    vertex 18.999999999999975 78.60065436251027 1.0000000000000504
  endloop
endfacet
facet normal 2.4000060933279717e-16 -1.3215571673553794e-16 1.0
  outer loop
    vertex 18.999999999999975 78.60065436251027 1.0000000000000504
    vertex 19.000000000000078 7.00000000000001 1.000000000000006
    vertex 19.000000000000075 77.0 1.000000000000002
  endloop
endfacet
facet normal 2.4000060933279717e-16 -1.3215571673553794e-16 1.0
  outer loop
    vertex 19.000000000000075 77.0 1.000000000000002
    vertex 19.000000000000078 7.00000000000001 1.000000000000006
    vertex 41.500000000000085 77.0 1.000000000000002
  endloop
endfacet
facet normal 0.0 0.0 1.0
  outer loop
    vertex 68.00000000000001 77.0 4.999999999999999
    vertex 64.0 82.00000000000001 4.999999999999999
    vertex 64.0 77.0 4.999999999999999
  endloop
endfacet
facet normal 0.0 0.0 1.0
  outer loop
    vertex 64.0 82.00000000000001 4.999999999999999
    vertex 68.00000000000001 77.0 4.999999999999999
    vertex 68.00000000000001 82.00000000000001 4.999999999999999
  endloop
endfacet
facet normal -1.0 0.0 0.0
  outer loop
    vertex 63.00000000000001 88.00000000000001 21.49999999999996
    vertex 63.00000000000001 82.00000000000001 11.99999999999999
    vertex 63.00000000000001 82.00000000000001 21.49999999999996
  endloop
endfacet
facet normal -1.0 0.0 0.0
  outer loop
    vertex 63.00000000000001 82.00000000000001 11.99999999999999
    vertex 63.00000000000001 88.00000000000001 21.49999999999996
    vertex 63.00000000000001 88.00000000000001 11.99999999999999
  endloop
endfacet
facet normal 0.0 -1.0 0.0
  outer loop
    vertex 68.00000000000001 77.0 4.999999999999999
    vertex 41.500000000000085 77.0 1.000000000000002
    vertex 68.00000000000001 77.0 1.000000000000002
  endloop
endfacet
facet normal 0.0 -1.0 0.0
  outer loop
    vertex 41.500000000000085 77.0 1.000000000000002
    vertex 68.00000000000001 77.0 4.999999999999999
    vertex 19.000000000000075 77.0 1.000000000000002
  endloop
endfacet
facet normal 0.0 -1.0 0.0
  outer loop
    vertex 19.000000000000075 77.0 1.000000000000002
    vertex 68.00000000000001 77.0 4.999999999999999
    vertex 64.0 77.0 4.999999999999999
  endloop
endfacet
facet normal 0.0 -1.0 0.0
  outer loop
    vertex 19.000000000000075 77.0 1.000000000000002
    vertex 64.0 77.0 4.999999999999999
    vertex 19.000000000000075 77.0 11.999999999999984
  endloop
endfacet
facet normal 0.0 -1.0 0.0
  outer loop
    vertex 19.000000000000075 77.0 11.999999999999984
    vertex 64.0 77.0 4.999999999999999
    vertex 64.0 77.0 11.999999999999984
  endloop
endfacet
facet normal 1.0 -0.0 0.0
  outer loop
    vertex 68.00000000000001 82.00000000000001 1.000000000000002
    vertex 68.00000000000001 77.0 4.999999999999999
    vertex 68.00000000000001 77.0 1.000000000000002
  endloop
endfacet
facet normal 1.0 -0.0 0.0
  outer loop
    vertex 68.00000000000001 77.0 4.999999999999999
    vertex 68.00000000000001 82.00000000000001 1.000000000000002
    vertex 68.00000000000001 82.00000000000001 4.999999999999999
  endloop
endfacet
facet normal -0.0 -0.0 1.0
  outer loop
    vertex 68.00000000000001 60.0 5.000000000000001
    vertex 64.0 65.0 5.000000000000001
    vertex 64.0 60.0 5.000000000000001
  endloop
endfacet
facet normal -0.0 -0.0 1.0
  outer loop
    vertex 64.0 65.0 5.000000000000001
    vertex 68.00000000000001 60.0 5.000000000000001
    vertex 68.00000000000001 65.0 5.000000000000001
  endloop
endfacet
facet normal 1.0 -0.0 1.762479051592435e-17
  outer loop
    vertex 68.00000000000001 65.0 1.000000000000002
    vertex 68.00000000000001 60.0 5.000000000000001
    vertex 68.00000000000001 60.0 1.000000000000002
  endloop
endfacet
facet normal 1.0 -0.0 1.762479051592435e-17
  outer loop
    vertex 68.00000000000001 60.0 5.000000000000001
    vertex 68.00000000000001 65.0 1.000000000000002
    vertex 68.00000000000001 65.0 5.000000000000001
  endloop
endfacet
facet normal 0.0 1.0 1.762479051592435e-17
  outer loop
    vertex 62.00000000000001 65.0 1.000000000000002
    vertex 64.0 65.0 5.000000000000001
    vertex 68.00000000000001 65.0 1.000000000000002
  endloop
endfacet
facet normal 0.0 1.0 1.762479051592435e-17
  outer loop
    vertex 64.0 65.0 5.000000000000001
    vertex 62.00000000000001 65.0 1.000000000000002
    vertex 62.00000000000001 65.0 11.999999999999991
  endloop
endfacet
facet normal 0.0 1.0 1.762479051592435e-17
  outer loop
    vertex 64.0 65.0 5.000000000000001
    vertex 62.00000000000001 65.0 11.999999999999991
    vertex 64.0 65.0 11.999999999999991
  endloop
endfacet
facet normal 0.0 1.0 1.762479051592435e-17
  outer loop
    vertex 68.00000000000001 65.0 5.000000000000001
    vertex 68.00000000000001 65.0 1.000000000000002
    vertex 64.0 65.0 5.000000000000001
  endloop
endfacet
facet normal -1.0 6.2126648146043394e-34 -1.762479051592435e-17
  outer loop
    vertex 62.00000000000001 65.0 11.999999999999991
    vertex 62.00000000000001 60.0 1.0000000000000018
    vertex 62.00000000000001 60.0 11.999999999999991
  endloop
endfacet
facet normal -1.0 6.2126648146043394e-34 -1.762479051592435e-17
  outer loop
    vertex 62.00000000000001 60.0 1.0000000000000018
    vertex 62.00000000000001 65.0 11.999999999999991
    vertex 62.00000000000001 65.0 1.000000000000002
  endloop
endfacet
facet normal 6.2126648146043394e-34 -1.0 -1.762479051592435e-17
  outer loop
    vertex 62.00000000000001 60.0 1.0000000000000018
    vertex 64.0 60.0 5.000000000000001
    vertex 62.00000000000001 60.0 11.999999999999991
  endloop
endfacet
facet normal 6.2126648146043394e-34 -1.0 -1.762479051592435e-17
  outer loop
    vertex 64.0 60.0 5.000000000000001
    vertex 62.00000000000001 60.0 1.0000000000000018
    vertex 68.00000000000001 60.0 1.000000000000002
  endloop
endfacet
facet normal 6.2126648146043394e-34 -1.0 -1.762479051592435e-17
  outer loop
    vertex 64.0 60.0 5.000000000000001
    vertex 68.00000000000001 60.0 1.000000000000002
    vertex 68.00000000000001 60.0 5.000000000000001
  endloop
endfacet
facet normal 6.2126648146043394e-34 -1.0 -1.762479051592435e-17
  outer loop
    vertex 62.00000000000001 60.0 11.999999999999991
    vertex 64.0 60.0 5.000000000000001
    vertex 64.0 60.0 11.999999999999991
  endloop
endfacet
facet normal -0.0 1.0 -0.0
  outer loop
    vertex 69.00000000000001 67.00000000000001 4.000000000000002
    vertex 70.0 67.00000000000001 1.000000000000002
    vertex 69.00000000000001 67.00000000000001 1.000000000000002
  endloop
endfacet
facet normal -0.0 1.0 -0.0
  outer loop
    vertex 70.0 67.00000000000001 1.000000000000002
    vertex 69.00000000000001 67.00000000000001 4.000000000000002
    vertex 70.0 67.00000000000001 4.000000000000002
  endloop
endfacet
facet normal 0.0 -1.0 0.0
  outer loop
    vertex 70.0 75.00000000000001 4.000000000000002
    vertex 69.00000000000001 75.00000000000001 1.000000000000002
    vertex 70.0 75.00000000000001 1.000000000000002
  endloop
endfacet
facet normal 0.0 -1.0 0.0
  outer loop
    vertex 69.00000000000001 75.00000000000001 1.000000000000002
    vertex 70.0 75.00000000000001 4.000000000000002
    vertex 69.00000000000001 75.00000000000001 4.000000000000002
  endloop
endfacet
facet normal 0.0 -0.9978589232386029 0.06540312923015167
  outer loop
    vertex 41.50000000000005 84.03422055450477 1.5221047688802074
    vertex 27.46126791474297 84.00000000000001 1.0000000000001197
    vertex 41.50000000000005 84.0 1.0000000000000007
  endloop
endfacet
facet normal 0.0 -0.9978589232386029 0.06540312923015167
  outer loop
    vertex 27.46126791474297 84.00000000000001 1.0000000000001197
    vertex 41.50000000000005 84.03422055450477 1.5221047688802074
    vertex 27.46126791474297 84.03422055450478 1.5221047688803264
  endloop
endfacet
facet normal 0.0 -0.9807852804032321 0.19509032201612
  outer loop
    vertex 41.50000000000005 84.13629669484374 2.0352761804100847
    vertex 27.46126791474297 84.03422055450478 1.5221047688803264
    vertex 41.50000000000005 84.03422055450477 1.5221047688802074
  endloop
endfacet
facet normal 0.0 -0.9807852804032321 0.19509032201612
  outer loop
    vertex 27.46126791474297 84.03422055450478 1.5221047688803264
    vertex 41.50000000000005 84.13629669484374 2.0352761804100847
    vertex 27.46126791474297 84.13629669484374 2.0352761804102135
  endloop
endfacet
facet normal 0.0 -0.9469301294951047 0.3214394653031647
  outer loop
    vertex 41.50000000000005 84.30448186995486 2.530733729460361
    vertex 27.46126791474297 84.13629669484374 2.0352761804102135
    vertex 41.50000000000005 84.13629669484374 2.0352761804100847
  endloop
endfacet
facet normal 0.0 -0.9469301294951047 0.3214394653031647
  outer loop
    vertex 27.46126791474297 84.13629669484374 2.0352761804102135
    vertex 41.50000000000005 84.30448186995486 2.530733729460361
    vertex 27.46126791474297 84.30448186995487 2.5307337294604904
  endloop
endfacet
facet normal 0.0 -0.8968727415326887 0.44228869021900086
  outer loop
    vertex 41.50000000000005 84.53589838486225 3.000000000000002
    vertex 27.46126791474297 84.30448186995487 2.5307337294604904
    vertex 41.50000000000005 84.30448186995486 2.530733729460361
  endloop
endfacet
facet normal 0.0 -0.8968727415326887 0.44228869021900086
  outer loop
    vertex 27.46126791474297 84.30448186995487 2.5307337294604904
    vertex 41.50000000000005 84.53589838486225 3.000000000000002
    vertex 27.46126791474297 84.53589838486226 3.0000000000001315
  endloop
endfacet
facet normal 0.0 -0.8314696123025466 0.5555702330196004
  outer loop
    vertex 41.50000000000005 84.82658663883507 3.4350457160348857
    vertex 27.46126791474297 84.53589838486226 3.0000000000001315
    vertex 41.50000000000005 84.53589838486225 3.000000000000002
  endloop
endfacet
facet normal 0.0 -0.8314696123025466 0.5555702330196004
  outer loop
    vertex 27.46126791474297 84.53589838486226 3.0000000000001315
    vertex 41.50000000000005 84.82658663883507 3.4350457160348857
    vertex 27.46126791474297 84.82658663883508 3.4350457160350167
  endloop
endfacet
facet normal 0.0 -0.7518398074789807 0.6593458151000651
  outer loop
    vertex 41.50000000000005 85.17157287525382 3.8284271247461925
    vertex 27.46126791474297 84.82658663883508 3.4350457160350167
    vertex 41.50000000000005 84.82658663883507 3.4350457160348857
  endloop
endfacet
facet normal 0.0 -0.7518398074789807 0.6593458151000651
  outer loop
    vertex 27.46126791474297 84.82658663883508 3.4350457160350167
    vertex 41.50000000000005 85.17157287525382 3.8284271247461925
    vertex 27.46126791474297 85.17157287525382 3.8284271247463235
  endloop
endfacet
facet normal 0.0 -0.6593458151000683 0.7518398074789779
  outer loop
    vertex 41.50000000000005 85.17157287525382 3.8284271247461925
    vertex 27.46126791474297 85.56495428396514 4.173413361165075
    vertex 27.46126791474297 85.17157287525382 3.8284271247463235
  endloop
endfacet
facet normal 0.0 -0.6593458151000683 0.7518398074789779
  outer loop
    vertex 27.46126791474297 85.56495428396514 4.173413361165075
    vertex 41.50000000000005 85.17157287525382 3.8284271247461925
    vertex 41.50000000000005 85.56495428396512 4.173413361164943
  endloop
endfacet
facet normal 0.0 -0.5555702330195961 0.8314696123025495
  outer loop
    vertex 41.50000000000005 85.56495428396512 4.173413361164943
    vertex 27.46126791474297 86.00000000000003 4.46410161513789
    vertex 27.46126791474297 85.56495428396514 4.173413361165075
  endloop
endfacet
facet normal 0.0 -0.5555702330195961 0.8314696123025495
  outer loop
    vertex 27.46126791474297 86.00000000000003 4.46410161513789
    vertex 41.50000000000005 85.56495428396512 4.173413361164943
    vertex 41.50000000000005 86.00000000000001 4.464101615137759
  endloop
endfacet
facet normal 0.0 -0.44228869021900696 0.8968727415326856
  outer loop
    vertex 41.50000000000005 86.00000000000001 4.464101615137759
    vertex 27.46126791474297 86.46926627053965 4.695518130045282
    vertex 27.46126791474297 86.00000000000003 4.46410161513789
  endloop
endfacet
facet normal 0.0 -0.44228869021900696 0.8968727415326856
  outer loop
    vertex 27.46126791474297 86.46926627053965 4.695518130045282
    vertex 41.50000000000005 86.00000000000001 4.464101615137759
    vertex 41.50000000000005 86.46926627053965 4.695518130045151
  endloop
endfacet
facet normal 0.0 -0.32143946530315576 0.9469301294951077
  outer loop
    vertex 41.50000000000005 86.46926627053965 4.695518130045151
    vertex 27.46126791474297 86.96472381958993 4.863703305156408
    vertex 27.46126791474297 86.46926627053965 4.695518130045282
  endloop
endfacet
facet normal 0.0 -0.32143946530315576 0.9469301294951077
  outer loop
    vertex 27.46126791474297 86.96472381958993 4.863703305156408
    vertex 41.50000000000005 86.46926627053965 4.695518130045151
    vertex 41.50000000000005 86.96472381958993 4.863703305156276
  endloop
endfacet
facet normal 0.0 -0.19509032201612872 0.9807852804032304
  outer loop
    vertex 41.50000000000005 86.96472381958993 4.863703305156276
    vertex 27.46126791474297 87.47789523111982 4.965779445495376
    vertex 27.46126791474297 86.96472381958993 4.863703305156408
  endloop
endfacet
facet normal 0.0 -0.19509032201612872 0.9807852804032304
  outer loop
    vertex 27.46126791474297 87.47789523111982 4.965779445495376
    vertex 41.50000000000005 86.96472381958993 4.863703305156276
    vertex 41.50000000000005 87.4778952311198 4.965779445495245
  endloop
endfacet
facet normal -0.0 -0.06540312923014385 0.9978589232386036
  outer loop
    vertex 41.50000000000005 87.4778952311198 4.965779445495245
    vertex 27.46126791474297 88.00000000000001 5.000000000000135
    vertex 27.46126791474297 87.47789523111982 4.965779445495376
  endloop
endfacet
facet normal -0.0 -0.06540312923014385 0.9978589232386036
  outer loop
    vertex 27.46126791474297 88.00000000000001 5.000000000000135
    vertex 41.50000000000005 87.4778952311198 4.965779445495245
    vertex 41.50000000000005 88.00000000000001 5.0000000000000036
  endloop
endfacet
facet normal -3.9479530755670435e-15 -5.4273839820350136e-30 -1.0
  outer loop
    vertex 41.50000000000005 89.00000000000001 10.399345637489741
    vertex 27.461267914742933 88.00000000000001 10.399345637489835
    vertex 27.461267914742933 89.00000000000003 10.399345637489835
  endloop
endfacet
facet normal -3.9479530755670435e-15 -5.4273839820350136e-30 -1.0
  outer loop
    vertex 27.461267914742933 88.00000000000001 10.399345637489835
    vertex 41.50000000000005 89.00000000000001 10.399345637489741
    vertex 41.50000000000005 88.00000000000001 10.399345637489741
  endloop
endfacet
facet normal -0.0 -0.0 1.0
  outer loop
    vertex 41.50000000000005 88.00000000000001 5.0000000000000036
    vertex 27.46126791474297 89.00000000000003 5.000000000000135
    vertex 27.46126791474297 88.00000000000001 5.000000000000135
  endloop
endfacet
facet normal -0.0 -0.0 1.0
  outer loop
    vertex 27.46126791474297 89.00000000000003 5.000000000000135
    vertex 41.50000000000005 88.00000000000001 5.0000000000000036
    vertex 41.50000000000005 89.00000000000001 5.0000000000000036
  endloop
endfacet
facet normal -5.013273746751797e-16 -1.0 3.46590232942354e-30
  outer loop
    vertex 41.500000000000085 88.00000000000001 11.99999999999999
    vertex 27.461267914742933 88.00000000000001 10.399345637489835
    vertex 41.50000000000005 88.00000000000001 10.399345637489741
  endloop
endfacet
facet normal -5.013273746751797e-16 -1.0 3.46590232942354e-30
  outer loop
    vertex 27.461267914742933 88.00000000000001 10.399345637489835
    vertex 18.999999999999964 88.00000000000001 12.000000000000078
    vertex 18.999999999999975 88.00000000000001 10.39934563748983
  endloop
endfacet
facet normal -5.013273746751797e-16 -1.0 3.46590232942354e-30
  outer loop
    vertex 18.999999999999964 88.00000000000001 12.000000000000078
    vertex 27.461267914742933 88.00000000000001 10.399345637489835
    vertex 41.500000000000085 88.00000000000001 11.99999999999999
  endloop
endfacet
facet normal 1.0 8.778386388916388e-31 1.4841928855515346e-16
  outer loop
    vertex 6.000000000000003 81.99999999999999 12.000000000000078
    vertex 6.000000000000002 88.00000000000001 21.499999999999925
    vertex 6.0 81.99999999999997 21.499999999999925
  endloop
endfacet
facet normal 1.0 8.778386388916388e-31 1.4841928855515346e-16
  outer loop
    vertex 6.000000000000002 88.00000000000001 21.499999999999925
    vertex 6.000000000000003 81.99999999999999 12.000000000000078
    vertex 6.000000000000002 88.00000000000001 11.99999999999999
  endloop
endfacet
facet normal -1.0 0.0 0.0
  outer loop
    vertex 63.00000000000001 88.00000000000001 11.99999999999999
    vertex 63.00000000000001 82.00000000000001 5.9999999999999964
    vertex 63.00000000000001 82.00000000000001 11.99999999999999
  endloop
endfacet
facet normal -1.0 0.0 0.0
  outer loop
    vertex 41.50000000000005 88.00000000000001 10.399345637489741
    vertex 41.50000000000005 78.60065436251027 -1.6391055179809654e-14
    vertex 41.50000000000005 78.60065436251027 1.0000000000000018
  endloop
endfacet
facet normal -1.0 0.0 0.0
  outer loop
    vertex 41.50000000000005 78.60065436251027 -1.6391055179809654e-14
    vertex 41.50000000000005 88.00000000000001 10.399345637489741
    vertex 41.50000000000005 84.30448186995486 2.530733729460361
  endloop
endfacet
facet normal -1.0 0.0 0.0
  outer loop
    vertex 41.50000000000005 78.60065436251027 -1.6391055179809654e-14
    vertex 41.50000000000005 84.30448186995486 2.530733729460361
    vertex 41.50000000000005 84.13629669484374 2.0352761804100847
  endloop
endfacet
facet normal -1.0 0.0 0.0
  outer loop
    vertex 41.50000000000005 78.60065436251027 -1.6391055179809654e-14
    vertex 41.50000000000005 84.13629669484374 2.0352761804100847
    vertex 41.50000000000005 84.03422055450477 1.5221047688802074
  endloop
endfacet
facet normal -1.0 0.0 0.0
  outer loop
    vertex 41.50000000000005 78.60065436251027 -1.6391055179809654e-14
    vertex 41.50000000000005 84.03422055450477 1.5221047688802074
    vertex 41.50000000000005 84.0 1.0000000000000007
  endloop
endfacet
facet normal -1.0 0.0 0.0
  outer loop
    vertex 41.50000000000005 84.30448186995486 2.530733729460361
    vertex 41.50000000000005 88.00000000000001 10.399345637489741
    vertex 41.50000000000005 84.53589838486225 3.000000000000002
  endloop
endfacet
facet normal -1.0 0.0 0.0
  outer loop
    vertex 41.50000000000005 84.53589838486225 3.000000000000002
    vertex 41.50000000000005 88.00000000000001 10.399345637489741
    vertex 41.50000000000005 84.82658663883507 3.4350457160348857
  endloop
endfacet
facet normal -1.0 0.0 0.0
  outer loop
    vertex 41.50000000000005 84.82658663883507 3.4350457160348857
    vertex 41.50000000000005 88.00000000000001 10.399345637489741
    vertex 41.50000000000005 85.17157287525382 3.8284271247461925
  endloop
endfacet
facet normal -1.0 0.0 0.0
  outer loop
    vertex 41.50000000000005 85.17157287525382 3.8284271247461925
    vertex 41.50000000000005 88.00000000000001 10.399345637489741
    vertex 41.50000000000005 85.56495428396512 4.173413361164943
  endloop
endfacet
facet normal -1.0 0.0 0.0
  outer loop
    vertex 41.50000000000005 85.56495428396512 4.173413361164943
    vertex 41.50000000000005 88.00000000000001 10.399345637489741
    vertex 41.50000000000005 86.00000000000001 4.464101615137759
  endloop
endfacet
facet normal -1.0 0.0 0.0
  outer loop
    vertex 41.50000000000005 86.00000000000001 4.464101615137759
    vertex 41.50000000000005 88.00000000000001 10.399345637489741
    vertex 41.50000000000005 86.46926627053965 4.695518130045151
  endloop
endfacet
facet normal -1.0 0.0 0.0
  outer loop
    vertex 41.50000000000005 86.46926627053965 4.695518130045151
    vertex 41.50000000000005 88.00000000000001 10.399345637489741
    vertex 41.50000000000005 86.96472381958993 4.863703305156276
  endloop
endfacet
facet normal -1.0 0.0 0.0
  outer loop
    vertex 41.50000000000005 86.96472381958993 4.863703305156276
    vertex 41.50000000000005 88.00000000000001 10.399345637489741
    vertex 41.50000000000005 87.4778952311198 4.965779445495245
  endloop
endfacet
facet normal -1.0 0.0 0.0
  outer loop
    vertex 41.50000000000005 87.4778952311198 4.965779445495245
    vertex 41.50000000000005 88.00000000000001 10.399345637489741
    vertex 41.50000000000005 88.00000000000001 5.0000000000000036
  endloop
endfacet
facet normal -1.0 0.0 0.0
  outer loop
    vertex 41.50000000000005 88.00000000000001 5.0000000000000036
    vertex 41.50000000000005 88.00000000000001 10.399345637489741
    vertex 41.50000000000005 89.00000000000001 10.399345637489741
  endloop
endfacet
facet normal -1.0 0.0 0.0
  outer loop
    vertex 41.50000000000005 88.00000000000001 5.0000000000000036
    vertex 41.50000000000005 89.00000000000001 10.399345637489741
    vertex 41.50000000000005 89.00000000000001 5.0000000000000036
  endloop
endfacet
facet normal -1.0 0.0 0.0
  outer loop
    vertex 41.50000000000005 84.0 -1.7448542610765116e-14
    vertex 41.50000000000005 78.60065436251027 -1.6391055179809654e-14
    vertex 41.50000000000005 84.0 1.0000000000000007
  endloop
endfacet
facet normal 1.8730784960141e-17 -0.7071067811865471 0.707106781186548
  outer loop
    vertex 63.00000000000001 82.00000000000001 5.9999999999999964
    vertex 50.00000000000001 88.00000000000001 11.99999999999999
    vertex 50.00000000000001 82.00000000000001 5.999999999999997
  endloop
endfacet
facet normal 1.8730784960141e-17 -0.7071067811865471 0.707106781186548
  outer loop
    vertex 50.00000000000001 88.00000000000001 11.99999999999999
    vertex 63.00000000000001 82.00000000000001 5.9999999999999964
    vertex 63.00000000000001 88.00000000000001 11.99999999999999
  endloop
endfacet
facet normal 1.1949635575692351e-15 -2.1438118477968768e-14 1.0
  outer loop
    vertex 19.000000000000075 77.0 1.000000000000002
    vertex 27.46126791474295 78.60065436251027 1.0000000000000604
    vertex 18.999999999999975 78.60065436251027 1.0000000000000504
  endloop
endfacet
facet normal 1.1949635575692351e-15 -2.1438118477968768e-14 1.0
  outer loop
    vertex 27.46126791474295 78.60065436251027 1.0000000000000604
    vertex 19.000000000000075 77.0 1.000000000000002
    vertex 41.500000000000085 77.0 1.000000000000002
  endloop
endfacet
facet normal 1.1949635575692351e-15 -2.1438118477968768e-14 1.0
  outer loop
    vertex 27.46126791474295 78.60065436251027 1.0000000000000604
    vertex 41.500000000000085 77.0 1.000000000000002
    vertex 41.50000000000005 78.60065436251027 1.0000000000000018
  endloop
endfacet
facet normal 1.0 -5.755270014654364e-15 5.285275600896365e-15
  outer loop
    vertex 18.999999999999975 88.00000000000001 10.39934563748983
    vertex 18.999999999999964 81.99999999999999 6.000000000000015
    vertex 18.99999999999997 81.99999999999999 4.399345637489781
  endloop
endfacet
facet normal 1.0 -5.755270014654364e-15 5.285275600896365e-15
  outer loop
    vertex 18.999999999999964 81.99999999999999 6.000000000000015
    vertex 18.999999999999975 88.00000000000001 10.39934563748983
    vertex 18.999999999999964 88.00000000000001 12.000000000000078
  endloop
endfacet
facet normal -1.796371918247646e-15 0.7071067811865486 -0.7071067811865466
  outer loop
    vertex 27.46126791474295 78.60065436251027 1.0000000000000604
    vertex 41.50000000000005 88.00000000000001 10.399345637489741
    vertex 41.50000000000005 78.60065436251027 1.0000000000000018
  endloop
endfacet
facet normal -1.796371918247646e-15 0.7071067811865486 -0.7071067811865466
  outer loop
    vertex 41.50000000000005 88.00000000000001 10.399345637489741
    vertex 27.46126791474295 78.60065436251027 1.0000000000000604
    vertex 27.461267914742933 88.00000000000001 10.399345637489835
  endloop
endfacet
facet normal -0.0 1.0 -0.0
  outer loop
    vertex 27.46126791474295 78.60065436251027 4.497026797428145e-14
    vertex 41.50000000000005 78.60065436251027 1.0000000000000018
    vertex 41.50000000000005 78.60065436251027 -1.6391055179809654e-14
  endloop
endfacet
facet normal -0.0 1.0 -0.0
  outer loop
    vertex 41.50000000000005 78.60065436251027 1.0000000000000018
    vertex 27.46126791474295 78.60065436251027 4.497026797428145e-14
    vertex 27.46126791474295 78.60065436251027 1.0000000000000604
  endloop
endfacet
facet normal -5.013273746751946e-16 -1.0 -4.1539442521735846e-15
  outer loop
    vertex 41.50000000000005 84.0 1.0000000000000007
    vertex 27.46126791474297 84.00000000000001 1.0424938239041395e-13
    vertex 41.50000000000005 84.0 -1.7448542610765116e-14
  endloop
endfacet
facet normal -5.013273746751946e-16 -1.0 -4.1539442521735846e-15
  outer loop
    vertex 27.46126791474297 84.00000000000001 1.0424938239041395e-13
    vertex 41.50000000000005 84.0 1.0000000000000007
    vertex 27.46126791474297 84.00000000000001 1.0000000000001197
  endloop
endfacet
facet normal 1.0 -4.351750628370259e-15 5.6171619370073035e-15
  outer loop
    vertex 27.46126791474297 84.00000000000001 1.0424938239041395e-13
    vertex 27.46126791474295 78.60065436251027 1.0000000000000604
    vertex 27.46126791474295 78.60065436251027 4.497026797428145e-14
  endloop
endfacet
facet normal 1.0 -4.351750628370259e-15 5.6171619370073035e-15
  outer loop
    vertex 27.46126791474295 78.60065436251027 1.0000000000000604
    vertex 27.46126791474297 84.00000000000001 1.0424938239041395e-13
    vertex 27.46126791474297 84.00000000000001 1.0000000000001197
  endloop
endfacet
facet normal 1.0 -4.351750628370259e-15 5.6171619370073035e-15
  outer loop
    vertex 27.46126791474295 78.60065436251027 1.0000000000000604
    vertex 27.46126791474297 84.00000000000001 1.0000000000001197
    vertex 27.46126791474297 84.03422055450478 1.5221047688803264
  endloop
endfacet
facet normal 1.0 -4.351750628370259e-15 5.6171619370073035e-15
  outer loop
    vertex 27.46126791474295 78.60065436251027 1.0000000000000604
    vertex 27.46126791474297 84.03422055450478 1.5221047688803264
    vertex 27.46126791474297 84.13629669484374 2.0352761804102135
  endloop
endfacet
facet normal 1.0 -4.351750628370259e-15 5.6171619370073035e-15
  outer loop
    vertex 27.46126791474295 78.60065436251027 1.0000000000000604
    vertex 27.46126791474297 84.13629669484374 2.0352761804102135
    vertex 27.46126791474297 84.30448186995487 2.5307337294604904
  endloop
endfacet
facet normal 1.0 -4.351750628370259e-15 5.6171619370073035e-15
  outer loop
    vertex 27.46126791474295 78.60065436251027 1.0000000000000604
    vertex 27.46126791474297 84.30448186995487 2.5307337294604904
    vertex 27.461267914742933 88.00000000000001 10.399345637489835
  endloop
endfacet
facet normal 1.0 -4.351750628370259e-15 5.6171619370073035e-15
  outer loop
    vertex 27.461267914742933 88.00000000000001 10.399345637489835
    vertex 27.46126791474297 84.30448186995487 2.5307337294604904
    vertex 27.46126791474297 84.53589838486226 3.0000000000001315
  endloop
endfacet
facet normal 1.0 -4.351750628370259e-15 5.6171619370073035e-15
  outer loop
    vertex 27.461267914742933 88.00000000000001 10.399345637489835
    vertex 27.46126791474297 84.53589838486226 3.0000000000001315
    vertex 27.46126791474297 84.82658663883508 3.4350457160350167
  endloop
endfacet
facet normal 1.0 -4.351750628370259e-15 5.6171619370073035e-15
  outer loop
    vertex 27.461267914742933 88.00000000000001 10.399345637489835
    vertex 27.46126791474297 84.82658663883508 3.4350457160350167
    vertex 27.46126791474297 85.17157287525382 3.8284271247463235
  endloop
endfacet
facet normal 1.0 -4.351750628370259e-15 5.6171619370073035e-15
  outer loop
    vertex 27.461267914742933 88.00000000000001 10.399345637489835
    vertex 27.46126791474297 85.17157287525382 3.8284271247463235
    vertex 27.46126791474297 85.56495428396514 4.173413361165075
  endloop
endfacet
facet normal 1.0 -4.351750628370259e-15 5.6171619370073035e-15
  outer loop
    vertex 27.461267914742933 88.00000000000001 10.399345637489835
    vertex 27.46126791474297 85.56495428396514 4.173413361165075
    vertex 27.46126791474297 86.00000000000003 4.46410161513789
  endloop
endfacet
facet normal 1.0 -4.351750628370259e-15 5.6171619370073035e-15
  outer loop
    vertex 27.461267914742933 88.00000000000001 10.399345637489835
    vertex 27.46126791474297 86.00000000000003 4.46410161513789
    vertex 27.46126791474297 86.46926627053965 4.695518130045282
  endloop
endfacet
facet normal 1.0 -4.351750628370259e-15 5.6171619370073035e-15
  outer loop
    vertex 27.461267914742933 88.00000000000001 10.399345637489835
    vertex 27.46126791474297 86.46926627053965 4.695518130045282
    vertex 27.46126791474297 86.96472381958993 4.863703305156408
  endloop
endfacet
facet normal 1.0 -4.351750628370259e-15 5.6171619370073035e-15
  outer loop
    vertex 27.461267914742933 88.00000000000001 10.399345637489835
    vertex 27.46126791474297 86.96472381958993 4.863703305156408
    vertex 27.46126791474297 87.47789523111982 4.965779445495376
  endloop
endfacet
facet normal 1.0 -4.351750628370259e-15 5.6171619370073035e-15
  outer loop
    vertex 27.461267914742933 88.00000000000001 10.399345637489835
    vertex 27.46126791474297 87.47789523111982 4.965779445495376
    vertex 27.46126791474297 88.00000000000001 5.000000000000135
  endloop
endfacet
facet normal 1.0 -4.351750628370259e-15 5.6171619370073035e-15
  outer loop
    vertex 27.461267914742933 88.00000000000001 10.399345637489835
    vertex 27.46126791474297 88.00000000000001 5.000000000000135
    vertex 27.46126791474297 89.00000000000003 5.000000000000135
  endloop
endfacet
facet normal 1.0 -4.351750628370259e-15 5.6171619370073035e-15
  outer loop
    vertex 27.461267914742933 88.00000000000001 10.399345637489835
    vertex 27.46126791474297 89.00000000000003 5.000000000000135
    vertex 27.461267914742933 89.00000000000003 10.399345637489835
  endloop
endfacet
facet normal 5.617293558650514e-16 -1.0 -7.488136133264399e-17
  outer loop
    vertex 18.999999999999964 81.99999999999999 1.0000000000000326
    vertex 0.9999999999999905 81.99999999999997 11.999999999999988
    vertex 0.9999999999999905 81.99999999999997 1.000000000000012
  endloop
endfacet
facet normal 5.617293558650514e-16 -1.0 -7.488136133264399e-17
  outer loop
    vertex 0.9999999999999905 81.99999999999997 11.999999999999988
    vertex 18.999999999999964 81.99999999999999 1.0000000000000326
    vertex 18.99999999999997 81.99999999999999 4.399345637489781
  endloop
endfacet
facet normal 5.617293558650514e-16 -1.0 -7.488136133264399e-17
  outer loop
    vertex 0.9999999999999905 81.99999999999997 11.999999999999988
    vertex 18.99999999999997 81.99999999999999 4.399345637489781
    vertex 18.999999999999964 81.99999999999999 6.000000000000015
  endloop
endfacet
facet normal 5.617293558650514e-16 -1.0 -7.488136133264399e-17
  outer loop
    vertex 0.9999999999999905 81.99999999999997 11.999999999999988
    vertex 18.999999999999964 81.99999999999999 6.000000000000015
    vertex 18.999999999999964 81.99999999999999 12.000000000000078
  endloop
endfacet
facet normal 5.617293558650514e-16 -1.0 -7.488136133264399e-17
  outer loop
    vertex 0.9999999999999905 81.99999999999997 11.999999999999988
    vertex 18.999999999999964 81.99999999999999 12.000000000000078
    vertex 6.000000000000003 81.99999999999999 12.000000000000078
  endloop
endfacet
facet normal 5.617293558650514e-16 -1.0 -7.488136133264399e-17
  outer loop
    vertex 0.9999999999999905 81.99999999999997 11.999999999999988
    vertex 6.000000000000003 81.99999999999999 12.000000000000078
    vertex 0.9999999999999905 81.99999999999997 21.499999999999925
  endloop
endfacet
facet normal 5.617293558650514e-16 -1.0 -7.488136133264399e-17
  outer loop
    vertex 0.9999999999999905 81.99999999999997 21.499999999999925
    vertex 6.000000000000003 81.99999999999999 12.000000000000078
    vertex 6.0 81.99999999999997 21.499999999999925
  endloop
endfacet
facet normal -1.0 -1.9227570728828924e-14 1.785032069221164e-15
  outer loop
    vertex 18.999999999999964 81.99999999999999 12.000000000000078
    vertex 19.000000000000075 77.0 1.000000000000002
    vertex 19.000000000000075 77.0 11.999999999999984
  endloop
endfacet
facet normal -1.0 -1.9227570728828924e-14 1.785032069221164e-15
  outer loop
    vertex 19.000000000000075 77.0 1.000000000000002
    vertex 18.999999999999964 81.99999999999999 12.000000000000078
    vertex 18.999999999999975 78.60065436251027 1.0000000000000504
  endloop
endfacet
facet normal -1.0 -1.9227570728828924e-14 1.785032069221164e-15
  outer loop
    vertex 18.999999999999975 78.60065436251027 1.0000000000000504
    vertex 18.999999999999964 81.99999999999999 12.000000000000078
    vertex 18.999999999999964 81.99999999999999 1.0000000000000326
  endloop
endfacet
facet normal -1.0 -1.9227570728828924e-14 1.785032069221164e-15
  outer loop
    vertex 18.999999999999964 81.99999999999999 1.0000000000000326
    vertex 18.999999999999964 81.99999999999999 12.000000000000078
    vertex 18.999999999999964 81.99999999999999 6.000000000000015
  endloop
endfacet
facet normal -1.0 -1.9227570728828924e-14 1.785032069221164e-15
  outer loop
    vertex 18.999999999999964 81.99999999999999 1.0000000000000326
    vertex 18.999999999999964 81.99999999999999 6.000000000000015
    vertex 18.99999999999997 81.99999999999999 4.399345637489781
  endloop
endfacet
facet normal 1.4272725141210101e-15 -0.7071067811865477 0.7071067811865474
  outer loop
    vertex 50.00000000000001 88.00000000000001 11.99999999999999
    vertex 18.999999999999964 81.99999999999999 6.000000000000015
    vertex 50.00000000000001 82.00000000000001 5.999999999999997
  endloop
endfacet
facet normal 1.4272725141210101e-15 -0.7071067811865477 0.7071067811865474
  outer loop
    vertex 18.999999999999964 81.99999999999999 6.000000000000015
    vertex 50.00000000000001 88.00000000000001 11.99999999999999
    vertex 41.500000000000085 88.00000000000001 11.99999999999999
  endloop
endfacet
facet normal 1.4272725141210101e-15 -0.7071067811865477 0.7071067811865474
  outer loop
    vertex 18.999999999999964 81.99999999999999 6.000000000000015
    vertex 41.500000000000085 88.00000000000001 11.99999999999999
    vertex 18.999999999999964 88.00000000000001 12.000000000000078
  endloop
endfacet
facet normal 1.0711383832064707e-15 -1.9345294788530447e-16 1.0
  outer loop
    vertex 6.000000000000003 81.99999999999999 12.000000000000078
    vertex 18.999999999999964 88.00000000000001 12.000000000000078
    vertex 6.000000000000002 88.00000000000001 11.99999999999999
  endloop
endfacet
facet normal 1.0711383832064707e-15 -1.9345294788530447e-16 1.0
  outer loop
    vertex 18.999999999999964 88.00000000000001 12.000000000000078
    vertex 6.000000000000003 81.99999999999999 12.000000000000078
    vertex 18.999999999999964 81.99999999999999 12.000000000000078
  endloop
endfacet
facet normal 1.0711383832064707e-15 -1.9345294788530447e-16 1.0
  outer loop
    vertex 18.999999999999964 88.00000000000001 12.000000000000078
    vertex 18.999999999999964 81.99999999999999 12.000000000000078
    vertex 19.000000000000075 77.0 11.999999999999984
  endloop
endfacet
facet normal 1.0711383832064707e-15 -1.9345294788530447e-16 1.0
  outer loop
    vertex 18.999999999999964 88.00000000000001 12.000000000000078
    vertex 19.000000000000075 77.0 11.999999999999984
    vertex 41.500000000000085 88.00000000000001 11.99999999999999
  endloop
endfacet
facet normal 1.0711383832064707e-15 -1.9345294788530447e-16 1.0
  outer loop
    vertex 41.500000000000085 88.00000000000001 11.99999999999999
    vertex 19.000000000000075 77.0 11.999999999999984
    vertex 64.0 77.0 11.999999999999984
  endloop
endfacet
facet normal 1.0711383832064707e-15 -1.9345294788530447e-16 1.0
  outer loop
    vertex 41.500000000000085 88.00000000000001 11.99999999999999
    vertex 64.0 77.0 11.999999999999984
    vertex 50.00000000000001 88.00000000000001 11.99999999999999
  endloop
endfacet
facet normal 1.0711383832064707e-15 -1.9345294788530447e-16 1.0
  outer loop
    vertex 50.00000000000001 88.00000000000001 11.99999999999999
    vertex 64.0 77.0 11.999999999999984
    vertex 63.00000000000001 82.00000000000001 11.99999999999999
  endloop
endfacet
facet normal 1.0711383832064707e-15 -1.9345294788530447e-16 1.0
  outer loop
    vertex 63.00000000000001 82.00000000000001 11.99999999999999
    vertex 64.0 77.0 11.999999999999984
    vertex 64.0 82.00000000000001 11.999999999999984
  endloop
endfacet
facet normal 1.0711383832064707e-15 -1.9345294788530447e-16 1.0
  outer loop
    vertex 63.00000000000001 88.00000000000001 11.99999999999999
    vertex 50.00000000000001 88.00000000000001 11.99999999999999
    vertex 63.00000000000001 82.00000000000001 11.99999999999999
  endloop
endfacet
facet normal -1.0 0.0 0.0
  outer loop
    vertex 69.00000000000001 67.00000000000001 11.99999999999999
    vertex 69.00000000000001 6.999999999999998 1.000000000000002
    vertex 69.00000000000001 6.999999999999998 11.99999999999999
  endloop
endfacet
facet normal -1.0 0.0 0.0
  outer loop
    vertex 69.00000000000001 6.999999999999998 1.000000000000002
    vertex 69.00000000000001 67.00000000000001 11.99999999999999
    vertex 69.00000000000001 67.00000000000001 1.000000000000002
  endloop
endfacet
facet normal -1.0 0.0 0.0
  outer loop
    vertex 69.00000000000001 67.00000000000001 1.000000000000002
    vertex 69.00000000000001 67.00000000000001 11.99999999999999
    vertex 69.00000000000001 67.00000000000001 4.000000000000002
  endloop
endfacet
facet normal -0.0 -0.0 1.0
  outer loop
    vertex 70.0 -9.122361633523338e-17 11.99999999999999
    vertex 40.00000000000001 0.9999999999999996 11.99999999999999
    vertex 40.00000000000001 -9.093935021090175e-17 11.99999999999999
  endloop
endfacet
facet normal -0.0 -0.0 1.0
  outer loop
    vertex 40.00000000000001 0.9999999999999996 11.99999999999999
    vertex 70.0 -9.122361633523338e-17 11.99999999999999
    vertex 63.00000000000001 0.9999999999999996 11.99999999999999
  endloop
endfacet
facet normal -0.0 -0.0 1.0
  outer loop
    vertex 63.00000000000001 0.9999999999999996 11.99999999999999
    vertex 70.0 -9.122361633523338e-17 11.99999999999999
    vertex 69.00000000000001 0.9999999999999981 11.99999999999999
  endloop
endfacet
facet normal -0.0 -0.0 1.0
  outer loop
    vertex 69.00000000000001 0.9999999999999981 11.99999999999999
    vertex 70.0 -9.122361633523338e-17 11.99999999999999
    vertex 69.00000000000001 6.999999999999998 11.99999999999999
  endloop
endfacet
facet normal -0.0 -0.0 1.0
  outer loop
    vertex 69.00000000000001 6.999999999999998 11.99999999999999
    vertex 70.0 -9.122361633523338e-17 11.99999999999999
    vertex 69.00000000000001 67.00000000000001 11.99999999999999
  endloop
endfacet
facet normal -0.0 -0.0 1.0
  outer loop
    vertex 69.00000000000001 67.00000000000001 11.99999999999999
    vertex 70.0 -9.122361633523338e-17 11.99999999999999
    vertex 70.0 67.00000000000001 11.99999999999999
  endloop
endfacet
facet normal -0.0 1.0 -0.0
  outer loop
    vertex 69.00000000000001 67.00000000000001 11.99999999999999
    vertex 70.0 67.00000000000001 4.000000000000002
    vertex 69.00000000000001 67.00000000000001 4.000000000000002
  endloop
endfacet
facet normal -0.0 1.0 -0.0
  outer loop
    vertex 70.0 67.00000000000001 4.000000000000002
    vertex 69.00000000000001 67.00000000000001 11.99999999999999
    vertex 70.0 67.00000000000001 11.99999999999999
  endloop
endfacet
facet normal 0.0 -1.0 0.0
  outer loop
    vertex 70.0 75.00000000000001 11.99999999999999
    vertex 69.00000000000001 75.00000000000001 4.000000000000002
    vertex 70.0 75.00000000000001 4.000000000000002
  endloop
endfacet
facet normal 0.0 -1.0 0.0
  outer loop
    vertex 69.00000000000001 75.00000000000001 4.000000000000002
    vertex 70.0 75.00000000000001 11.99999999999999
    vertex 69.00000000000001 75.00000000000001 11.99999999999999
  endloop
endfacet
facet normal 1.0 -0.0 -0.0
  outer loop
    vertex 70.0 89.00000000000001 0.0
    vertex 70.0 67.00000000000001 1.000000000000002
    vertex 70.0 0.0 0.0
  endloop
endfacet
facet normal 1.0 -0.0 -0.0
  outer loop
    vertex 70.0 67.00000000000001 1.000000000000002
    vertex 70.0 89.00000000000001 0.0
    vertex 70.0 75.00000000000001 1.000000000000002
  endloop
endfacet
facet normal 1.0 -0.0 -0.0
  outer loop
    vertex 70.0 75.00000000000001 1.000000000000002
    vertex 70.0 89.00000000000001 0.0
    vertex 70.0 75.00000000000001 4.000000000000002
  endloop
endfacet
facet normal 1.0 -0.0 -0.0
  outer loop
    vertex 70.0 75.00000000000001 4.000000000000002
    vertex 70.0 89.00000000000001 0.0
    vertex 70.0 75.00000000000001 11.99999999999999
  endloop
endfacet
facet normal 1.0 -0.0 -0.0
  outer loop
    vertex 70.0 75.00000000000001 11.99999999999999
    vertex 70.0 89.00000000000001 0.0
    vertex 70.0 89.00000000000001 11.99999999999999
  endloop
endfacet
facet normal 1.0 -0.0 -0.0
  outer loop
    vertex 70.0 0.0 0.0
    vertex 70.0 67.00000000000001 11.99999999999999
    vertex 70.0 -9.122361633523338e-17 11.99999999999999
  endloop
endfacet
facet normal 1.0 -0.0 -0.0
  outer loop
    vertex 70.0 67.00000000000001 11.99999999999999
    vertex 70.0 0.0 0.0
    vertex 70.0 67.00000000000001 1.000000000000002
  endloop
endfacet
facet normal 1.0 -0.0 -0.0
  outer loop
    vertex 70.0 67.00000000000001 11.99999999999999
    vertex 70.0 67.00000000000001 1.000000000000002
    vertex 70.0 67.00000000000001 4.000000000000002
  endloop
endfacet
facet normal 1.0 -0.0 0.0
  outer loop
    vertex 64.0 82.00000000000001 4.999999999999999
    vertex 64.0 77.0 11.999999999999984
    vertex 64.0 77.0 4.999999999999999
  endloop
endfacet
facet normal 1.0 -0.0 0.0
  outer loop
    vertex 64.0 77.0 11.999999999999984
    vertex 64.0 82.00000000000001 4.999999999999999
    vertex 64.0 82.00000000000001 11.999999999999984
  endloop
endfacet
facet normal 0.0 0.0 1.0
  outer loop
    vertex 64.0 60.0 11.999999999999991
    vertex 62.00000000000001 65.0 11.999999999999991
    vertex 62.00000000000001 60.0 11.999999999999991
  endloop
endfacet
facet normal 0.0 0.0 1.0
  outer loop
    vertex 62.00000000000001 65.0 11.999999999999991
    vertex 64.0 60.0 11.999999999999991
    vertex 64.0 65.0 11.999999999999991
  endloop
endfacet
facet normal 1.0 -0.0 0.0
  outer loop
    vertex 64.0 65.0 5.000000000000001
    vertex 64.0 60.0 11.999999999999991
    vertex 64.0 60.0 5.000000000000001
  endloop
endfacet
facet normal 1.0 -0.0 0.0
  outer loop
    vertex 64.0 60.0 11.999999999999991
    vertex 64.0 65.0 5.000000000000001
    vertex 64.0 65.0 11.999999999999991
  endloop
endfacet
facet normal -2.711506233219116e-16 -3.52495810318487e-16 1.0
  outer loop
    vertex 19.000000000000078 0.9999999999999913 11.999999999999991
    vertex 6.000000000000002 6.999999999999998 11.99999999999999
    vertex 6.000000000000002 0.999999999999992 11.999999999999991
  endloop
endfacet
facet normal -2.711506233219116e-16 -3.52495810318487e-16 1.0
  outer loop
    vertex 6.000000000000002 6.999999999999998 11.99999999999999
    vertex 19.000000000000078 0.9999999999999913 11.999999999999991
    vertex 19.000000000000078 7.000000000000008 11.999999999999996
  endloop
endfacet
facet normal 1.0 -0.0 -0.0
  outer loop
    vertex 19.000000000000078 0.9999999999999989 1.0000000000000009
    vertex 19.000000000000078 7.000000000000008 11.999999999999996
    vertex 19.000000000000078 0.9999999999999913 11.999999999999991
  endloop
endfacet
facet normal 1.0 -0.0 -0.0
  outer loop
    vertex 19.000000000000078 7.000000000000008 11.999999999999996
    vertex 19.000000000000078 0.9999999999999989 1.0000000000000009
    vertex 19.000000000000078 7.00000000000001 1.000000000000006
  endloop
endfacet
facet normal -6.087730523049669e-16 1.0 3.139999579617273e-17
  outer loop
    vertex 0.999999999999999 6.999999999999998 21.499999999999904
    vertex 6.000000000000002 6.999999999999998 11.99999999999999
    vertex 0.999999999999999 6.999999999999998 11.99999999999999
  endloop
endfacet
facet normal -6.087730523049669e-16 1.0 3.139999579617273e-17
  outer loop
    vertex 6.000000000000002 6.999999999999998 11.99999999999999
    vertex 0.999999999999999 6.999999999999998 21.499999999999904
    vertex 6.000000000000001 6.999999999999998 21.499999999999904
  endloop
endfacet
facet normal -6.087730523049669e-16 1.0 3.139999579617273e-17
  outer loop
    vertex 0.999999999999999 6.999999999999998 11.99999999999999
    vertex 19.000000000000078 7.00000000000001 1.000000000000006
    vertex 0.999999999999999 6.999999999999998 1.0000000000000044
  endloop
endfacet
facet normal -6.087730523049669e-16 1.0 3.139999579617273e-17
  outer loop
    vertex 19.000000000000078 7.00000000000001 1.000000000000006
    vertex 0.999999999999999 6.999999999999998 11.99999999999999
    vertex 6.000000000000002 6.999999999999998 11.99999999999999
  endloop
endfacet
facet normal -6.087730523049669e-16 1.0 3.139999579617273e-17
  outer loop
    vertex 19.000000000000078 7.00000000000001 1.000000000000006
    vertex 6.000000000000002 6.999999999999998 11.99999999999999
    vertex 19.000000000000078 7.000000000000008 11.999999999999996
  endloop
endfacet
endsolid EBadge3-back
